<?xml version="1.0" encoding="UTF-8"?>
<svg xmlns="http://www.w3.org/2000/svg" viewBox="0 0 225.25 180.55">
  <defs>
    <style>
      .uuid-349ca68e-56e8-4512-84d1-c2d226a3820b {
        fill: #1d1d1b;
      }

      .uuid-994c388e-4f65-489c-abdd-7c511cd816e2 {
        stroke: #d9d9d9;
      }

      .uuid-994c388e-4f65-489c-abdd-7c511cd816e2, .uuid-bee47d05-3ad7-4a4e-a7f2-41cf2942bda2 {
        fill: #fff;
      }

      .uuid-994c388e-4f65-489c-abdd-7c511cd816e2, .uuid-b1473f7e-ad75-4d11-ad8e-ef1d9083a816 {
        stroke-miterlimit: 10;
      }

      .uuid-c757142c-e714-46e7-adb1-c211e09afa09, .uuid-42a03621-8486-4fb8-b2e5-ec8c6ff98ba7, .uuid-1e9664c1-be3f-4d22-b668-d0a5432aac46, .uuid-8c4f7bdf-412e-4560-aa26-638512da5465, .uuid-5d95d824-3f75-4442-a7e9-99c5aa190d8d {
        fill: #e20613;
      }

      .uuid-b1473f7e-ad75-4d11-ad8e-ef1d9083a816 {
        fill: none;
        stroke: #e5332a;
      }

      .uuid-42a03621-8486-4fb8-b2e5-ec8c6ff98ba7 {
        opacity: .2;
      }

      .uuid-1e9664c1-be3f-4d22-b668-d0a5432aac46 {
        opacity: .6;
      }

      .uuid-8c4f7bdf-412e-4560-aa26-638512da5465 {
        opacity: .4;
      }

      .uuid-5d95d824-3f75-4442-a7e9-99c5aa190d8d {
        opacity: .8;
      }
    </style>
  </defs>
  <rect class="uuid-bee47d05-3ad7-4a4e-a7f2-41cf2942bda2" width="225.25" height="180.55"/>
  <g id="uuid-3878e5f4-e6ba-4c37-a351-c79283759f04" data-name="esempio">
    <path id="uuid-d2ce8272-f856-4f19-8b47-f11d23ff6499" data-name="bordo esterno" class="uuid-994c388e-4f65-489c-abdd-7c511cd816e2" d="M16.59,167.59c-9.26-16.12-14.56-34.8-14.56-54.73C2.03,52.11,51.27,2.86,112.03,2.86s110,49.25,110,110c0,20.06-5.37,38.86-14.75,55.06"/>
    <path class="uuid-42a03621-8486-4fb8-b2e5-ec8c6ff98ba7" d="M17.97,86.09l-6.77-2.2c-7.47,26.35-4.7,55.57,10.07,81.16l-.04-.31c-11.13-26.49-12.17-54.67-3.26-78.65Z"/>
    <path class="uuid-8c4f7bdf-412e-4560-aa26-638512da5465" d="M65.92,18.3c-2.09,1.03-4.17,2.13-6.21,3.31-23.39,13.5-39.61,34.64-47.34,58.45l7.1,2.31c7.24-17.12,19.75-31.85,37.48-41.91,5.09-2.89,10.35-5.23,15.7-7.05l-6.73-15.11Z"/>
    <path class="uuid-1e9664c1-be3f-4d22-b668-d0a5432aac46" d="M151.27,15.08c-25.66-10.27-55.13-10.35-81.74,1.52l6.94,15.59c21.83-6.38,44.99-4.31,64.94,5.02l9.85-22.13Z"/>
    <path class="uuid-5d95d824-3f75-4442-a7e9-99c5aa190d8d" d="M186.04,84.4l24.74-8.04c-2.05-5.56-4.59-11.02-7.65-16.32-11.52-19.96-28.62-34.7-48.18-43.4l-9.95,22.34c14.48,7.56,27.05,19.06,35.85,34.03,2.09,3.63,3.82,7.45,5.19,11.38Z"/>
    <path class="uuid-c757142c-e714-46e7-adb1-c211e09afa09" d="M187.24,88.22c4.67,16.58,2.93,34.93-6.36,51.03-1.95,3.38-4.15,6.52-6.57,9.42l28.91,16.28c14.55-25.33,18.2-56.18,8.88-84.81l-24.85,8.08Z"/>
    <line class="uuid-b1473f7e-ad75-4d11-ad8e-ef1d9083a816" x1="24.2" y1="83.91" x2="12.36" y2="80.06"/>
    <line class="uuid-b1473f7e-ad75-4d11-ad8e-ef1d9083a816" x1="78.54" y1="36.82" x2="69.54" y2="16.6"/>
    <line class="uuid-b1473f7e-ad75-4d11-ad8e-ef1d9083a816" x1="142.95" y1="43.61" x2="154.96" y2="16.65"/>
    <line class="uuid-b1473f7e-ad75-4d11-ad8e-ef1d9083a816" x1="182.46" y1="89.77" x2="212.09" y2="80.15"/>
    <g>
      <path class="uuid-349ca68e-56e8-4512-84d1-c2d226a3820b" d="M120.82,120.91c-4.61,4.76-12.21,4.87-16.97.26-4.76-4.61-4.87-12.21-.26-16.97,4.61-4.76,12.21-4.87,16.97-.26,4.76,4.61,4.87,12.21.26,16.97ZM117.08,107.53c-2.78-2.69-7.21-2.62-9.9.15-2.69,2.78-2.62,7.21.15,9.9s7.21,2.62,9.9-.15c2.69-2.78,2.62-7.21-.15-9.9Z"/>
      <polygon class="uuid-349ca68e-56e8-4512-84d1-c2d226a3820b" points="69.97 71.54 69.97 71.54 110.26 101.33 100.93 110.94 69.97 71.54"/>
    </g>
  </g>
</svg>