<?xml version="1.0" encoding="UTF-8"?>
<svg xmlns="http://www.w3.org/2000/svg" viewBox="0 0 534.93 425.86">
  <defs>
    <style>
      .uuid-2c6a7772-841d-41b4-8136-386be50b2137, .uuid-da2137c7-140a-4fc2-b560-ab6195b3e691, .uuid-39a289fc-237b-4d0c-a32f-c4236e73a56e, .uuid-76c5703b-9c7c-401b-aa77-e2008a86edb9, .uuid-088b0a03-67d6-46a5-8863-d2c648788ddc, .uuid-d515c07b-b9bf-424a-8963-3d54536817ff, .uuid-eba501af-03e9-475b-bf3b-de4cc186a986, .uuid-7891c57c-708f-4fe6-a888-a25ebda36ca9, .uuid-d029bcfa-693b-4939-a5a6-bcb3b4400c28, .uuid-721fcd08-ca25-413a-8a02-48c36c821bd4, .uuid-a5d1f7f0-084e-43bd-88c0-b97fd58acd6b, .uuid-3c1d7637-2e1b-46c7-ae26-4200f3b2a83c, .uuid-52471d8b-f095-4f59-8822-98aacafe992b, .uuid-852ed66b-0c8e-43f2-9d46-712899d637d1, .uuid-bd4cc5c2-67b5-4c63-af74-5eac92733183, .uuid-ec75c12b-93b8-493f-aa1e-17ced76ffb48, .uuid-4e54f3fa-7993-4342-afbc-1714add6a264 {
        fill: none;
      }

      .uuid-da2137c7-140a-4fc2-b560-ab6195b3e691 {
        stroke: #0056ff;
      }

      .uuid-da2137c7-140a-4fc2-b560-ab6195b3e691, .uuid-39a289fc-237b-4d0c-a32f-c4236e73a56e, .uuid-76c5703b-9c7c-401b-aa77-e2008a86edb9, .uuid-088b0a03-67d6-46a5-8863-d2c648788ddc, .uuid-d515c07b-b9bf-424a-8963-3d54536817ff, .uuid-eba501af-03e9-475b-bf3b-de4cc186a986, .uuid-7891c57c-708f-4fe6-a888-a25ebda36ca9, .uuid-d029bcfa-693b-4939-a5a6-bcb3b4400c28, .uuid-721fcd08-ca25-413a-8a02-48c36c821bd4, .uuid-a5d1f7f0-084e-43bd-88c0-b97fd58acd6b, .uuid-3c1d7637-2e1b-46c7-ae26-4200f3b2a83c, .uuid-52471d8b-f095-4f59-8822-98aacafe992b, .uuid-852ed66b-0c8e-43f2-9d46-712899d637d1, .uuid-bd4cc5c2-67b5-4c63-af74-5eac92733183, .uuid-ec75c12b-93b8-493f-aa1e-17ced76ffb48, .uuid-4e54f3fa-7993-4342-afbc-1714add6a264 {
        stroke-miterlimit: 10;
      }

      .uuid-da2137c7-140a-4fc2-b560-ab6195b3e691, .uuid-76c5703b-9c7c-401b-aa77-e2008a86edb9, .uuid-d029bcfa-693b-4939-a5a6-bcb3b4400c28, .uuid-ec75c12b-93b8-493f-aa1e-17ced76ffb48 {
        stroke-width: .75px;
      }

      .uuid-39a289fc-237b-4d0c-a32f-c4236e73a56e, .uuid-eba501af-03e9-475b-bf3b-de4cc186a986 {
        stroke: #e20613;
      }

      .uuid-76c5703b-9c7c-401b-aa77-e2008a86edb9 {
        stroke: red;
      }

      .uuid-088b0a03-67d6-46a5-8863-d2c648788ddc {
        stroke: #2190ff;
      }

      .uuid-233d5f7b-0445-4a59-9da6-4e28dec58480 {
        fill: #fbe910;
      }

      .uuid-d515c07b-b9bf-424a-8963-3d54536817ff {
        stroke: #868686;
        stroke-dasharray: 4;
      }

      .uuid-41b20e8e-c0d5-4c02-9033-669d56f1be00 {
        fill: #1d1d1b;
      }

      .uuid-eba501af-03e9-475b-bf3b-de4cc186a986, .uuid-4e54f3fa-7993-4342-afbc-1714add6a264 {
        stroke-width: 9px;
      }

      .uuid-7891c57c-708f-4fe6-a888-a25ebda36ca9 {
        stroke-dasharray: 1.99 1.99;
      }

      .uuid-7891c57c-708f-4fe6-a888-a25ebda36ca9, .uuid-721fcd08-ca25-413a-8a02-48c36c821bd4, .uuid-a5d1f7f0-084e-43bd-88c0-b97fd58acd6b, .uuid-3c1d7637-2e1b-46c7-ae26-4200f3b2a83c, .uuid-bd4cc5c2-67b5-4c63-af74-5eac92733183 {
        stroke-width: .5px;
      }

      .uuid-7891c57c-708f-4fe6-a888-a25ebda36ca9, .uuid-a5d1f7f0-084e-43bd-88c0-b97fd58acd6b, .uuid-3c1d7637-2e1b-46c7-ae26-4200f3b2a83c, .uuid-bd4cc5c2-67b5-4c63-af74-5eac92733183 {
        stroke: #575756;
      }

      .uuid-a67b86b1-29f4-49b5-a879-4bcc47722f10 {
        fill: #575756;
      }

      .uuid-470e696c-24c4-4edb-a62f-6198927f7d52 {
        fill: #e20613;
      }

      .uuid-a1f5948d-35e5-46b3-aef1-31d2c0c2fbd1 {
        fill: #fff;
      }

      .uuid-b4dbae96-7db5-4387-9fd1-a0548937208b {
        fill: #008c36;
      }

      .uuid-d029bcfa-693b-4939-a5a6-bcb3b4400c28, .uuid-721fcd08-ca25-413a-8a02-48c36c821bd4, .uuid-52471d8b-f095-4f59-8822-98aacafe992b {
        stroke: #1d1d1b;
      }

      .uuid-4d9b6ff1-4e8c-4602-b82b-65cba64e53a5 {
        fill: #706f6f;
      }

      .uuid-90757d85-2121-402b-945d-12d8eef407f1 {
        fill: #07cc00;
      }

      .uuid-3c1d7637-2e1b-46c7-ae26-4200f3b2a83c {
        stroke-dasharray: 1.96 1.96;
      }

      .uuid-52471d8b-f095-4f59-8822-98aacafe992b {
        stroke-width: .25px;
      }

      .uuid-852ed66b-0c8e-43f2-9d46-712899d637d1, .uuid-4e54f3fa-7993-4342-afbc-1714add6a264 {
        stroke: #008c36;
      }

      .uuid-bd4cc5c2-67b5-4c63-af74-5eac92733183 {
        stroke-dasharray: 2.01 2.01;
      }

      .uuid-ec75c12b-93b8-493f-aa1e-17ced76ffb48 {
        stroke: #3c0;
      }

      .uuid-bbca25dc-7813-43b7-b16b-ce1f44a1b6ac {
        fill: red;
      }

      .uuid-4949e011-b100-4238-81f2-9ecd2f1d6823 {
        fill: #f8b133;
      }

      .uuid-dcd6702d-0d3b-4b90-a59d-1388a6afbc5b {
        fill: #0056ff;
      }
    </style>
  </defs>
  <rect class="uuid-a1f5948d-35e5-46b3-aef1-31d2c0c2fbd1" width="534.93" height="425.86"/>
  <g id="uuid-88e8cf25-dbc8-459e-88ed-f3dc6b746cce" data-name="calcolo porzione">
    <g>
      <line class="uuid-d029bcfa-693b-4939-a5a6-bcb3b4400c28" x1="411.41" y1="370.5" x2="480.2" y2="410.14"/>
      <polygon class="uuid-41b20e8e-c0d5-4c02-9033-669d56f1be00" points="412.03 374.4 412.75 374.18 411.65 370.65 415.26 369.82 415.09 369.09 410.7 370.1 412.03 374.4"/>
      <polygon class="uuid-41b20e8e-c0d5-4c02-9033-669d56f1be00" points="476.51 411.56 476.35 410.83 479.95 410 478.86 406.46 479.58 406.24 480.9 410.55 476.51 411.56"/>
    </g>
    <g>
      <path class="uuid-41b20e8e-c0d5-4c02-9033-669d56f1be00" d="M36.35,392.58c.47-.04.81-.1,1-.2.32-.17.55-.5.68-.98l2.34-8.45c-1.23,0-2.04.09-2.43.28s-.86.75-1.38,1.68l-.28-.05.66-2.46h8.53l-.7,2.61-.28-.04.04-.55c0-.49-.11-.86-.33-1.1s-.66-.36-1.32-.36h-.89l-2.24,7.96c-.05.17-.09.33-.12.46-.05.2-.07.36-.07.48,0,.31.1.51.29.58s.57.12,1.13.14v.26h-4.62v-.26Z"/>
      <path class="uuid-41b20e8e-c0d5-4c02-9033-669d56f1be00" d="M49.46,392.07c.32.07.51.11.57.11.11,0,.19-.02.24-.05.05-.04.08-.09.11-.16h.19l-.34,1.86-.16-.02c-.03-.37-.12-.66-.25-.89-.24-.42-.64-.62-1.19-.62-.85,0-1.55.42-2.1,1.28-.48.74-.72,1.54-.72,2.4,0,.64.15,1.12.44,1.45.29.33.67.49,1.12.49s.91-.12,1.3-.35c.23-.14.54-.39.92-.75l.15.13c-.34.43-.72.77-1.15,1.02-.43.25-.9.37-1.42.37-.78,0-1.37-.25-1.79-.74-.42-.49-.62-1.07-.62-1.72,0-.94.35-1.81,1.04-2.61.76-.88,1.69-1.31,2.78-1.31.27,0,.56.04.88.11Z"/>
    </g>
    <path class="uuid-41b20e8e-c0d5-4c02-9033-669d56f1be00" d="M437.95,407.15h.24c.11.59.23,1.02.38,1.3.27.5.67.75,1.2.75.3,0,.55-.1.75-.32.2-.21.3-.49.3-.83,0-.21-.03-.39-.08-.53-.05-.14-.12-.26-.19-.37l-.61-.9c-.37-.55-.6-.91-.69-1.1-.14-.28-.21-.56-.21-.84,0-.42.15-.8.46-1.12.31-.32.74-.49,1.3-.49.24,0,.51.05.82.14.31.09.52.14.63.14.12,0,.21-.02.27-.07s.11-.11.16-.2h.21l-.3,2.08h-.24c-.06-.47-.16-.83-.29-1.07-.23-.44-.61-.67-1.11-.67-.21,0-.41.07-.58.2-.17.13-.25.33-.25.59,0,.2.04.38.11.53.08.15.25.42.52.81l.52.75c.27.39.46.7.57.94.11.25.17.51.17.79,0,.53-.23.97-.67,1.33-.45.36-.98.54-1.6.54-.2,0-.49-.04-.86-.12-.37-.08-.59-.12-.64-.12-.1,0-.17.02-.22.07-.05.04-.09.11-.13.2h-.24l.29-2.4Z"/>
    <line class="uuid-52471d8b-f095-4f59-8822-98aacafe992b" x1="-31.53" y1="278.76" x2="544.59" y2="278.76"/>
    <polygon class="uuid-2c6a7772-841d-41b4-8136-386be50b2137" points="259.92 278.77 259.92 278.77 259.92 278.77 259.92 278.77"/>
    <polygon class="uuid-2c6a7772-841d-41b4-8136-386be50b2137" points="259.92 278.77 259.95 279.63 259.98 278.8 259.92 278.77 259.92 278.77"/>
    <polygon class="uuid-2c6a7772-841d-41b4-8136-386be50b2137" points="259.98 278.8 259.98 278.8 259.92 278.77 259.98 278.8"/>
    <path class="uuid-233d5f7b-0445-4a59-9da6-4e28dec58480" d="M36.53,407.74l-.1-.76C2.22,325.55,6.8,237.62,49.53,171.57l-19.46-9.92c-38.22,75.19-38.85,167.6,6.46,246.09Z"/>
    <path class="uuid-233d5f7b-0445-4a59-9da6-4e28dec58480" d="M483.34,149.77c-46.12-79.88-128.51-125.75-214.36-128.84l-1.87,53.57c65.36,9.19,125.93,46.66,161.49,107.15,28.01,48.72,30.17,110.55.05,162.72-4.79,8.3-10.21,16.02-16.15,23.13l71.02,40c44.33-77.14,47.5-175.14-.18-257.74Z"/>
    <path class="uuid-4949e011-b100-4238-81f2-9ecd2f1d6823" d="M124.16,101.65c40.47-22.95,85.23-32,128.57-28.7l-1.82-52.04c-40.9,1.4-82.05,12.55-119.96,34.44-39.31,22.7-70.37,54.19-92.17,90.54l20.26,12.17c16.97-22.2,38.68-41.42,65.12-56.41Z"/>
    <g>
      <line class="uuid-76c5703b-9c7c-401b-aa77-e2008a86edb9" x1="280.25" y1="264.18" x2="290.5" y2="264.18"/>
      <line class="uuid-76c5703b-9c7c-401b-aa77-e2008a86edb9" x1="285.37" y1="259.05" x2="285.37" y2="269.31"/>
    </g>
    <g>
      <line class="uuid-ec75c12b-93b8-493f-aa1e-17ced76ffb48" x1="230.91" y1="292.86" x2="241.17" y2="292.86"/>
      <line class="uuid-ec75c12b-93b8-493f-aa1e-17ced76ffb48" x1="236.04" y1="287.73" x2="236.04" y2="297.99"/>
    </g>
    <path class="uuid-dcd6702d-0d3b-4b90-a59d-1388a6afbc5b" d="M248.71,270.56c.35-.09.63-.25.84-.49s.62-.88,1.23-1.93l4.67-8h.35l1.54,9.05c.1.58.22.95.35,1.09s.42.24.87.28v.26h-3.95v-.26c.47-.05.78-.1.92-.17.22-.1.34-.31.34-.61,0-.08,0-.16,0-.25s-.01-.16-.02-.23l-.34-2.09h-3.42l-1.01,1.8c-.07.12-.13.25-.18.38-.09.24-.13.44-.13.6,0,.2.07.35.21.43s.38.13.74.14v.26h-3v-.26ZM255.4,266.63l-.68-4.15-2.32,4.15h3Z"/>
    <path class="uuid-bbca25dc-7813-43b7-b16b-ce1f44a1b6ac" d="M293.72,271.68c.38-.03.63-.1.77-.2.22-.16.4-.48.54-.98l1.96-7.08c.05-.18.09-.32.11-.41.05-.24.08-.42.08-.53,0-.27-.09-.46-.26-.55-.17-.1-.5-.15-.98-.16v-.26h4.13c.7,0,1.32.09,1.86.27.9.38,1.35,1.06,1.35,2.05,0,.82-.37,1.45-1.1,1.91-.4.25-.96.45-1.67.6.55.21.97.44,1.24.69.5.45.74,1.07.74,1.84,0,.88-.39,1.61-1.16,2.2s-1.84.88-3.19.88h-4.42v-.26ZM300.02,270.61c.49-.55.73-1.22.73-1.99,0-.86-.29-1.43-.86-1.7-.36-.16-1.1-.25-2.2-.27l-1.01,3.62c-.03.09-.05.18-.06.26s-.02.17-.02.24c0,.29.13.48.4.57.15.06.39.09.71.09,1.05,0,1.82-.28,2.31-.83ZM298.54,266.14c.83,0,1.47-.11,1.93-.34.79-.4,1.19-1.12,1.19-2.17,0-.6-.17-1.02-.5-1.27-.33-.25-.78-.37-1.32-.37-.35,0-.58.03-.71.1-.12.07-.21.18-.25.35l-1.03,3.7h.7Z"/>
    <path class="uuid-b4dbae96-7db5-4387-9fd1-a0548937208b" d="M229.84,282.41c.54.12.87.19.98.19.19,0,.33-.03.41-.09s.14-.15.2-.27h.33l-.59,3.19-.28-.04c-.06-.63-.2-1.14-.42-1.52-.41-.71-1.09-1.07-2.04-1.07-1.46,0-2.66.73-3.6,2.19-.82,1.27-1.23,2.64-1.23,4.12,0,1.1.25,1.93.75,2.49s1.14.84,1.93.84,1.56-.2,2.23-.59c.4-.24.92-.67,1.57-1.29l.26.23c-.58.74-1.24,1.32-1.98,1.75s-1.55.64-2.43.64c-1.33,0-2.36-.42-3.07-1.27s-1.07-1.83-1.07-2.95c0-1.61.6-3.1,1.79-4.47,1.31-1.5,2.9-2.25,4.77-2.25.46,0,.97.06,1.51.19Z"/>
    <path class="uuid-41b20e8e-c0d5-4c02-9033-669d56f1be00" d="M31.23,131.76c.38-.03.63-.1.77-.2.22-.16.4-.48.54-.98l1.96-7.08c.06-.21.1-.4.14-.55s.05-.29.05-.4c0-.26-.09-.44-.27-.54s-.5-.16-.98-.17v-.26h4.13c.77,0,1.44.07,2.02.2s1.11.41,1.61.84c.35.31.64.68.88,1.11.34.65.52,1.37.52,2.18,0,1.6-.62,3-1.85,4.17-1.35,1.29-3.11,1.94-5.28,1.94h-4.23v-.26ZM40.07,128.63c.48-1,.73-2.01.73-3.04s-.25-1.83-.73-2.52c-.49-.68-1.37-1.02-2.65-1.02-.35,0-.6.03-.75.1s-.25.19-.29.36l-2.19,7.84c-.04.16-.07.27-.08.34-.01.07-.02.15-.02.22,0,.23.07.39.21.47s.43.12.87.12c2.32,0,3.96-.96,4.9-2.88Z"/>
    <path class="uuid-41b20e8e-c0d5-4c02-9033-669d56f1be00" d="M236,17.07c.38-.03.63-.1.77-.2.22-.16.4-.48.54-.98l1.96-7.08c.06-.23.11-.43.14-.58s.05-.29.05-.39c0-.25-.09-.42-.29-.52s-.51-.15-.96-.16v-.26h7.96l-.5,2.44-.33-.02c.02-.16.03-.31.03-.45s0-.2,0-.16c.01-.53-.18-.87-.56-1.04s-1.17-.25-2.36-.25c-.55,0-.89.03-1.03.08-.14.05-.24.16-.29.34l-1.04,3.73c1.41-.05,2.25-.14,2.54-.27.29-.13.59-.56.91-1.29l.3.07-1.09,3.7-.31-.07c.05-.31.08-.5.09-.57s.02-.14.02-.23c0-.34-.12-.56-.36-.66s-.68-.15-1.33-.15h-.91l-1,3.57c-.03.11-.06.21-.07.3-.02.09-.03.19-.03.29,0,.17.04.29.13.38.16.15.48.22.95.22,1.43,0,2.46-.15,3.07-.46s1.23-.9,1.85-1.78l.26.13-1,2.59h-8.12v-.26Z"/>
    <g>
      <path class="uuid-41b20e8e-c0d5-4c02-9033-669d56f1be00" d="M425.3,163.23c.47-.04.81-.1,1-.2.32-.17.55-.5.68-.98l2.34-8.45c-1.23,0-2.04.09-2.43.28s-.86.75-1.38,1.68l-.28-.05.66-2.46h8.53l-.7,2.61-.28-.04.04-.55c0-.49-.11-.86-.33-1.1s-.66-.36-1.32-.36h-.89l-2.24,7.96c-.05.17-.09.33-.12.46-.05.2-.07.36-.07.48,0,.31.1.51.29.58s.57.12,1.13.14v.26h-4.62v-.26Z"/>
      <path class="uuid-41b20e8e-c0d5-4c02-9033-669d56f1be00" d="M433.15,168.66c.22-.02.37-.06.45-.12.13-.09.23-.28.31-.57l1.14-4.13c.03-.1.05-.18.07-.24.03-.14.05-.24.05-.31,0-.16-.05-.27-.15-.32-.1-.06-.29-.09-.57-.1v-.15h2.41c.41,0,.77.05,1.08.16.53.22.79.62.79,1.19,0,.48-.21.85-.64,1.11-.23.14-.56.26-.97.35.32.12.56.25.72.4.29.26.43.62.43,1.07,0,.51-.23.94-.68,1.28s-1.07.51-1.86.51h-2.58v-.15ZM436.82,168.03c.29-.32.43-.71.43-1.16,0-.5-.17-.83-.5-.99-.21-.09-.64-.15-1.28-.16l-.59,2.11c-.02.05-.03.1-.04.15,0,.05-.01.1-.01.14,0,.17.08.28.23.33.09.03.23.05.42.05.61,0,1.06-.16,1.35-.48ZM435.96,165.43c.48,0,.86-.07,1.13-.2.46-.23.69-.65.69-1.27,0-.35-.1-.6-.29-.74-.2-.14-.45-.22-.77-.22-.2,0-.34.02-.41.06s-.12.11-.15.2l-.6,2.16h.41Z"/>
    </g>
    <path class="uuid-dcd6702d-0d3b-4b90-a59d-1388a6afbc5b" d="M133.9,43.2c.11.11.2.25.27.43l.04.1.16-.55c.02-.06.04-.11.05-.13.02-.02.05-.04.1-.04l.84-.09s.07,0,.08.03c0,.02,0,.05,0,.09-.02.06-.04.11-.05.15s-.03.09-.05.16l-.72,2.62c-.16.57-.29,1.06-.4,1.48-.18.75-.27,1.18-.27,1.28,0,.07.02.12.05.15.04.03.08.05.14.05.04,0,.09-.01.15-.04s.12-.07.2-.13l.13-.1s.09-.08.14-.12c.05-.05.11-.1.18-.17l.48-.47.18.15c-.52.65-.94,1.09-1.26,1.32s-.62.35-.9.35c-.19,0-.33-.06-.43-.19-.1-.13-.15-.29-.15-.47,0-.18.03-.43.1-.76.07-.33.13-.61.19-.83-.09.15-.24.36-.44.64-.21.28-.46.55-.76.82-.36.32-.7.54-1.02.67-.25.09-.5.13-.73.13-.4,0-.75-.16-1.08-.49-.32-.32-.48-.79-.48-1.38,0-1.03.46-2.1,1.39-3.21.96-1.16,1.95-1.74,2.98-1.74.39,0,.69.1.9.3ZM133.66,43.48c-.16-.17-.36-.25-.59-.25-.8,0-1.55.61-2.24,1.83-.61,1.08-.91,2-.91,2.78,0,.39.08.68.25.85.17.18.38.27.62.27.74,0,1.44-.6,2.13-1.78.66-1.08.99-2.05.99-2.93,0-.35-.08-.61-.24-.78Z"/>
    <path class="uuid-90757d85-2121-402b-945d-12d8eef407f1" d="M158.26,96.83c.26.27.4.53.4.78,0,.23-.07.41-.21.53-.14.13-.3.19-.48.19s-.33-.06-.45-.17-.18-.25-.18-.42c0-.13.04-.26.12-.41.08-.15.12-.24.12-.29,0-.09-.05-.16-.15-.22-.1-.06-.26-.09-.48-.09-.79,0-1.47.45-2.05,1.34-.58.89-.87,1.83-.87,2.82,0,.55.12.99.35,1.3.23.31.59.47,1.05.47.38,0,.74-.11,1.09-.33.35-.22.68-.49.98-.83l.05-.06.21.16c-.34.43-.67.77-.99,1-.56.41-1.18.61-1.87.61s-1.18-.21-1.59-.63c-.41-.42-.61-.99-.61-1.71,0-1.11.45-2.13,1.36-3.06.89-.93,1.86-1.39,2.9-1.39.6,0,1.03.13,1.29.4Z"/>
    <path class="uuid-470e696c-24c4-4edb-a62f-6198927f7d52" d="M181.15,122.53c.03-.11.05-.2.06-.29.01-.08.02-.16.02-.22,0-.06-.02-.13-.05-.19-.03-.06-.11-.11-.22-.14-.03,0-.09-.02-.17-.02-.08,0-.26-.01-.52-.03v-.26c.16-.02.33-.05.51-.07.18-.02.43-.05.75-.1.03,0,.18-.04.45-.09s.45-.09.56-.09c.02,0,.05,0,.07.03.02.02.03.05.03.09v.09s-1.51,5.54-1.51,5.54c.44-.62.81-1.08,1.11-1.36.53-.49,1.08-.74,1.65-.74.53,0,.96.18,1.29.53.32.35.48.79.48,1.31,0,1.22-.53,2.35-1.59,3.41s-2.1,1.54-3.2,1.54c-.5,0-.96-.11-1.38-.34-.42-.22-.61-.4-.58-.53l2.24-8.09ZM183.38,129.46c.68-1.01,1.01-1.94,1.01-2.78,0-.38-.1-.68-.3-.91-.2-.23-.45-.34-.75-.34-.77,0-1.51.69-2.22,2.08-.61,1.21-.92,2.21-.92,3,0,.19.06.34.18.46.12.12.31.17.58.17.86,0,1.67-.56,2.42-1.69Z"/>
    <path class="uuid-41b20e8e-c0d5-4c02-9033-669d56f1be00" d="M154.52,203.51l-3.74,5.16c.27.06.48.14.64.23.27.15.51.38.71.69l.38.58c.09.14.2.26.32.36.12.1.25.15.4.15.11,0,.19-.02.26-.07.07-.05.1-.11.1-.17,0-.03-.03-.12-.09-.27s-.09-.28-.09-.41c0-.15.04-.27.13-.35.09-.08.19-.12.3-.12.16,0,.27.06.35.17.08.11.11.25.11.43,0,.26-.12.51-.36.75-.24.23-.53.35-.87.35-.19,0-.38-.04-.57-.12-.11-.05-.24-.12-.39-.22l-.76-.5c-.25-.16-.45-.28-.61-.35-.16-.07-.32-.11-.48-.11-.11,0-.21.02-.28.06-.07.04-.17.11-.29.22l-.14-.14,4.02-5.59h-1.88c-.29,0-.5.06-.65.18-.15.12-.28.35-.4.71l-.21-.06.4-1.74h3.66v.18Z"/>
    <path class="uuid-41b20e8e-c0d5-4c02-9033-669d56f1be00" d="M263.43,141.55l-3.74,5.16c.27.06.48.14.64.23.27.15.51.38.71.69l.38.58c.09.14.2.26.32.36.12.1.25.15.4.15.11,0,.19-.02.26-.07.07-.05.1-.11.1-.17,0-.03-.03-.12-.09-.27s-.09-.28-.09-.41c0-.15.04-.27.13-.35.09-.08.19-.12.3-.12.16,0,.27.06.35.17.08.11.11.25.11.43,0,.26-.12.51-.36.75-.24.23-.53.35-.87.35-.19,0-.38-.04-.57-.12-.11-.05-.24-.12-.39-.22l-.76-.5c-.25-.16-.45-.28-.61-.35-.16-.07-.32-.11-.48-.11-.11,0-.21.02-.28.06-.07.04-.17.11-.29.22l-.14-.14,4.02-5.59h-1.88c-.29,0-.5.06-.65.18-.15.12-.28.35-.4.71l-.21-.06.4-1.74h3.66v.18Z"/>
    <path id="uuid-3f0cbe7b-ed87-4d45-bfdd-7891f8588f2f" data-name="cerchio interno 1 corretto" class="uuid-852ed66b-0c8e-43f2-9d46-712899d637d1" d="M428.45,181.73c61.51,104.64,25.01,238.45-81.54,298.87-106.54,60.42-263.48,38.29-310.49-73.62C-12.25,291.11,17.61,162.07,124.16,101.65c106.54-60.42,242.78-24.56,304.3,80.08Z"/>
    <path id="uuid-f60da1b2-1dda-4a83-9235-c7414a5d16fc" data-name="cerchio interno 2" class="uuid-39a289fc-237b-4d0c-a32f-c4236e73a56e" d="M369.02,121.83c77.66,45.14,104.49,144.7,59.63,222.55-44.92,77.96-144.62,104.62-222.55,59.63-77.92-44.99-104.62-144.62-59.63-222.55,44.99-77.92,144.75-104.84,222.55-59.63Z"/>
    <circle id="uuid-02cccddf-0222-4337-9d51-df6f63920962" data-name="cerchio esterno" class="uuid-088b0a03-67d6-46a5-8863-d2c648788ddc" cx="259.93" cy="278.76" r="257.97"/>
    <line class="uuid-d029bcfa-693b-4939-a5a6-bcb3b4400c28" x1="260.22" y1="287.45" x2="250.49" y2="8.8"/>
    <g>
      <path class="uuid-a5d1f7f0-084e-43bd-88c0-b97fd58acd6b" d="M363.7,277.94c0-.33,0-.67-.01-1"/>
      <path class="uuid-7891c57c-708f-4fe6-a888-a25ebda36ca9" d="M363.63,274.95c-2-55.53-47.65-99.93-103.67-99.93s-103.74,46.45-103.74,103.74c0,17.27,4.31,34.25,12.52,49.41"/>
      <path class="uuid-a5d1f7f0-084e-43bd-88c0-b97fd58acd6b" d="M169.23,329.04c.16.29.32.58.49.87"/>
      <polygon class="uuid-a67b86b1-29f4-49b5-a879-4bcc47722f10" points="366.68 275.38 366.12 274.88 363.67 277.66 361.09 275.01 360.55 275.54 363.7 278.76 366.68 275.38"/>
      <polygon class="uuid-a67b86b1-29f4-49b5-a879-4bcc47722f10" points="165.86 329.16 166.11 328.45 169.6 329.65 170.55 326.08 171.27 326.27 170.12 330.63 165.86 329.16"/>
    </g>
    <g>
      <path class="uuid-a5d1f7f0-084e-43bd-88c0-b97fd58acd6b" d="M397.95,277.94c0-.33,0-.67,0-1"/>
      <path class="uuid-3c1d7637-2e1b-46c7-ae26-4200f3b2a83c" d="M397.9,274.98c-.6-21.98-6.45-43.51-17.06-62.78"/>
      <path class="uuid-a5d1f7f0-084e-43bd-88c0-b97fd58acd6b" d="M380.36,211.34c-.16-.29-.33-.58-.49-.87"/>
      <polygon class="uuid-a67b86b1-29f4-49b5-a879-4bcc47722f10" points="400.91 275.36 400.34 274.87 397.92 277.66 395.31 275.03 394.78 275.56 397.95 278.76 400.91 275.36"/>
      <polygon class="uuid-a67b86b1-29f4-49b5-a879-4bcc47722f10" points="383.72 211.23 383.48 211.94 379.98 210.73 379.04 214.31 378.31 214.12 379.47 209.76 383.72 211.23"/>
    </g>
    <g>
      <path class="uuid-4d9b6ff1-4e8c-4602-b82b-65cba64e53a5" d="M399.84,231.31c.94.03,1.7.37,2.28,1.01.58.65.87,1.49.87,2.52s-.27,1.82-.81,2.46c-.54.64-1.26,1-2.16,1.07v3.03h-1.08v-3.03c-.9-.06-1.63-.42-2.18-1.07-.55-.65-.82-1.47-.82-2.47s.29-1.87.87-2.52,1.34-.99,2.29-1.02l.08-2.91h.59l.07,2.91ZM399.08,231.74c-.56.05-1.01.36-1.36.93-.35.57-.52,1.29-.52,2.17s.16,1.53.48,2.09c.32.56.73.89,1.25.98l.15-6.18ZM399.85,231.74l.16,6.18c.52-.1.94-.43,1.25-.99.31-.55.46-1.25.46-2.09s-.17-1.6-.52-2.17c-.35-.57-.8-.88-1.35-.94Z"/>
      <path class="uuid-4d9b6ff1-4e8c-4602-b82b-65cba64e53a5" d="M405.27,238.67v-.25c0-.09-.01-.16-.04-.2-.03-.04-.08-.06-.14-.06-.04,0-.09.01-.15.03-.06.02-.14.05-.22.09l-.56.27-.09-.17c.26-.13.55-.28.86-.45s.68-.38,1.11-.63v4.86c0,.42.05.67.15.76.1.09.36.13.77.13h.14v.17h-2.93v-.17c.51,0,.83-.05.94-.15.11-.1.17-.35.17-.74v-3.5Z"/>
      <path class="uuid-4d9b6ff1-4e8c-4602-b82b-65cba64e53a5" d="M414.22,227.69c-.83.75-1.42,1.62-1.77,2.62-.35.99-.53,2.32-.53,3.98s.18,3,.53,3.98c.35.99.94,1.85,1.77,2.6l-.3.31c-1.04-.76-1.84-1.74-2.43-2.96-.58-1.22-.88-2.53-.88-3.94s.29-2.72.88-3.94c.59-1.22,1.39-2.21,2.42-2.97l.3.31Z"/>
      <path class="uuid-4d9b6ff1-4e8c-4602-b82b-65cba64e53a5" d="M415.53,230.47c.34-.76.78-1.34,1.31-1.73.54-.39,1.17-.59,1.88-.59.64,0,1.19.18,1.62.54.44.36.66.8.66,1.32,0,.39-.11.76-.32,1.1-.21.34-.58.74-1.12,1.17.66.2,1.16.51,1.5.95s.5.98.5,1.63c0,1.01-.4,1.86-1.2,2.54-.8.68-1.81,1.02-3.02,1.02-.59,0-1.07-.09-1.44-.28-.37-.18-.55-.42-.55-.71,0-.16.06-.29.18-.4s.26-.16.44-.16c.31,0,.71.17,1.19.51.48.34.87.51,1.17.51.55,0,1.03-.23,1.45-.68.42-.45.63-.99.63-1.6,0-.76-.26-1.33-.77-1.73-.52-.4-1.26-.6-2.25-.6h-.17v-.3c.75-.06,1.36-.31,1.83-.75.47-.43.71-.96.71-1.56,0-.45-.16-.81-.47-1.09-.31-.28-.72-.41-1.22-.41-.47,0-.9.12-1.29.37s-.73.62-1.02,1.1l-.26-.18Z"/>
      <path class="uuid-4d9b6ff1-4e8c-4602-b82b-65cba64e53a5" d="M422.86,233.26c0-1.62.3-2.87.89-3.77.59-.9,1.41-1.34,2.46-1.34s1.87.43,2.44,1.28c.57.85.85,2.08.85,3.67,0,1.71-.28,3.02-.85,3.94-.57.92-1.38,1.38-2.42,1.38-1.11,0-1.95-.43-2.51-1.3-.57-.87-.85-2.15-.85-3.86ZM426.19,228.5c-.68,0-1.16.35-1.45,1.04-.29.7-.43,1.92-.43,3.68s.14,3.09.42,3.79c.28.69.76,1.04,1.44,1.04s1.16-.33,1.42-.99c.26-.66.39-2.16.39-4.5,0-1.52-.14-2.58-.41-3.17s-.74-.89-1.39-.89Z"/>
      <path class="uuid-4d9b6ff1-4e8c-4602-b82b-65cba64e53a5" d="M432.93,227.57c.58,0,1.08.21,1.49.62.41.41.62.91.62,1.5s-.21,1.06-.62,1.48c-.41.41-.91.62-1.49.62s-1.09-.2-1.5-.61c-.41-.41-.62-.9-.62-1.48s.21-1.09.62-1.5c.42-.41.91-.62,1.49-.62ZM434.35,229.68c0-.39-.14-.73-.41-1-.28-.27-.61-.41-1.01-.41s-.73.14-1,.41c-.27.27-.41.61-.41,1s.14.74.41,1.02c.27.28.61.42,1,.42s.73-.14,1-.42c.28-.28.42-.62.42-1.01Z"/>
      <path class="uuid-4d9b6ff1-4e8c-4602-b82b-65cba64e53a5" d="M436.63,227.69l.29-.31c1.04.76,1.85,1.75,2.44,2.97.59,1.23.88,2.54.88,3.94s-.29,2.71-.88,3.93c-.59,1.22-1.4,2.21-2.44,2.97l-.29-.31c.83-.74,1.42-1.61,1.77-2.59.35-.98.53-2.32.53-4s-.18-3.01-.53-4c-.35-.99-.94-1.85-1.77-2.6Z"/>
    </g>
    <g>
      <path class="uuid-4d9b6ff1-4e8c-4602-b82b-65cba64e53a5" d="M340.61,195.28c.94.03,1.7.37,2.28,1.01.58.65.87,1.49.87,2.52s-.27,1.82-.81,2.46c-.54.64-1.26,1-2.16,1.07v3.03h-1.08v-3.03c-.9-.06-1.63-.42-2.18-1.07-.55-.65-.82-1.47-.82-2.47s.29-1.87.87-2.52,1.34-.99,2.29-1.02l.08-2.91h.59l.07,2.91ZM339.86,195.71c-.56.05-1.01.36-1.36.93-.35.57-.52,1.29-.52,2.17s.16,1.53.48,2.09c.32.56.73.89,1.25.98l.15-6.18ZM340.63,195.71l.16,6.18c.52-.1.94-.43,1.25-.99.31-.55.46-1.25.46-2.09s-.17-1.6-.52-2.17c-.35-.57-.8-.88-1.35-.94Z"/>
      <path class="uuid-4d9b6ff1-4e8c-4602-b82b-65cba64e53a5" d="M344.6,203.02l-.18-.03c.12-.54.35-.96.68-1.25.33-.29.76-.43,1.27-.43.48,0,.87.13,1.15.4.29.27.43.63.43,1.08,0,.35-.1.69-.29,1.04s-.57.8-1.11,1.36l-1.31,1.35h1.69c.44,0,.74-.05.9-.14.16-.09.29-.26.4-.5l.17.05-.5,1.24h-3.49v-.16l.94-.98.08-.09c1.18-1.24,1.78-2.16,1.78-2.76,0-.39-.11-.7-.33-.93-.22-.23-.52-.34-.9-.34-.32,0-.6.09-.83.28-.24.19-.42.46-.54.8Z"/>
      <path class="uuid-4d9b6ff1-4e8c-4602-b82b-65cba64e53a5" d="M355,191.66c-.83.75-1.42,1.62-1.77,2.62-.35.99-.53,2.32-.53,3.98s.18,3,.53,3.98c.35.99.94,1.85,1.77,2.6l-.3.31c-1.04-.76-1.84-1.74-2.43-2.96-.58-1.22-.88-2.53-.88-3.94s.29-2.72.88-3.94c.59-1.22,1.39-2.21,2.42-2.97l.3.31Z"/>
      <path class="uuid-4d9b6ff1-4e8c-4602-b82b-65cba64e53a5" d="M356.48,195.04l-.32-.04c.21-.93.59-1.64,1.17-2.14.57-.49,1.3-.74,2.18-.74.83,0,1.48.23,1.98.69s.74,1.08.74,1.86c0,.6-.17,1.19-.5,1.78-.34.59-.97,1.37-1.91,2.33l-2.25,2.31h2.91c.76,0,1.28-.08,1.54-.23.27-.16.5-.44.69-.86l.29.09-.85,2.13h-5.99v-.27l1.61-1.68.15-.15c2.03-2.12,3.05-3.7,3.05-4.74,0-.67-.19-1.21-.58-1.6-.38-.39-.9-.59-1.54-.59-.55,0-1.02.16-1.43.48-.41.32-.72.78-.93,1.38Z"/>
      <path class="uuid-4d9b6ff1-4e8c-4602-b82b-65cba64e53a5" d="M366.46,194.38v-.43c0-.16-.02-.27-.07-.34-.05-.07-.13-.11-.24-.11-.06,0-.15.02-.26.05-.11.04-.24.09-.38.16l-.96.46-.16-.29c.45-.22.95-.48,1.48-.77s1.17-.65,1.91-1.08v8.34c0,.72.09,1.15.26,1.3s.61.23,1.32.23h.23v.3h-5.02v-.3c.88,0,1.42-.08,1.62-.26.19-.17.29-.6.29-1.27v-6Z"/>
      <path class="uuid-4d9b6ff1-4e8c-4602-b82b-65cba64e53a5" d="M371.14,197.23c0-1.62.3-2.87.89-3.77.59-.9,1.41-1.34,2.46-1.34s1.87.43,2.44,1.28c.57.85.85,2.08.85,3.67,0,1.71-.28,3.02-.85,3.94-.57.92-1.38,1.38-2.42,1.38-1.11,0-1.95-.43-2.51-1.3-.57-.87-.85-2.15-.85-3.86ZM374.47,192.47c-.68,0-1.16.35-1.45,1.04-.29.7-.43,1.92-.43,3.68s.14,3.09.42,3.79c.28.69.76,1.04,1.44,1.04s1.16-.33,1.42-.99c.26-.66.39-2.16.39-4.5,0-1.52-.14-2.58-.41-3.17s-.74-.89-1.39-.89Z"/>
      <path class="uuid-4d9b6ff1-4e8c-4602-b82b-65cba64e53a5" d="M381.21,191.54c.58,0,1.08.21,1.49.62.41.41.62.91.62,1.5s-.21,1.06-.62,1.48c-.41.41-.91.62-1.49.62s-1.09-.2-1.5-.61c-.41-.41-.62-.9-.62-1.48s.21-1.09.62-1.5c.42-.41.91-.62,1.49-.62ZM382.63,193.65c0-.39-.14-.73-.41-1-.28-.27-.61-.41-1.01-.41s-.73.14-1,.41c-.27.27-.41.61-.41,1s.14.74.41,1.02c.27.28.61.42,1,.42s.73-.14,1-.42c.28-.28.42-.62.42-1.01Z"/>
      <path class="uuid-4d9b6ff1-4e8c-4602-b82b-65cba64e53a5" d="M384.91,191.66l.29-.31c1.04.76,1.85,1.75,2.44,2.97.59,1.23.88,2.54.88,3.94s-.29,2.71-.88,3.93c-.59,1.22-1.4,2.21-2.44,2.97l-.29-.31c.83-.74,1.42-1.61,1.77-2.59.35-.98.53-2.32.53-4s-.18-3.01-.53-4c-.35-.99-.94-1.85-1.77-2.6Z"/>
    </g>
    <path class="uuid-4d9b6ff1-4e8c-4602-b82b-65cba64e53a5" d="M284.12,204.68c1.03,0,1.81.43,2.37,1.28.55.85.83,2.08.83,3.67,0,1.72-.27,3.04-.82,3.95-.55.92-1.33,1.37-2.36,1.37-1.08,0-1.9-.44-2.44-1.31-.54-.87-.82-2.17-.82-3.9,0-1.6.29-2.84.86-3.73.57-.89,1.37-1.34,2.39-1.34ZM285.84,209.2c0-.07,0-.16,0-.28,0-.12,0-.21,0-.26,0-1.25-.14-2.17-.42-2.75-.28-.58-.72-.87-1.32-.87s-1.08.33-1.37.98c-.29.65-.44,1.72-.45,3.19h3.54ZM282.31,209.73v.34c0,1.67.13,2.83.41,3.5.27.67.73,1,1.37,1s1.12-.33,1.37-.98c.26-.65.38-1.94.38-3.86h-3.54Z"/>
    <path class="uuid-4d9b6ff1-4e8c-4602-b82b-65cba64e53a5" d="M61.02,215.25c0-1.17.3-2.08.9-2.75.6-.67,1.43-1,2.47-1,.96,0,1.73.33,2.32.99.58.66.88,1.54.88,2.65s-.3,2.03-.9,2.75c-.6.71-1.35,1.07-2.25,1.07-.41,0-.8-.09-1.18-.26s-.7-.42-.97-.73v4.14h-1.27v-6.86ZM64.13,211.91c-.56,0-1,.25-1.31.74-.31.49-.47,1.19-.47,2.08,0,1.11.2,2.02.59,2.72.39.7.9,1.05,1.51,1.05s1.05-.23,1.34-.68c.3-.45.44-1.14.44-2.05,0-1.16-.2-2.09-.59-2.8s-.9-1.05-1.53-1.05Z"/>
    <path class="uuid-4d9b6ff1-4e8c-4602-b82b-65cba64e53a5" d="M102.47,213.1c0-1.17.3-2.08.9-2.75.6-.67,1.43-1,2.47-1,.96,0,1.73.33,2.32.99.58.66.88,1.54.88,2.65s-.3,2.03-.9,2.75c-.6.71-1.35,1.07-2.25,1.07-.41,0-.8-.09-1.18-.26s-.7-.42-.97-.73v4.14h-1.27v-6.86ZM105.57,209.77c-.56,0-1,.25-1.31.74-.31.49-.47,1.19-.47,2.08,0,1.11.2,2.02.59,2.72.39.7.9,1.05,1.51,1.05s1.05-.23,1.34-.68c.3-.45.44-1.14.44-2.05,0-1.16-.2-2.09-.59-2.8s-.9-1.05-1.53-1.05Z"/>
    <g>
      <path class="uuid-a5d1f7f0-084e-43bd-88c0-b97fd58acd6b" d="M323.88,277.94c0-.33-.01-.67-.02-1"/>
      <path class="uuid-bd4cc5c2-67b5-4c63-af74-5eac92733183" d="M323.78,274.94c-1.98-33.56-29.82-60.17-63.88-60.17-21.52,0-41.54,10.81-53.35,28.66"/>
      <path class="uuid-a5d1f7f0-084e-43bd-88c0-b97fd58acd6b" d="M206.01,244.26c-.18.28-.36.56-.53.85"/>
      <polygon class="uuid-a67b86b1-29f4-49b5-a879-4bcc47722f10" points="326.87 275.38 326.31 274.88 323.86 277.66 321.28 275.01 320.74 275.54 323.89 278.76 326.87 275.38"/>
      <polygon class="uuid-a67b86b1-29f4-49b5-a879-4bcc47722f10" points="204.27 241.37 205.01 241.23 205.65 244.87 209.24 243.97 209.42 244.69 205.05 245.8 204.27 241.37"/>
    </g>
    <line class="uuid-d515c07b-b9bf-424a-8963-3d54536817ff" x1="237.68" y1="317.13" x2="271.94" y2="257.79"/>
    <line class="uuid-d515c07b-b9bf-424a-8963-3d54536817ff" x1="34.68" y1="199.93" x2="68.94" y2="140.59"/>
    <g>
      <line class="uuid-da2137c7-140a-4fc2-b560-ab6195b3e691" x1="254.81" y1="278.76" x2="265.07" y2="278.76"/>
      <line class="uuid-da2137c7-140a-4fc2-b560-ab6195b3e691" x1="259.94" y1="273.63" x2="259.94" y2="283.88"/>
    </g>
    <g>
      <line class="uuid-a5d1f7f0-084e-43bd-88c0-b97fd58acd6b" x1="241.01" y1="309.45" x2="21.8" y2="177.74"/>
      <polygon class="uuid-a67b86b1-29f4-49b5-a879-4bcc47722f10" points="240.71 307.37 240.33 307.48 240.87 309.37 238.94 309.78 239.03 310.17 241.38 309.68 240.71 307.37"/>
      <polygon class="uuid-a67b86b1-29f4-49b5-a879-4bcc47722f10" points="23.78 177.02 23.86 177.41 21.93 177.82 22.48 179.71 22.09 179.82 21.43 177.52 23.78 177.02"/>
    </g>
    <g>
      <line class="uuid-a5d1f7f0-084e-43bd-88c0-b97fd58acd6b" x1="252.27" y1="289.95" x2="52.31" y2="169.8"/>
      <polygon class="uuid-a67b86b1-29f4-49b5-a879-4bcc47722f10" points="251.97 287.86 251.59 287.97 252.13 289.87 250.2 290.28 250.29 290.67 252.64 290.17 251.97 287.86"/>
      <polygon class="uuid-a67b86b1-29f4-49b5-a879-4bcc47722f10" points="54.28 169.08 54.37 169.47 52.44 169.88 52.98 171.77 52.6 171.89 51.93 169.58 54.28 169.08"/>
    </g>
    <path id="uuid-12ba9d9c-c52f-4633-a199-83e15616d57d" data-name="cerchio interno 1 corretto" class="uuid-4e54f3fa-7993-4342-afbc-1714add6a264" d="M36.43,406.98C-12.25,291.11,17.61,162.07,124.16,101.65c106.54-60.42,242.78-24.56,304.3,80.08"/>
    <path id="uuid-ebfe5b62-2660-45b4-8447-5b80ab104b6e" data-name="cerchio interno 2" class="uuid-eba501af-03e9-475b-bf3b-de4cc186a986" d="M428.74,181.57c28.01,48.72,30.03,110.63-.09,162.81-4.79,8.3-10.21,16.02-16.15,23.13"/>
    <line class="uuid-52471d8b-f095-4f59-8822-98aacafe992b" x1="496.69" y1="142.08" x2="26.01" y2="413.83"/>
    <path class="uuid-41b20e8e-c0d5-4c02-9033-669d56f1be00" d="M237.68,89.23c.38-.03.63-.1.77-.2.22-.16.4-.48.54-.98l1.96-7.07c.05-.17.08-.32.11-.45.05-.22.08-.4.08-.51,0-.28-.09-.46-.28-.56-.19-.09-.51-.15-.96-.16v-.26h7.96l-.5,2.44-.33-.02c.02-.17.02-.3.02-.39,0-.12,0-.22,0-.29,0-.48-.19-.81-.56-.97s-1.16-.24-2.35-.24c-.51,0-.84.02-1.01.07s-.28.16-.33.35l-1.05,3.72c1.37-.04,2.2-.12,2.49-.25s.62-.54.98-1.23l.28.08-1.2,3.74-.28-.08c.06-.31.09-.51.11-.62.02-.1.02-.2.02-.3,0-.37-.15-.6-.46-.7-.19-.07-.58-.1-1.17-.1h-.91l-.98,3.56c-.08.28-.12.44-.14.5-.01.06-.02.13-.02.21,0,.28.12.47.35.57.15.06.44.11.88.13v.26h-4.02v-.26Z"/>
    <circle class="uuid-721fcd08-ca25-413a-8a02-48c36c821bd4" cx="428.6" cy="181.65" r="9.87"/>
    <circle class="uuid-41b20e8e-c0d5-4c02-9033-669d56f1be00" cx="250.49" cy="20.93" r="1.67"/>
    <circle class="uuid-41b20e8e-c0d5-4c02-9033-669d56f1be00" cx="252.73" cy="72.3" r="1.67"/>
    <circle class="uuid-41b20e8e-c0d5-4c02-9033-669d56f1be00" cx="59.58" cy="158.07" r="1.67"/>
    <path class="uuid-41b20e8e-c0d5-4c02-9033-669d56f1be00" d="M77.17,151.06c.31.05.64.14,1.01.28.28.1.46.16.57.19s.2.04.31.04c.26,0,.46-.05.59-.15.14-.1.26-.24.38-.41l.24.05-.8,3.15-.27-.04c-.08-.64-.25-1.16-.52-1.55-.49-.73-1.28-1.09-2.38-1.09-1.5,0-2.72.8-3.65,2.4-.75,1.31-1.13,2.67-1.13,4.1,0,1,.27,1.8.81,2.41.54.61,1.31.92,2.31.92.35,0,.73-.06,1.14-.18s.69-.31.84-.55c.09-.16.21-.47.34-.94.08-.3.19-.71.31-1.25l.17-.72s.02-.08.02-.13,0-.09,0-.14c0-.23-.07-.38-.21-.45s-.49-.13-1.03-.2v-.26h4.27v.26c-.54.05-.91.15-1.1.28s-.34.42-.46.87l-.78,3c-.41.27-.94.5-1.59.7s-1.36.3-2.12.3c-1.53,0-2.72-.46-3.57-1.38-.75-.81-1.12-1.8-1.12-2.99,0-1.56.59-3.02,1.77-4.36,1.32-1.49,2.92-2.23,4.82-2.23.24,0,.51.02.82.07Z"/>
    <line class="uuid-d029bcfa-693b-4939-a5a6-bcb3b4400c28" x1="265.07" y1="281.86" x2="28.38" y2="139.65"/>
    <line class="uuid-d515c07b-b9bf-424a-8963-3d54536817ff" x1="14.32" y1="188.17" x2="48.57" y2="128.83"/>
    <circle class="uuid-41b20e8e-c0d5-4c02-9033-669d56f1be00" cx="38.78" cy="146.15" r="1.67"/>
    <circle class="uuid-721fcd08-ca25-413a-8a02-48c36c821bd4" cx="35.39" cy="407.74" r="9.87"/>
    <g>
      <path class="uuid-4d9b6ff1-4e8c-4602-b82b-65cba64e53a5" d="M266.92,313.56c.09.11.17.29.22.55l.86-3c.02-.08.04-.16.05-.22,0-.07.01-.12.01-.17,0-.19-.04-.31-.11-.36-.07-.05-.17-.07-.3-.07-.08,0-.16,0-.23,0-.07,0-.17.01-.28.02v-.24c.55-.07,1.32-.2,2.3-.38l.07.07-.02.08-1.45,5.26-.98,3.48c-.02.08-.04.15-.05.22-.01.07-.02.13-.02.18,0,.13.03.22.1.26s.12.06.17.06c.14,0,.35-.12.61-.38.15-.15.36-.39.63-.71l.17.16-.1.15c-.18.27-.42.54-.7.82-.51.5-.96.74-1.36.74-.13,0-.25-.03-.36-.09-.2-.12-.3-.33-.3-.63,0-.1.01-.27.04-.49s.07-.47.13-.74c-.37.57-.78,1.03-1.22,1.39-.44.36-.92.54-1.45.54-.43,0-.8-.15-1.11-.45-.32-.3-.48-.77-.48-1.4,0-1.06.49-2.16,1.47-3.28.98-1.12,1.93-1.67,2.86-1.67.39,0,.66.09.83.28ZM263.27,319c.14.22.37.33.7.33.7,0,1.37-.56,2.02-1.68.62-1.05.93-2.05.93-2.99,0-.3-.05-.54-.15-.74-.1-.2-.3-.29-.6-.29-.75,0-1.47.6-2.17,1.8-.62,1.07-.94,2-.94,2.79,0,.3.07.56.21.78Z"/>
      <path class="uuid-4d9b6ff1-4e8c-4602-b82b-65cba64e53a5" d="M273.89,319.21c.3.07.48.1.54.1.11,0,.18-.02.22-.05.04-.03.08-.08.11-.15h.18l-.32,1.74-.15-.02c-.03-.34-.11-.62-.23-.83-.22-.39-.6-.58-1.11-.58-.8,0-1.45.4-1.97,1.2-.45.69-.67,1.44-.67,2.25,0,.6.14,1.05.41,1.36s.62.46,1.05.46.85-.11,1.22-.33c.22-.13.51-.37.86-.7l.14.12c-.32.4-.68.72-1.08.95-.4.23-.85.35-1.33.35-.73,0-1.29-.23-1.68-.69-.39-.46-.58-1-.58-1.61,0-.88.33-1.7.98-2.44.71-.82,1.58-1.23,2.6-1.23.25,0,.53.03.82.1Z"/>
    </g>
    <g>
      <path class="uuid-4d9b6ff1-4e8c-4602-b82b-65cba64e53a5" d="M295.88,302.56c.09.11.17.29.22.55l.86-3c.02-.08.04-.16.05-.22,0-.07.01-.12.01-.17,0-.19-.04-.31-.11-.36-.07-.05-.17-.07-.3-.07-.08,0-.16,0-.23,0-.07,0-.17.01-.28.02v-.24c.55-.07,1.32-.2,2.3-.38l.07.07-.02.08-1.45,5.26-.98,3.48c-.02.08-.04.15-.05.22-.01.07-.02.13-.02.18,0,.13.03.22.1.26s.12.06.17.06c.14,0,.35-.12.61-.38.15-.15.36-.39.63-.71l.17.16-.1.15c-.18.27-.42.54-.7.82-.51.5-.96.74-1.36.74-.13,0-.25-.03-.36-.09-.2-.12-.3-.33-.3-.63,0-.1.01-.27.04-.49s.07-.47.13-.74c-.37.57-.78,1.03-1.22,1.39-.44.36-.92.54-1.45.54-.43,0-.8-.15-1.11-.45-.32-.3-.48-.77-.48-1.4,0-1.06.49-2.16,1.47-3.28.98-1.12,1.93-1.67,2.86-1.67.39,0,.66.09.83.28ZM292.23,308c.14.22.37.33.7.33.7,0,1.37-.56,2.02-1.68.62-1.05.93-2.05.93-2.99,0-.3-.05-.54-.15-.74-.1-.2-.3-.29-.6-.29-.75,0-1.47.6-2.17,1.8-.62,1.07-.94,2-.94,2.79,0,.3.07.56.21.78Z"/>
      <path class="uuid-4d9b6ff1-4e8c-4602-b82b-65cba64e53a5" d="M297.92,313.78c.21-.02.35-.05.42-.11.12-.08.22-.26.29-.53l1.07-3.87c.03-.1.05-.17.06-.23.03-.13.04-.23.04-.29,0-.15-.05-.25-.14-.3-.1-.05-.27-.08-.54-.09v-.14h2.26c.38,0,.72.05,1.02.15.49.21.74.58.74,1.12,0,.45-.2.79-.6,1.04-.22.13-.52.24-.91.33.3.11.53.24.68.38.27.25.41.58.41,1.01,0,.48-.21.88-.64,1.2-.42.32-1,.48-1.74.48h-2.42v-.14ZM301.36,313.19c.27-.3.4-.66.4-1.09,0-.47-.16-.78-.47-.93-.2-.09-.6-.14-1.2-.14l-.55,1.98s-.03.1-.03.14-.01.09-.01.13c0,.16.07.26.22.31.08.03.21.05.39.05.58,0,1-.15,1.26-.45ZM300.56,310.75c.45,0,.8-.06,1.06-.19.43-.22.65-.61.65-1.19,0-.33-.09-.56-.27-.69-.18-.14-.42-.2-.72-.2-.19,0-.32.02-.39.05-.07.04-.11.1-.14.19l-.56,2.02h.38Z"/>
    </g>
    <polyline class="uuid-a5d1f7f0-084e-43bd-88c0-b97fd58acd6b" points="245.62 308.72 250.57 317.29 255.52 325.87"/>
    <line class="uuid-a5d1f7f0-084e-43bd-88c0-b97fd58acd6b" x1="263.78" y1="285.44" x2="279.23" y2="312.19"/>
    <line class="uuid-a5d1f7f0-084e-43bd-88c0-b97fd58acd6b" x1="288.19" y1="269.69" x2="304.35" y2="297.68"/>
    <g>
      <line class="uuid-a5d1f7f0-084e-43bd-88c0-b97fd58acd6b" x1="272.92" y1="302.36" x2="250.16" y2="315.5"/>
      <polygon class="uuid-a67b86b1-29f4-49b5-a879-4bcc47722f10" points="270.47 301.41 270.36 301.9 272.76 302.45 272.03 304.81 272.51 304.95 273.39 302.08 270.47 301.41"/>
      <polygon class="uuid-a67b86b1-29f4-49b5-a879-4bcc47722f10" points="250.57 312.9 251.05 313.05 250.33 315.4 252.73 315.95 252.62 316.44 249.69 315.77 250.57 312.9"/>
    </g>
    <g>
      <line class="uuid-a5d1f7f0-084e-43bd-88c0-b97fd58acd6b" x1="299.7" y1="292.16" x2="276.94" y2="305.31"/>
      <polygon class="uuid-a67b86b1-29f4-49b5-a879-4bcc47722f10" points="297.24 291.22 297.13 291.71 299.53 292.26 298.81 294.62 299.29 294.76 300.17 291.89 297.24 291.22"/>
      <polygon class="uuid-a67b86b1-29f4-49b5-a879-4bcc47722f10" points="277.35 302.71 277.83 302.85 277.1 305.21 279.51 305.76 279.39 306.25 276.47 305.58 277.35 302.71"/>
    </g>
    <line class="uuid-52471d8b-f095-4f59-8822-98aacafe992b" x1="259.95" y1="279.63" x2="483.52" y2="407.51"/>
  </g>
</svg>