<?xml version="1.0" encoding="UTF-8"?>
<svg xmlns="http://www.w3.org/2000/svg" viewBox="0 0 238.88 187.64">
  <defs>
    <style>
      .uuid-c17e6e64-e1fb-4334-ad5e-5d2b31ccdde6 {
        fill: #fbe910;
      }

      .uuid-8664f804-afe8-4797-a2b4-f97bf37e1bd0 {
        fill: #fff;
      }

      .uuid-92f0f59a-bd0f-4dd5-ad58-f7ff3668d49b {
        fill: none;
        stroke: #2190ff;
        stroke-miterlimit: 10;
        stroke-width: .25px;
      }

      .uuid-97fe1761-7bc6-4db1-bc6e-68f8de5a01cc {
        fill: #f8b133;
      }

      .uuid-436cbbd1-6bb6-43af-9c28-0de26d67f893 {
        fill: #0056ff;
      }
    </style>
  </defs>
  <rect class="uuid-8664f804-afe8-4797-a2b4-f97bf37e1bd0" width="238.88" height="187.64"/>
  <g id="uuid-e0a5c60d-e2e4-4c82-bae3-2f7f65f54147" data-name="porzione">
    <path class="uuid-c17e6e64-e1fb-4334-ad5e-5d2b31ccdde6" d="M33.89,80.39l-7.82-4.52c-16.26,30.85-16.8,69.11,1.92,101.54l-.04-.31c-14.08-33.52-12-69.73,5.94-96.72Z"/>
    <path class="uuid-97fe1761-7bc6-4db1-bc6e-68f8de5a01cc" d="M114.97,19.97c-16.55.61-33.21,5.15-48.55,14.01-16.55,9.56-29.52,22.94-38.42,38.39l8.2,4.73c7.04-9.59,16.19-17.88,27.46-24.27,16.15-9.16,34.54-13.6,51.86-12.47l-.55-20.38Z"/>
    <path class="uuid-c17e6e64-e1fb-4334-ad5e-5d2b31ccdde6" d="M207.81,69.03c-19.78-31.52-53.84-49.09-88.84-49.14v21.52c26.42,2.88,51.23,17.08,66.47,40.53l22.37-12.92Z"/>
    <path class="uuid-c17e6e64-e1fb-4334-ad5e-5d2b31ccdde6" d="M209.88,72.46l-22.33,12.89s.02.02.02.04c11.4,19.83,12.28,45,.02,66.23-1.95,3.38-4.15,6.52-6.57,9.42l28.91,16.28c18.03-31.38,19.33-71.25-.05-104.86Z"/>
    <path d="M22.1,69.26c.28-.02.47-.07.58-.15.16-.12.3-.36.4-.73l1.47-5.31c.04-.16.08-.3.1-.41s.04-.22.04-.3c0-.2-.07-.33-.2-.41s-.38-.12-.73-.13v-.19h3.1c.57,0,1.08.05,1.51.15s.84.31,1.21.63c.26.23.48.51.66.83.26.48.39,1.03.39,1.63,0,1.2-.46,2.25-1.39,3.13-1.02.97-2.34,1.45-3.96,1.45h-3.18v-.19ZM28.73,66.92c.36-.75.54-1.51.54-2.28s-.18-1.38-.55-1.89-1.03-.77-1.99-.77c-.26,0-.45.03-.56.08s-.18.14-.22.27l-1.64,5.88c-.03.12-.05.2-.06.26s-.01.11-.01.16c0,.17.05.29.16.35s.32.09.65.09c1.74,0,2.97-.72,3.67-2.16Z"/>
    <path d="M106.28,29.69c.28-.02.47-.07.58-.15.16-.12.3-.36.4-.73l1.47-5.31c.05-.18.08-.32.11-.44s.04-.21.04-.3c0-.19-.07-.32-.21-.39s-.38-.12-.72-.12v-.19h5.97l-.38,1.83-.25-.02c.01-.12.02-.23.02-.34s0-.15,0-.12c0-.39-.13-.65-.42-.78s-.88-.18-1.77-.18c-.41,0-.67.02-.77.06-.11.04-.18.12-.22.25l-.78,2.8c1.05-.04,1.69-.1,1.9-.2.21-.1.44-.42.68-.97l.22.05-.82,2.78-.23-.05c.04-.23.06-.38.07-.43s.01-.11.01-.17c0-.25-.09-.42-.27-.5s-.51-.11-.99-.11h-.68l-.75,2.68c-.02.08-.04.16-.06.23s-.02.14-.02.22c0,.12.03.22.1.28.12.11.36.16.71.16,1.07,0,1.84-.12,2.31-.35s.92-.68,1.39-1.34l.19.1-.75,1.94h-6.09v-.19Z"/>
    <path d="M107.34,51.61c.28-.02.47-.07.58-.15.16-.12.3-.36.4-.73l1.47-5.3c.04-.13.06-.24.08-.34.04-.17.06-.3.06-.38,0-.21-.07-.35-.21-.42-.14-.07-.38-.11-.72-.12v-.19h5.97l-.38,1.83-.25-.02c.01-.13.02-.23.02-.29,0-.09,0-.17,0-.22,0-.36-.14-.61-.42-.73s-.87-.18-1.76-.18c-.38,0-.63.02-.76.05-.12.04-.21.12-.25.26l-.79,2.79c1.03-.03,1.65-.09,1.87-.19s.46-.4.74-.93l.21.06-.9,2.81-.21-.06c.04-.23.07-.38.08-.46s.02-.15.02-.22c0-.27-.12-.45-.35-.53-.14-.05-.44-.08-.88-.08h-.69l-.73,2.67c-.06.21-.09.33-.1.38s-.01.1-.01.16c0,.21.09.35.26.43.11.05.33.08.66.1v.19h-3.02v-.19Z"/>
    <path d="M47.81,69.16c.23.04.48.11.76.21.21.07.35.12.42.14s.15.03.23.03c.2,0,.34-.04.45-.11.1-.08.2-.18.29-.31l.18.04-.6,2.36-.21-.03c-.06-.48-.19-.87-.39-1.16-.37-.54-.96-.82-1.78-.82-1.13,0-2.04.6-2.74,1.8-.57.98-.85,2.01-.85,3.07,0,.75.2,1.35.61,1.81.4.46.98.69,1.73.69.26,0,.55-.05.86-.14s.52-.23.63-.41c.07-.12.15-.35.25-.7.06-.22.14-.54.23-.94l.13-.54s.01-.06.02-.1,0-.07,0-.1c0-.18-.05-.29-.16-.34s-.36-.1-.77-.15v-.19h3.2v.19c-.41.04-.68.11-.82.21s-.26.32-.34.65l-.59,2.25c-.31.2-.71.38-1.2.53s-1.02.22-1.59.22c-1.14,0-2.04-.34-2.68-1.03-.56-.61-.84-1.35-.84-2.24,0-1.17.44-2.26,1.33-3.27.99-1.12,2.19-1.68,3.62-1.68.18,0,.38.02.62.06Z"/>
    <g id="uuid-47f4c2bb-6ba8-44af-bbf4-3620e41e31f5" data-name="centro-rotazione">
      <line class="uuid-92f0f59a-bd0f-4dd5-ad58-f7ff3668d49b" x1="125.75" y1="124.89" x2="88.92" y2="124.89"/>
      <line class="uuid-92f0f59a-bd0f-4dd5-ad58-f7ff3668d49b" x1="118.92" y1="118.28" x2="118.92" y2="132.1"/>
    </g>
    <line id="uuid-c592d7fa-34de-4c13-a0aa-bb5892866fcf" data-name="centro-display" class="uuid-92f0f59a-bd0f-4dd5-ad58-f7ff3668d49b" x1="143.55" y1="124.92" x2="36.08" y2="124.92"/>
    <line id="uuid-35c25796-7d9b-43de-b539-0ad10fbdd569" data-name="centro-display" class="uuid-92f0f59a-bd0f-4dd5-ad58-f7ff3668d49b" x1="118.92" y1="17.88" x2="118.92" y2="151.78"/>
    <g id="uuid-92d18108-5572-4bc4-b141-6998791161c3" data-name="centro-display">
      <line id="uuid-79b250c8-98d1-4fae-a748-d00caf197434" data-name="centro-display" class="uuid-92f0f59a-bd0f-4dd5-ad58-f7ff3668d49b" x1="114.65" y1="17.89" x2="119.44" y2="142.47"/>
    </g>
    <g id="uuid-9594333c-5557-442c-8d7e-c2a2a2ecb79c" data-name="centro-display">
      <line id="uuid-a312eeba-2b7c-466c-a2a2-0065b70e2ef9" data-name="centro-display" class="uuid-92f0f59a-bd0f-4dd5-ad58-f7ff3668d49b" x1="26.11" y1="71.46" x2="134.07" y2="133.82"/>
    </g>
    <path class="uuid-436cbbd1-6bb6-43af-9c28-0de26d67f893" d="M120.81,134.72c.27-.07.48-.19.63-.37s.46-.66.92-1.45l3.5-6h.26l1.15,6.79c.07.44.16.71.26.82s.32.18.65.21v.19h-2.96v-.19c.36-.04.59-.08.69-.13.17-.08.25-.23.25-.46,0-.06,0-.12,0-.19s0-.12-.02-.17l-.26-1.57h-2.56l-.75,1.35c-.05.09-.1.19-.13.29-.07.18-.1.33-.1.45,0,.15.05.26.16.32s.29.1.55.11v.19h-2.25v-.19ZM125.83,131.78l-.51-3.11-1.74,3.11h2.25Z"/>
    <path d="M116.24,12.08c-.24-1.15-.51-2.07-.8-2.74s-.56-1.01-.8-1.01c-.12,0-.22.06-.29.18s-.12.28-.14.5h-.28v-.36c0-.48.07-.84.21-1.08s.35-.35.63-.35c.52,0,1.05,1.28,1.61,3.84l.11.49c.39-.92.65-1.92.78-3.01.02-.14.03-.24.04-.3.05-.36.12-.61.22-.77s.24-.24.41-.24.3.04.38.13.13.22.13.39c0,.32-.24.98-.73,1.97s-.86,1.79-1.1,2.4c.06.45.11.85.14,1.21s.05.66.05.91c0,.4-.04.69-.12.86s-.21.26-.39.26-.31-.07-.4-.22-.13-.36-.13-.64.04-.63.12-1.03.2-.86.36-1.38Z"/>
  </g>
</svg>