<?xml version="1.0" encoding="UTF-8"?>
<svg xmlns="http://www.w3.org/2000/svg" viewBox="0 0 454.57 365.28">
  <defs>
    <style>
      .uuid-197286c2-0b2c-4115-85fe-14f96743d784, .uuid-19fb41b6-2e80-4f4d-b78c-c953f9377795, .uuid-db02bb8a-4ec0-4202-b049-8ecd583196a7, .uuid-e1121436-5d2e-4360-b2bf-839351650803, .uuid-501ff705-e17b-4f69-989f-19bc57bafe2e, .uuid-98e2d999-9a2a-44e6-841a-c566f75a4603, .uuid-bca624f6-4b9e-4bb2-8338-26348a6eba8c, .uuid-5644839f-294d-4858-8f27-9e7cde0d8a20, .uuid-b04a6ec0-f1fd-402c-bc36-9b3a707b4adf, .uuid-0719e033-c29d-458b-9d66-f2028ceb342d, .uuid-8d7b4547-afc4-48de-87e9-87c8ce3cac79, .uuid-f9a0d3f6-276b-4978-bb7e-79a5a8786d33, .uuid-a487a404-533f-4f84-b8f4-7fde2cbbcc1d, .uuid-128052d0-d81e-409d-ba92-d01a80b295d3, .uuid-20b315f9-1884-44b4-9c6a-9bc06e20893a {
        fill: none;
      }

      .uuid-19fb41b6-2e80-4f4d-b78c-c953f9377795 {
        stroke: #0056ff;
      }

      .uuid-19fb41b6-2e80-4f4d-b78c-c953f9377795, .uuid-db02bb8a-4ec0-4202-b049-8ecd583196a7, .uuid-e1121436-5d2e-4360-b2bf-839351650803, .uuid-501ff705-e17b-4f69-989f-19bc57bafe2e, .uuid-98e2d999-9a2a-44e6-841a-c566f75a4603, .uuid-bca624f6-4b9e-4bb2-8338-26348a6eba8c, .uuid-5644839f-294d-4858-8f27-9e7cde0d8a20, .uuid-b04a6ec0-f1fd-402c-bc36-9b3a707b4adf, .uuid-0719e033-c29d-458b-9d66-f2028ceb342d, .uuid-8d7b4547-afc4-48de-87e9-87c8ce3cac79, .uuid-f9a0d3f6-276b-4978-bb7e-79a5a8786d33, .uuid-a487a404-533f-4f84-b8f4-7fde2cbbcc1d, .uuid-128052d0-d81e-409d-ba92-d01a80b295d3, .uuid-20b315f9-1884-44b4-9c6a-9bc06e20893a {
        stroke-miterlimit: 10;
      }

      .uuid-19fb41b6-2e80-4f4d-b78c-c953f9377795, .uuid-501ff705-e17b-4f69-989f-19bc57bafe2e, .uuid-b04a6ec0-f1fd-402c-bc36-9b3a707b4adf, .uuid-128052d0-d81e-409d-ba92-d01a80b295d3 {
        stroke-width: .75px;
      }

      .uuid-db02bb8a-4ec0-4202-b049-8ecd583196a7 {
        stroke: #e20613;
      }

      .uuid-e1121436-5d2e-4360-b2bf-839351650803, .uuid-bca624f6-4b9e-4bb2-8338-26348a6eba8c, .uuid-f9a0d3f6-276b-4978-bb7e-79a5a8786d33 {
        stroke: #008c36;
      }

      .uuid-e1121436-5d2e-4360-b2bf-839351650803, .uuid-0719e033-c29d-458b-9d66-f2028ceb342d, .uuid-a487a404-533f-4f84-b8f4-7fde2cbbcc1d, .uuid-20b315f9-1884-44b4-9c6a-9bc06e20893a {
        stroke-width: .5px;
      }

      .uuid-501ff705-e17b-4f69-989f-19bc57bafe2e {
        stroke: red;
      }

      .uuid-c0edfe95-823a-42e4-a60c-467ec0a0c172 {
        opacity: .2;
      }

      .uuid-c0edfe95-823a-42e4-a60c-467ec0a0c172, .uuid-46df3a83-7491-4db1-9564-54f8a9013ae6 {
        fill: #008c36;
      }

      .uuid-98e2d999-9a2a-44e6-841a-c566f75a4603 {
        stroke: #2190ff;
      }

      .uuid-2589cc1c-5f7a-461f-99df-778485042553 {
        fill: #fbe910;
      }

      .uuid-4e81f52c-684b-47bb-9133-20b44bd66371 {
        fill: #1d1d1b;
      }

      .uuid-056b43b5-4012-4d90-8987-d8bab6cb7a08 {
        fill: #941b80;
      }

      .uuid-bca624f6-4b9e-4bb2-8338-26348a6eba8c {
        stroke-width: 2px;
      }

      .uuid-5644839f-294d-4858-8f27-9e7cde0d8a20 {
        stroke: #941b80;
      }

      .uuid-5644839f-294d-4858-8f27-9e7cde0d8a20, .uuid-a487a404-533f-4f84-b8f4-7fde2cbbcc1d {
        stroke-dasharray: 2 2;
      }

      .uuid-8942b95e-6584-4064-901f-55e978145a79 {
        fill: #575756;
      }

      .uuid-780a40ca-097d-4dc9-a77a-f14a6b3ba4bb {
        fill: #e20613;
      }

      .uuid-6e89dc53-e1a9-4cfd-94fd-8ef45fee342f {
        fill: #fff;
      }

      .uuid-b04a6ec0-f1fd-402c-bc36-9b3a707b4adf, .uuid-8d7b4547-afc4-48de-87e9-87c8ce3cac79 {
        stroke: #1d1d1b;
      }

      .uuid-ff82f92b-e944-4419-a862-29b707bcf3a0 {
        fill: #706f6f;
      }

      .uuid-0719e033-c29d-458b-9d66-f2028ceb342d, .uuid-a487a404-533f-4f84-b8f4-7fde2cbbcc1d, .uuid-20b315f9-1884-44b4-9c6a-9bc06e20893a {
        stroke: #575756;
      }

      .uuid-d62f51ea-5b06-458b-9ce4-080c5e9ac8ff {
        fill: #07cc00;
      }

      .uuid-8d7b4547-afc4-48de-87e9-87c8ce3cac79 {
        stroke-width: .25px;
      }

      .uuid-128052d0-d81e-409d-ba92-d01a80b295d3 {
        stroke: #3c0;
      }

      .uuid-20b315f9-1884-44b4-9c6a-9bc06e20893a {
        stroke-dasharray: 2 2;
      }

      .uuid-20307219-73cb-42dd-9b6c-2128e53530f7 {
        fill: red;
      }

      .uuid-20d37e84-9fbe-471e-b90f-49a6a2f986d2 {
        fill: #f8b133;
      }

      .uuid-d8ed9b1c-8791-48f0-acb5-3b812054041f {
        fill: #dddb00;
        opacity: .4;
      }

      .uuid-800e9f7c-f9a5-49cb-aaf3-ff89757f893e {
        fill: #0056ff;
      }
    </style>
  </defs>
  <rect class="uuid-6e89dc53-e1a9-4cfd-94fd-8ef45fee342f" width="454.57" height="365.28"/>
  <g id="uuid-c0822f5a-c040-44ca-bf96-6bcf44953fee" data-name="fig 8">
    <line class="uuid-f9a0d3f6-276b-4978-bb7e-79a5a8786d33" x1="86.42" y1="135.94" x2="305.33" y2="301.77"/>
  </g>
  <g id="uuid-5123db9d-049a-4c41-8242-7ede015d91e3" data-name="fig 7">
    <line class="uuid-8d7b4547-afc4-48de-87e9-87c8ce3cac79" x1="-26.18" y1="284.29" x2="687.62" y2="284.29"/>
    <line class="uuid-8d7b4547-afc4-48de-87e9-87c8ce3cac79" x1="628.27" y1="114.95" x2="45.1" y2="451.65"/>
    <polygon class="uuid-197286c2-0b2c-4115-85fe-14f96743d784" points="334.91 284.3 334.91 284.3 334.92 284.31 334.91 284.3"/>
    <polygon class="uuid-197286c2-0b2c-4115-85fe-14f96743d784" points="334.91 284.3 334.95 285.37 334.99 284.34 334.92 284.31 334.91 284.3"/>
    <polygon class="uuid-197286c2-0b2c-4115-85fe-14f96743d784" points="334.99 284.34 334.99 284.34 334.92 284.31 334.99 284.34"/>
    <path class="uuid-2589cc1c-5f7a-461f-99df-778485042553" d="M58.13,444.1l-.12-.94c-42.39-100.89-36.71-209.84,16.23-291.68l-24.12-12.29C2.77,232.36,1.99,346.85,58.13,444.1Z"/>
    <path class="uuid-2589cc1c-5f7a-461f-99df-778485042553" d="M611.73,124.48C554.59,25.51,452.51-31.32,346.14-35.15l-2.32,66.37c80.98,11.39,156.03,57.82,200.08,132.76,34.71,60.37,37.38,136.97.06,201.61-5.94,10.28-12.64,19.85-20,28.66l87.99,49.56c54.92-95.58,58.86-217-.22-319.34Z"/>
    <path class="uuid-20d37e84-9fbe-471e-b90f-49a6a2f986d2" d="M166.71,64.86c50.14-28.43,105.6-39.65,159.3-35.55l-2.25-64.48c-50.67,1.73-101.66,15.55-148.63,42.67-48.71,28.12-87.19,67.14-114.2,112.18l25.1,15.08c21.02-27.5,47.92-51.32,80.68-69.89Z"/>
    <g>
      <line class="uuid-501ff705-e17b-4f69-989f-19bc57bafe2e" x1="362.81" y1="264.67" x2="375.52" y2="264.67"/>
      <line class="uuid-501ff705-e17b-4f69-989f-19bc57bafe2e" x1="369.16" y1="258.31" x2="369.16" y2="271.02"/>
    </g>
    <g>
      <line class="uuid-128052d0-d81e-409d-ba92-d01a80b295d3" x1="298.98" y1="301.77" x2="311.68" y2="301.77"/>
      <line class="uuid-128052d0-d81e-409d-ba92-d01a80b295d3" x1="305.33" y1="295.41" x2="305.33" y2="308.12"/>
    </g>
    <path class="uuid-800e9f7c-f9a5-49cb-aaf3-ff89757f893e" d="M340.76,306.37c.44-.11.79-.31,1.04-.61.25-.3.76-1.09,1.53-2.39l5.79-9.91h.44l1.91,11.22c.12.72.27,1.17.44,1.35.17.18.53.29,1.07.34v.32h-4.89v-.32c.59-.06.97-.13,1.14-.21.28-.13.42-.38.42-.75,0-.1,0-.2,0-.31,0-.11-.02-.2-.03-.28l-.42-2.59h-4.23l-1.25,2.23c-.08.15-.16.31-.22.47-.11.3-.16.55-.16.75,0,.25.08.43.26.53.17.1.48.16.92.17v.32h-3.72v-.32ZM349.06,301.51l-.84-5.14-2.88,5.14h3.72Z"/>
    <path class="uuid-20307219-73cb-42dd-9b6c-2128e53530f7" d="M368.98,280.45c.46-.04.78-.12.96-.25.27-.19.49-.6.67-1.21l2.43-8.77c.06-.22.11-.39.14-.51.06-.3.1-.52.1-.66,0-.34-.11-.57-.32-.69-.22-.12-.62-.19-1.21-.2v-.32h5.12c.87,0,1.64.11,2.3.34,1.12.47,1.67,1.32,1.67,2.54,0,1.01-.46,1.8-1.37,2.36-.5.3-1.19.55-2.07.75.68.26,1.2.54,1.54.85.61.56.92,1.32.92,2.29,0,1.08-.48,1.99-1.44,2.72-.96.73-2.28,1.09-3.95,1.09h-5.48v-.32ZM376.78,279.11c.61-.68.91-1.51.91-2.47,0-1.07-.35-1.77-1.06-2.1-.45-.2-1.36-.31-2.73-.33l-1.25,4.49c-.03.11-.06.22-.08.32s-.03.21-.03.29c0,.36.16.59.49.71.19.07.48.11.88.11,1.3,0,2.26-.34,2.87-1.03ZM374.95,273.58c1.02,0,1.82-.14,2.39-.43.98-.49,1.47-1.39,1.47-2.69,0-.74-.21-1.27-.62-1.57-.42-.31-.96-.46-1.64-.46-.43,0-.72.04-.88.12-.15.08-.26.22-.31.43l-1.28,4.59h.87Z"/>
    <path class="uuid-46df3a83-7491-4db1-9564-54f8a9013ae6" d="M309.97,310.5c.67.15,1.08.23,1.22.23.24,0,.41-.04.5-.12.1-.08.18-.19.24-.33h.41l-.73,3.95-.35-.05c-.07-.78-.25-1.41-.52-1.89-.51-.88-1.35-1.33-2.53-1.33-1.81,0-3.29.9-4.46,2.71-1.02,1.57-1.53,3.27-1.53,5.1,0,1.36.31,2.39.93,3.09.62.7,1.42,1.05,2.39,1.05s1.93-.25,2.77-.74c.5-.3,1.15-.83,1.95-1.6l.32.28c-.72.92-1.54,1.64-2.45,2.16-.91.53-1.92.79-3.02.79-1.65,0-2.92-.52-3.8-1.57-.88-1.05-1.33-2.26-1.33-3.66,0-2,.74-3.85,2.22-5.54,1.62-1.86,3.59-2.79,5.9-2.79.57,0,1.2.08,1.87.23Z"/>
    <path class="uuid-4e81f52c-684b-47bb-9133-20b44bd66371" d="M51.57,102.16c.46-.04.78-.12.96-.25.27-.19.49-.6.67-1.21l2.43-8.77c.07-.26.13-.49.17-.68s.06-.36.06-.5c0-.32-.11-.55-.33-.67-.22-.13-.62-.2-1.21-.21v-.32h5.12c.95,0,1.78.08,2.5.25.72.17,1.38.51,1.99,1.04.43.39.79.85,1.08,1.37.43.8.64,1.7.64,2.7,0,1.99-.76,3.71-2.29,5.17-1.68,1.6-3.86,2.4-6.54,2.4h-5.25v-.32ZM62.53,98.28c.6-1.23.9-2.49.9-3.77s-.3-2.27-.91-3.12c-.61-.85-1.7-1.27-3.28-1.27-.43,0-.74.04-.92.13-.18.08-.31.23-.36.45l-2.71,9.71c-.05.19-.08.33-.1.43-.01.09-.02.18-.02.27,0,.28.09.48.26.58.17.1.53.16,1.07.16,2.88,0,4.9-1.19,6.07-3.56Z"/>
    <path class="uuid-4e81f52c-684b-47bb-9133-20b44bd66371" d="M314.62,47.89c.46-.04.78-.12.96-.25.27-.19.49-.6.67-1.21l2.43-8.76c.06-.21.1-.4.14-.55.06-.28.1-.49.1-.63,0-.34-.12-.57-.35-.69-.23-.12-.63-.18-1.19-.19v-.32h9.87l-.62,3.02-.41-.03c.02-.21.03-.37.03-.48,0-.16,0-.27,0-.36,0-.6-.23-1-.7-1.2s-1.44-.3-2.91-.3c-.63,0-1.04.03-1.25.09-.21.06-.34.2-.41.44l-1.3,4.6c1.7-.05,2.72-.15,3.08-.31s.76-.66,1.21-1.53l.35.1-1.49,4.64-.35-.1c.07-.38.12-.64.13-.77.02-.13.03-.25.03-.37,0-.45-.19-.74-.57-.87-.24-.08-.72-.13-1.45-.13h-1.13l-1.21,4.41c-.1.34-.15.55-.17.62-.02.07-.02.16-.02.27,0,.35.14.58.44.71.19.08.55.13,1.08.17v.32h-4.98v-.32Z"/>
    <path class="uuid-4e81f52c-684b-47bb-9133-20b44bd66371" d="M106.84,121.63c.38.06.8.18,1.25.35.34.12.58.2.7.24.12.03.25.05.38.05.32,0,.57-.06.74-.19.17-.12.33-.29.47-.51l.3.07-.99,3.9-.34-.05c-.1-.8-.32-1.44-.64-1.92-.61-.9-1.59-1.35-2.94-1.35-1.87,0-3.37.99-4.52,2.97-.94,1.62-1.4,3.31-1.4,5.08,0,1.23.33,2.23,1,2.98.67.75,1.62,1.13,2.86,1.13.43,0,.9-.08,1.41-.23.51-.15.85-.38,1.04-.68.12-.19.25-.58.42-1.16.1-.37.23-.88.39-1.55l.21-.89c.01-.05.02-.1.03-.16,0-.05,0-.11,0-.17,0-.29-.09-.48-.27-.56-.18-.08-.6-.16-1.27-.25v-.32h5.29v.32c-.67.06-1.12.18-1.36.35-.24.17-.42.53-.57,1.08l-.97,3.72c-.51.34-1.17.63-1.97.87s-1.68.37-2.62.37c-1.89,0-3.36-.57-4.42-1.7-.93-1-1.39-2.24-1.39-3.71,0-1.94.73-3.74,2.2-5.4,1.63-1.85,3.62-2.77,5.97-2.77.3,0,.63.03,1.02.09Z"/>
    <path class="uuid-800e9f7c-f9a5-49cb-aaf3-ff89757f893e" d="M137.28,17.49c.11.11.2.25.27.43l.04.1.16-.55c.02-.06.04-.11.05-.13.02-.02.05-.04.1-.04l.84-.09s.07,0,.08.03c0,.02,0,.05,0,.09-.02.06-.04.11-.05.15-.01.04-.03.09-.05.16l-.72,2.62c-.16.57-.29,1.06-.4,1.48-.18.75-.27,1.18-.27,1.28,0,.07.02.12.05.15.04.03.08.05.14.05.04,0,.09-.01.15-.04s.12-.07.2-.13l.13-.1s.09-.08.14-.12c.05-.05.11-.1.18-.17l.48-.47.18.15c-.52.65-.94,1.09-1.26,1.32-.32.23-.62.35-.9.35-.19,0-.33-.06-.43-.19-.1-.13-.15-.28-.15-.47,0-.17.03-.43.1-.76.07-.33.13-.61.19-.83-.09.15-.24.36-.44.64-.21.28-.46.55-.76.82-.36.32-.7.54-1.02.67-.25.09-.5.13-.73.13-.4,0-.75-.16-1.08-.49-.32-.33-.48-.79-.48-1.38,0-1.03.46-2.1,1.39-3.21.96-1.16,1.95-1.74,2.98-1.74.39,0,.69.1.9.3ZM137.04,17.77c-.16-.17-.36-.25-.59-.25-.8,0-1.55.61-2.24,1.83-.61,1.08-.91,2-.91,2.78,0,.39.08.68.25.85.17.18.38.27.62.27.74,0,1.44-.59,2.13-1.78.66-1.08.99-2.06.99-2.93,0-.35-.08-.61-.24-.78Z"/>
    <path class="uuid-d62f51ea-5b06-458b-9ce4-080c5e9ac8ff" d="M204.24,52.08c.26.27.4.53.4.78,0,.23-.07.41-.21.53-.14.13-.3.19-.48.19s-.33-.06-.45-.17-.18-.25-.18-.42c0-.13.04-.26.12-.41.08-.15.12-.24.12-.29,0-.09-.05-.16-.15-.22-.1-.06-.26-.09-.48-.09-.79,0-1.47.45-2.05,1.34-.58.89-.87,1.83-.87,2.82,0,.55.12.99.35,1.3.23.31.59.47,1.05.47.38,0,.74-.11,1.09-.33.35-.22.68-.49.98-.83l.05-.06.21.16c-.34.43-.67.77-.99,1-.56.41-1.18.61-1.87.61s-1.18-.21-1.59-.63c-.41-.42-.61-.99-.61-1.71,0-1.11.45-2.13,1.36-3.06.89-.93,1.86-1.39,2.9-1.39.6,0,1.03.13,1.29.4Z"/>
    <path class="uuid-780a40ca-097d-4dc9-a77a-f14a6b3ba4bb" d="M236.71,92.82c.03-.11.05-.2.06-.29.01-.08.02-.16.02-.22,0-.06-.02-.13-.05-.19-.03-.06-.11-.11-.22-.14-.03,0-.09-.02-.17-.02-.08,0-.26-.01-.52-.03v-.26c.16-.02.33-.05.51-.07.18-.02.43-.05.75-.1.03,0,.18-.04.45-.09s.45-.09.56-.09c.02,0,.05,0,.07.03.02.02.03.05.03.09v.09s-1.51,5.54-1.51,5.54c.44-.62.81-1.08,1.11-1.36.53-.49,1.08-.74,1.65-.74.53,0,.96.18,1.29.53.32.35.48.79.48,1.31,0,1.22-.53,2.35-1.59,3.41s-2.1,1.54-3.2,1.54c-.5,0-.96-.11-1.38-.34-.42-.22-.61-.4-.58-.53l2.24-8.09ZM238.93,99.75c.68-1.01,1.01-1.94,1.01-2.78,0-.38-.1-.68-.3-.91-.2-.23-.45-.34-.75-.34-.77,0-1.51.69-2.22,2.08-.61,1.21-.92,2.21-.92,3,0,.19.06.34.18.46.12.12.31.17.58.17.86,0,1.67-.56,2.42-1.69Z"/>
    <path id="uuid-4bbf0af0-52d5-48b7-b5a2-2305993390ab" data-name="cerchio interno 1 corretto" class="uuid-bca624f6-4b9e-4bb2-8338-26348a6eba8c" d="M543.73,164.08c76.21,129.65,30.99,295.44-101.02,370.29-132.01,74.85-326.45,47.44-384.7-91.21C-2.3,299.6,34.7,139.71,166.71,64.86c132.01-74.85,300.81-30.43,377.02,99.22Z"/>
    <circle id="uuid-83eacf85-4e8d-42ee-8009-45c2317b22e5" data-name="cerchio interno 2" class="uuid-db02bb8a-4ec0-4202-b049-8ecd583196a7" cx="369.16" cy="264.67" r="201.85"/>
    <circle id="uuid-067f1939-7524-4abb-aea1-f289fb967928" data-name="cerchio esterno" class="uuid-98e2d999-9a2a-44e6-841a-c566f75a4603" cx="334.93" cy="284.29" r="319.62"/>
    <line class="uuid-b04a6ec0-f1fd-402c-bc36-9b3a707b4adf" x1="334.99" y1="284.34" x2="85.59" y2="134.49"/>
    <path class="uuid-ff82f92b-e944-4419-a862-29b707bcf3a0" d="M380.11,187.2c1.01.03,1.83.39,2.45,1.09.62.69.93,1.6.93,2.71s-.29,1.96-.87,2.65c-.58.69-1.35,1.07-2.32,1.15v3.26h-1.16v-3.26c-.97-.07-1.75-.45-2.34-1.14-.59-.69-.88-1.58-.88-2.65s.31-2.01.94-2.71,1.44-1.06,2.46-1.09l.09-3.12h.64l.07,3.12ZM379.3,187.67c-.6.06-1.08.39-1.46,1-.37.61-.56,1.39-.56,2.33s.17,1.65.51,2.25c.34.6.79.95,1.34,1.05l.16-6.64ZM380.12,187.67l.17,6.64c.56-.11,1.01-.46,1.34-1.06.33-.6.5-1.34.5-2.25s-.19-1.71-.56-2.33c-.38-.61-.86-.95-1.45-1.01Z"/>
    <path class="uuid-ff82f92b-e944-4419-a862-29b707bcf3a0" d="M343.77,206.28c1.1,0,1.95.46,2.54,1.37s.89,2.23.89,3.94c0,1.85-.29,3.26-.88,4.24-.59.98-1.43,1.47-2.53,1.47-1.16,0-2.04-.47-2.62-1.4-.58-.94-.88-2.33-.88-4.19,0-1.71.31-3.05.92-4.01s1.47-1.44,2.56-1.44ZM345.62,211.14c0-.07,0-.17,0-.3,0-.13,0-.22,0-.28,0-1.35-.15-2.33-.45-2.96s-.77-.94-1.42-.94-1.16.35-1.47,1.05c-.31.7-.47,1.84-.48,3.42h3.8ZM341.82,211.71v.37c0,1.79.15,3.04.44,3.75s.78,1.07,1.47,1.07,1.2-.35,1.47-1.05c.28-.7.41-2.08.41-4.15h-3.8Z"/>
    <g>
      <path class="uuid-056b43b5-4012-4d90-8987-d8bab6cb7a08" d="M178.85,265.03c1.1,0,1.95.46,2.54,1.37s.89,2.23.89,3.94c0,1.85-.29,3.26-.88,4.24-.59.98-1.43,1.47-2.53,1.47-1.16,0-2.04-.47-2.62-1.4-.58-.94-.88-2.33-.88-4.19,0-1.71.31-3.05.92-4.01s1.47-1.44,2.56-1.44ZM180.7,269.89c0-.07,0-.17,0-.3,0-.13,0-.22,0-.28,0-1.35-.15-2.33-.45-2.96s-.77-.94-1.42-.94-1.16.35-1.47,1.05c-.31.7-.47,1.84-.48,3.42h3.8ZM176.9,270.46v.37c0,1.79.15,3.04.44,3.75s.78,1.07,1.47,1.07,1.2-.35,1.47-1.05c.28-.7.41-2.08.41-4.15h-3.8Z"/>
      <path class="uuid-056b43b5-4012-4d90-8987-d8bab6cb7a08" d="M191.17,272.62h-7.46v-1.01h7.46v1.01Z"/>
      <path class="uuid-056b43b5-4012-4d90-8987-d8bab6cb7a08" d="M196.46,268.43c1.01.03,1.83.39,2.45,1.09.62.69.93,1.6.93,2.71s-.29,1.96-.87,2.65c-.58.69-1.35,1.07-2.32,1.15v3.26h-1.16v-3.26c-.97-.07-1.75-.45-2.34-1.14-.59-.69-.88-1.58-.88-2.65s.31-2.01.94-2.71,1.44-1.06,2.46-1.09l.09-3.12h.64l.07,3.12ZM195.65,268.9c-.6.06-1.08.39-1.46,1-.37.61-.56,1.39-.56,2.33s.17,1.65.51,2.25c.34.6.79.95,1.34,1.05l.16-6.64ZM196.47,268.9l.17,6.64c.56-.11,1.01-.46,1.34-1.06.33-.6.5-1.34.5-2.25s-.19-1.71-.56-2.33c-.38-.61-.86-.95-1.45-1.01Z"/>
      <path class="uuid-056b43b5-4012-4d90-8987-d8bab6cb7a08" d="M212.45,271.56h-7.47v-1.01h7.47v1.01ZM212.45,273.6h-7.47v-1.01h7.47v1.01Z"/>
      <path class="uuid-056b43b5-4012-4d90-8987-d8bab6cb7a08" d="M221.46,268.97l-.18-.13c-1.65-1.09-2.48-2.01-2.48-2.75,0-.46.17-.83.5-1.13s.76-.45,1.27-.45c.59,0,1.13.19,1.61.57.48.38.78.85.9,1.41h-.44c-.18-.46-.46-.83-.84-1.11-.38-.28-.79-.42-1.23-.42-.28,0-.49.06-.65.18-.16.12-.23.29-.23.51,0,.43.44.93,1.32,1.49.29.19.52.34.69.45.98.68,1.7,1.4,2.17,2.18.47.78.71,1.63.71,2.56,0,1.12-.32,2.02-.96,2.7-.64.68-1.49,1.01-2.56,1.01-.99,0-1.79-.33-2.42-.98-.62-.66-.94-1.5-.94-2.52,0-1.07.31-1.95.93-2.63.62-.68,1.42-1.01,2.41-1.01.08,0,.15,0,.22.02s.13.03.2.05ZM223.11,272.95c0-1.08-.2-1.95-.59-2.6-.39-.66-.91-.98-1.54-.98-.56,0-1,.23-1.31.7-.31.47-.47,1.12-.47,1.96,0,1.03.2,1.87.59,2.52s.9.98,1.52.98,1.06-.21,1.36-.64c.3-.42.45-1.07.45-1.93Z"/>
    </g>
    <g>
      <path class="uuid-4e81f52c-684b-47bb-9133-20b44bd66371" d="M265.11,149.58c0-1.25.32-2.24.97-2.95s1.53-1.07,2.65-1.07c1.03,0,1.86.36,2.49,1.07.63.71.94,1.66.94,2.84s-.32,2.18-.96,2.95c-.64.76-1.45,1.15-2.42,1.15-.44,0-.86-.09-1.27-.28-.41-.19-.75-.45-1.04-.79v4.45h-1.37v-7.36ZM268.45,146.01c-.6,0-1.07.26-1.4.79-.33.53-.5,1.27-.5,2.24,0,1.2.21,2.17.63,2.92.42.75.96,1.12,1.62,1.12s1.13-.24,1.44-.73c.32-.48.48-1.22.48-2.21,0-1.25-.21-2.25-.63-3-.42-.75-.97-1.13-1.64-1.13Z"/>
      <path class="uuid-4e81f52c-684b-47bb-9133-20b44bd66371" d="M285.16,149.05h-7.47v-1.01h7.47v1.01ZM285.16,151.09h-7.47v-1.01h7.47v1.01Z"/>
      <path class="uuid-4e81f52c-684b-47bb-9133-20b44bd66371" d="M290.84,149.58c0-1.25.32-2.24.97-2.95s1.53-1.07,2.65-1.07c1.03,0,1.86.36,2.49,1.07.63.71.94,1.66.94,2.84s-.32,2.18-.96,2.95c-.64.76-1.45,1.15-2.42,1.15-.44,0-.86-.09-1.27-.28-.41-.19-.75-.45-1.04-.79v4.45h-1.37v-7.36ZM294.18,146.01c-.6,0-1.07.26-1.4.79-.33.53-.5,1.27-.5,2.24,0,1.2.21,2.17.63,2.92.42.75.96,1.12,1.62,1.12s1.13-.24,1.44-.73c.32-.48.48-1.22.48-2.21,0-1.25-.21-2.25-.63-3-.42-.75-.97-1.13-1.64-1.13Z"/>
      <path class="uuid-4e81f52c-684b-47bb-9133-20b44bd66371" d="M300.74,153.83v-.27c0-.1-.02-.17-.05-.22-.03-.05-.08-.07-.15-.07-.04,0-.09.01-.16.03-.07.02-.15.06-.24.1l-.6.29-.1-.18c.28-.14.59-.3.93-.48.33-.18.73-.41,1.2-.67v5.22c0,.45.05.72.16.82.11.09.38.14.83.14h.15v.19h-3.15v-.19c.55,0,.89-.05,1.01-.16.12-.11.18-.37.18-.8v-3.75Z"/>
      <path class="uuid-4e81f52c-684b-47bb-9133-20b44bd66371" d="M312.32,149.1h3.17v1.01h-3.17v3.26h-1.01v-3.26h-3.18v-1.01h3.18v-3.26h1.01v3.26Z"/>
      <path class="uuid-4e81f52c-684b-47bb-9133-20b44bd66371" d="M321.27,149.58c0-1.25.32-2.24.97-2.95s1.53-1.07,2.65-1.07c1.03,0,1.86.36,2.49,1.07.63.71.94,1.66.94,2.84s-.32,2.18-.96,2.95c-.64.76-1.45,1.15-2.42,1.15-.44,0-.86-.09-1.27-.28-.41-.19-.75-.45-1.04-.79v4.45h-1.37v-7.36ZM324.61,146.01c-.6,0-1.07.26-1.4.79-.33.53-.5,1.27-.5,2.24,0,1.2.21,2.17.63,2.92.42.75.96,1.12,1.62,1.12s1.13-.24,1.44-.73c.32-.48.48-1.22.48-2.21,0-1.25-.21-2.25-.63-3-.42-.75-.97-1.13-1.64-1.13Z"/>
      <path class="uuid-4e81f52c-684b-47bb-9133-20b44bd66371" d="M329.62,154.24l-.2-.03c.13-.58.37-1.03.73-1.34.36-.31.81-.46,1.36-.46.52,0,.93.14,1.24.43.31.29.46.68.46,1.17,0,.37-.11.75-.32,1.12-.21.37-.61.86-1.2,1.46l-1.41,1.44h1.82c.48,0,.8-.05.96-.15.17-.1.31-.28.43-.54l.18.06-.53,1.33h-3.75v-.17l1.01-1.05.09-.1c1.27-1.33,1.91-2.32,1.91-2.97,0-.42-.12-.76-.36-1s-.56-.37-.96-.37c-.34,0-.64.1-.9.3-.26.2-.45.49-.58.86Z"/>
    </g>
    <path class="uuid-ff82f92b-e944-4419-a862-29b707bcf3a0" d="M326.66,298.05c.1.12.18.31.24.59l.92-3.22c.03-.09.04-.17.05-.24,0-.07.01-.13.01-.18,0-.21-.04-.33-.11-.39-.08-.05-.19-.08-.33-.08-.09,0-.17,0-.25,0-.08,0-.18.01-.3.02v-.26c.59-.08,1.42-.21,2.47-.41l.07.08-.02.09-1.55,5.65-1.06,3.74c-.02.08-.04.16-.05.23-.01.07-.02.14-.02.19,0,.14.04.24.11.28.07.04.13.06.19.06.15,0,.37-.13.65-.4.16-.16.39-.42.68-.76l.18.17-.11.17c-.2.29-.45.58-.75.88-.54.53-1.03.8-1.46.8-.14,0-.27-.03-.39-.09-.22-.13-.32-.35-.32-.68,0-.11.02-.29.05-.53s.08-.51.14-.79c-.4.61-.83,1.11-1.31,1.49-.47.39-.99.58-1.55.58-.46,0-.86-.16-1.2-.49-.34-.32-.51-.82-.51-1.5,0-1.14.53-2.32,1.58-3.52,1.05-1.2,2.07-1.8,3.07-1.8.42,0,.71.1.89.3ZM322.74,303.89c.15.24.4.36.75.36.75,0,1.47-.6,2.17-1.81.67-1.13,1-2.2,1-3.21,0-.32-.05-.58-.16-.79-.11-.21-.32-.31-.64-.31-.8,0-1.58.64-2.33,1.93-.67,1.15-1.01,2.15-1.01,3,0,.32.07.6.22.84Z"/>
    <g>
      <path class="uuid-ff82f92b-e944-4419-a862-29b707bcf3a0" d="M435.39,244.01c.09.03.18.08.28.14l.28.19c.15.1.27.17.36.22.16.07.31.11.46.11.39,0,.75-.18,1.06-.55s.47-.84.47-1.42c0-.66-.17-1.15-.52-1.49s-.84-.51-1.47-.51c-.03,0-.06,0-.08,0s-.07,0-.14,0v-.19c1.04-.14,1.78-.41,2.22-.79s.65-.77.65-1.16c0-.27-.08-.51-.24-.75-.16-.23-.44-.35-.85-.35-.24,0-.47.06-.7.19-.23.13-.44.32-.62.58l-.19-.06c.23-.43.51-.74.85-.93s.69-.29,1.07-.29c.51,0,.93.14,1.25.41s.48.63.48,1.08c0,.46-.19.85-.57,1.15-.25.2-.68.41-1.29.64v.04c.29.14.52.3.69.49.3.34.45.79.45,1.35,0,.8-.31,1.49-.93,2.09-.64.63-1.43.94-2.37.94-.34,0-.62-.04-.83-.11-.37-.12-.56-.34-.56-.65,0-.11.04-.21.12-.3s.21-.13.38-.13c.11,0,.21.02.3.05Z"/>
      <path class="uuid-ff82f92b-e944-4419-a862-29b707bcf3a0" d="M446.04,238.04c.21.49.32,1.06.32,1.71,0,1.43-.38,2.69-1.13,3.77-.74,1.06-1.58,1.59-2.51,1.59-.54,0-1-.23-1.38-.69s-.56-1.1-.56-1.92c0-1.36.37-2.63,1.11-3.79.76-1.19,1.6-1.79,2.53-1.79.75,0,1.29.37,1.62,1.12ZM444.7,242.58c.47-1.27.71-2.48.71-3.64,0-.4-.04-.73-.13-.97-.16-.47-.45-.7-.89-.7-.8,0-1.48.86-2.04,2.59-.42,1.32-.63,2.42-.63,3.3,0,.37.04.68.13.93.16.48.47.73.9.73.75,0,1.39-.74,1.94-2.23Z"/>
      <path class="uuid-ff82f92b-e944-4419-a862-29b707bcf3a0" d="M448.48,237.42c.33-.33.73-.5,1.21-.5s.88.17,1.21.5.5.73.5,1.21-.17.88-.5,1.21-.74.5-1.21.5-.88-.17-1.21-.5-.5-.74-.5-1.21.17-.88.5-1.21ZM448.86,239.45c.23.23.5.34.83.34s.6-.11.83-.34c.23-.23.34-.5.34-.83s-.11-.6-.34-.83-.5-.34-.83-.34-.6.11-.83.34c-.23.23-.34.5-.34.83s.11.6.34.83Z"/>
    </g>
    <path class="uuid-4e81f52c-684b-47bb-9133-20b44bd66371" d="M210.38,195.02c0-1.25.32-2.24.97-2.95s1.53-1.07,2.65-1.07c1.03,0,1.86.36,2.49,1.07.63.71.94,1.66.94,2.84s-.32,2.18-.96,2.95c-.64.76-1.45,1.15-2.42,1.15-.44,0-.86-.09-1.27-.28-.41-.19-.75-.45-1.04-.79v4.45h-1.37v-7.36ZM213.72,191.44c-.6,0-1.07.26-1.4.79-.33.53-.5,1.27-.5,2.24,0,1.2.21,2.17.63,2.92.42.75.96,1.12,1.62,1.12s1.13-.24,1.44-.73c.32-.48.48-1.22.48-2.21,0-1.25-.21-2.25-.63-3-.42-.75-.97-1.13-1.64-1.13Z"/>
    <g>
      <path class="uuid-46df3a83-7491-4db1-9564-54f8a9013ae6" d="M232.05,178.12c0-1.09.28-1.94.84-2.57.56-.62,1.33-.93,2.31-.93.9,0,1.62.31,2.16.93.54.62.82,1.44.82,2.47s-.28,1.9-.84,2.56c-.56.67-1.26,1-2.1,1-.38,0-.75-.08-1.1-.25s-.66-.39-.9-.68v3.87h-1.19v-6.4ZM234.95,175.01c-.52,0-.93.23-1.22.69-.29.46-.43,1.11-.43,1.94,0,1.04.18,1.88.55,2.54.37.65.84.98,1.41.98s.98-.21,1.25-.63c.28-.42.41-1.06.41-1.92,0-1.08-.18-1.96-.55-2.61s-.84-.98-1.43-.98Z"/>
      <path class="uuid-46df3a83-7491-4db1-9564-54f8a9013ae6" d="M240.65,181.81v-.23c0-.08-.01-.15-.04-.19s-.07-.06-.13-.06c-.03,0-.08,0-.14.03-.06.02-.13.05-.21.09l-.52.25-.09-.16c.25-.12.52-.26.8-.42.29-.16.64-.35,1.04-.59v4.54c0,.39.05.63.14.71.09.08.33.12.72.12h.13v.16h-2.73v-.16c.48,0,.77-.05.88-.14.1-.09.16-.32.16-.69v-3.26Z"/>
    </g>
    <g>
      <path class="uuid-46df3a83-7491-4db1-9564-54f8a9013ae6" d="M347.32,236.05c0-1.09.28-1.94.84-2.57.56-.62,1.33-.93,2.31-.93.9,0,1.62.31,2.16.93.54.62.82,1.44.82,2.47s-.28,1.9-.84,2.56c-.56.67-1.26,1-2.1,1-.38,0-.75-.08-1.1-.25s-.66-.39-.9-.68v3.87h-1.19v-6.4ZM350.22,232.94c-.52,0-.93.23-1.22.69-.29.46-.43,1.11-.43,1.94,0,1.04.18,1.88.55,2.54.37.65.84.98,1.41.98s.98-.21,1.25-.63c.28-.42.41-1.06.41-1.92,0-1.08-.18-1.96-.55-2.61s-.84-.98-1.43-.98Z"/>
      <path class="uuid-46df3a83-7491-4db1-9564-54f8a9013ae6" d="M354.57,240.1l-.17-.02c.11-.51.32-.9.64-1.16.31-.27.71-.4,1.19-.4.45,0,.81.12,1.08.38s.4.59.4,1.01c0,.32-.09.65-.27.97-.18.32-.53.75-1.04,1.27l-1.22,1.26h1.58c.41,0,.69-.04.84-.13.14-.08.27-.24.38-.47l.16.05-.46,1.16h-3.26v-.15l.88-.91.08-.08c1.11-1.16,1.66-2.02,1.66-2.58,0-.37-.1-.66-.31-.87-.21-.21-.49-.32-.84-.32-.3,0-.56.09-.78.26-.22.18-.39.43-.5.75Z"/>
    </g>
    <g>
      <line class="uuid-19fb41b6-2e80-4f4d-b78c-c953f9377795" x1="328.59" y1="284.29" x2="341.3" y2="284.29"/>
      <line class="uuid-19fb41b6-2e80-4f4d-b78c-c953f9377795" x1="334.94" y1="277.93" x2="334.94" y2="290.64"/>
    </g>
    <g>
      <path class="uuid-0719e033-c29d-458b-9d66-f2028ceb342d" d="M427.82,283.85c0-.33,0-.67-.01-1"/>
      <path class="uuid-20b315f9-1884-44b4-9c6a-9bc06e20893a" d="M427.76,280.86c-1.8-49.69-42.65-89.41-92.78-89.41s-92.84,41.57-92.84,92.84c0,15.48,3.87,30.71,11.25,44.29"/>
      <path class="uuid-0719e033-c29d-458b-9d66-f2028ceb342d" d="M253.86,329.46c.16.29.33.58.49.87"/>
      <polygon class="uuid-8942b95e-6584-4064-901f-55e978145a79" points="429.41 282.49 429.11 282.22 427.8 283.7 426.42 282.29 426.14 282.57 427.82 284.29 429.41 282.49"/>
      <polygon class="uuid-8942b95e-6584-4064-901f-55e978145a79" points="252.29 329.93 252.42 329.55 254.29 330.19 254.79 328.29 255.18 328.39 254.57 330.71 252.29 329.93"/>
    </g>
    <g>
      <path class="uuid-a487a404-533f-4f84-b8f4-7fde2cbbcc1d" d="M280.24,250.94c11.26-18.44,31.56-30.75,54.75-30.75,35.25,0,63.86,28.46,64.09,63.66"/>
      <polygon class="uuid-8942b95e-6584-4064-901f-55e978145a79" points="282.34 250.72 282.24 250.33 280.33 250.82 279.99 248.88 279.59 248.95 280.02 251.31 282.34 250.72"/>
      <polygon class="uuid-8942b95e-6584-4064-901f-55e978145a79" points="397.4 282.57 397.69 282.29 399.07 283.7 400.37 282.22 400.67 282.49 399.08 284.29 397.4 282.57"/>
    </g>
    <polygon class="uuid-c0edfe95-823a-42e4-a60c-467ec0a0c172" points="305.33 301.77 85.59 134.49 320.89 275.87 305.33 301.77"/>
    <polygon class="uuid-d8ed9b1c-8791-48f0-acb5-3b812054041f" points="334.92 284.31 305.33 301.77 320.89 275.87 334.92 284.31"/>
    <g id="uuid-63d5dfed-a36c-4ec0-8784-56760864decb" data-name="Manual Dimension">
      <line class="uuid-e1121436-5d2e-4360-b2bf-839351650803" x1="322.69" y1="272.87" x2="353.97" y2="220.82"/>
      <line class="uuid-e1121436-5d2e-4360-b2bf-839351650803" x1="338.33" y1="280.77" x2="369.61" y2="228.71"/>
      <line class="uuid-e1121436-5d2e-4360-b2bf-839351650803" x1="87.83" y1="131.75" x2="119.11" y2="79.7"/>
      <g>
        <line class="uuid-e1121436-5d2e-4360-b2bf-839351650803" x1="101.64" y1="110.03" x2="335.39" y2="250.48"/>
        <polygon class="uuid-46df3a83-7491-4db1-9564-54f8a9013ae6" points="102.08 113.16 102.66 112.99 101.84 110.15 104.73 109.54 104.61 108.95 101.08 109.7 102.08 113.16"/>
        <polygon class="uuid-46df3a83-7491-4db1-9564-54f8a9013ae6" points="332.42 251.56 332.29 250.98 335.19 250.36 334.37 247.52 334.94 247.36 335.94 250.82 332.42 251.56"/>
      </g>
    </g>
    <g>
      <line class="uuid-e1121436-5d2e-4360-b2bf-839351650803" x1="341.22" y1="243.08" x2="355.67" y2="250.86"/>
      <polygon class="uuid-46df3a83-7491-4db1-9564-54f8a9013ae6" points="341.71 245.67 342.19 245.51 341.39 243.17 343.78 242.55 343.65 242.07 340.75 242.83 341.71 245.67"/>
      <polygon class="uuid-46df3a83-7491-4db1-9564-54f8a9013ae6" points="353.24 251.87 353.12 251.39 355.5 250.77 354.71 248.43 355.18 248.27 356.15 251.12 353.24 251.87"/>
    </g>
    <path class="uuid-46df3a83-7491-4db1-9564-54f8a9013ae6" d="M323.84,282.96l-.12-.09c-1.13-.74-1.69-1.37-1.69-1.88,0-.31.11-.57.34-.77.23-.21.52-.31.87-.31.4,0,.77.13,1.1.39.33.26.54.58.62.96h-.3c-.12-.32-.32-.57-.58-.76-.26-.19-.54-.28-.84-.28-.19,0-.34.04-.44.12-.11.08-.16.2-.16.35,0,.3.3.64.9,1.02.2.13.36.23.47.31.67.46,1.16.96,1.48,1.49s.48,1.11.48,1.75c0,.77-.22,1.38-.66,1.84s-1.02.69-1.75.69c-.67,0-1.22-.22-1.65-.67-.43-.45-.64-1.02-.64-1.72,0-.73.21-1.33.63-1.79s.97-.69,1.64-.69c.05,0,.1,0,.15.01.04,0,.09.02.14.03ZM324.96,285.68c0-.74-.13-1.33-.4-1.78-.27-.45-.62-.67-1.05-.67-.38,0-.68.16-.9.48s-.32.76-.32,1.34c0,.7.13,1.28.4,1.72.27.44.61.67,1.04.67s.72-.14.93-.43c.2-.29.31-.73.31-1.32Z"/>
    <circle class="uuid-4e81f52c-684b-47bb-9133-20b44bd66371" cx="326.01" cy="29.51" r="1.67"/>
    <circle class="uuid-4e81f52c-684b-47bb-9133-20b44bd66371" cx="60.92" cy="120.05" r="1.67"/>
    <circle class="uuid-4e81f52c-684b-47bb-9133-20b44bd66371" cx="85.59" cy="134.49" r="1.67"/>
    <g>
      <path class="uuid-46df3a83-7491-4db1-9564-54f8a9013ae6" d="M139.1,184.38s.03.06.03.1c0,.05,0,.09-.01.12l-.8,3.05.18-.36c.38-.74.81-1.41,1.32-2.01.5-.61.98-.91,1.43-.91.25,0,.43.08.57.24s.2.35.2.55c0,.23-.07.43-.2.58-.13.15-.32.23-.55.23-.16,0-.28-.03-.37-.09-.08-.06-.15-.14-.19-.22l-.09-.17s-.05-.06-.07-.07-.06-.03-.11-.03c-.2,0-.5.28-.88.85-.38.57-.73,1.18-1.03,1.84-.18.4-.39.93-.61,1.59-.14.42-.33,1.01-.57,1.77h-1.2l1.3-4.7c.07-.27.13-.51.18-.73.04-.21.07-.39.07-.52,0-.16-.04-.28-.12-.36s-.21-.12-.41-.12c-.06,0-.14,0-.23.02s-.21.02-.34.04v-.26l.31-.06c.41-.08.85-.17,1.33-.27.48-.09.74-.14.76-.14.05,0,.08.01.1.04Z"/>
      <path class="uuid-46df3a83-7491-4db1-9564-54f8a9013ae6" d="M147.14,190.68c.32.07.51.11.57.11.11,0,.19-.02.24-.05.05-.04.08-.09.11-.16h.19l-.34,1.86-.16-.02c-.03-.37-.12-.66-.25-.89-.24-.42-.64-.62-1.19-.62-.85,0-1.55.42-2.1,1.28-.48.74-.72,1.54-.72,2.4,0,.64.15,1.12.44,1.45.29.33.67.49,1.12.49s.91-.12,1.3-.35c.23-.14.54-.39.92-.75l.15.13c-.34.43-.72.77-1.15,1.02-.43.25-.9.37-1.42.37-.78,0-1.37-.25-1.79-.74-.42-.49-.62-1.07-.62-1.72,0-.94.35-1.81,1.04-2.61.76-.88,1.69-1.31,2.78-1.31.27,0,.56.04.88.11Z"/>
    </g>
    <g>
      <path class="uuid-a487a404-533f-4f84-b8f4-7fde2cbbcc1d" d="M440.44,283.85c-.08-18.9-5.12-36.62-13.89-51.94"/>
      <polygon class="uuid-8942b95e-6584-4064-901f-55e978145a79" points="442.02 282.48 441.72 282.21 440.42 283.7 439.03 282.3 438.75 282.58 440.44 284.29 442.02 282.48"/>
      <polygon class="uuid-8942b95e-6584-4064-901f-55e978145a79" points="428.61 232.32 428.48 232.7 426.61 232.06 426.11 233.97 425.72 233.86 426.33 231.54 428.61 232.32"/>
    </g>
    <g>
      <path class="uuid-5644839f-294d-4858-8f27-9e7cde0d8a20" d="M240.87,337.8c-8.3-15.73-13.04-33.9-13.04-53.26s5.07-38.78,13.9-54.87"/>
      <polygon class="uuid-056b43b5-4012-4d90-8987-d8bab6cb7a08" points="243.07 332.99 242.1 332.71 240.72 337.44 236.1 335.71 235.75 336.65 241.38 338.75 243.07 332.99"/>
      <polygon class="uuid-056b43b5-4012-4d90-8987-d8bab6cb7a08" points="243.86 234.5 242.89 234.77 241.58 230.02 236.94 231.67 236.6 230.73 242.26 228.71 243.86 234.5"/>
    </g>
  </g>
</svg>