<?xml version="1.0" encoding="UTF-8"?>
<svg xmlns="http://www.w3.org/2000/svg" viewBox="0 0 454.57 365.28">
  <defs>
    <style>
      .uuid-f9b3fb60-10e3-442b-9efb-159243fd1409, .uuid-7d47e1eb-ab81-438b-9f67-feb6d7eb657b, .uuid-26f3cd25-3dc2-4f6d-a5c0-46b1e8712cb9, .uuid-872c9b27-a639-48ba-b8e2-c16b8ebc1ab0, .uuid-c2505c84-f8b8-4dcc-8c49-1c538f09412c, .uuid-2861d70c-96f6-4747-9353-f7773955f44e, .uuid-d8d43bd5-d0a9-4602-9801-b48ee2b8f9ac, .uuid-377f5281-cdcd-4551-9c27-15acde5682f5, .uuid-4487d1b8-fd39-4551-bf0a-1325a2504e5a, .uuid-70fc5550-6075-44b1-b4ea-32666aa1ccc0, .uuid-497a5cda-2dd3-4258-a9cb-57943d5c678c, .uuid-36d43f25-8949-4248-a039-c31ffdd59399, .uuid-1c8fec75-d934-4a39-b79e-40fef06affba {
        fill: none;
      }

      .uuid-7d47e1eb-ab81-438b-9f67-feb6d7eb657b {
        stroke: #0056ff;
      }

      .uuid-7d47e1eb-ab81-438b-9f67-feb6d7eb657b, .uuid-26f3cd25-3dc2-4f6d-a5c0-46b1e8712cb9, .uuid-872c9b27-a639-48ba-b8e2-c16b8ebc1ab0, .uuid-c2505c84-f8b8-4dcc-8c49-1c538f09412c, .uuid-2861d70c-96f6-4747-9353-f7773955f44e, .uuid-d8d43bd5-d0a9-4602-9801-b48ee2b8f9ac, .uuid-377f5281-cdcd-4551-9c27-15acde5682f5, .uuid-4487d1b8-fd39-4551-bf0a-1325a2504e5a, .uuid-70fc5550-6075-44b1-b4ea-32666aa1ccc0, .uuid-497a5cda-2dd3-4258-a9cb-57943d5c678c, .uuid-36d43f25-8949-4248-a039-c31ffdd59399, .uuid-1c8fec75-d934-4a39-b79e-40fef06affba {
        stroke-miterlimit: 10;
      }

      .uuid-7d47e1eb-ab81-438b-9f67-feb6d7eb657b, .uuid-c2505c84-f8b8-4dcc-8c49-1c538f09412c, .uuid-377f5281-cdcd-4551-9c27-15acde5682f5, .uuid-36d43f25-8949-4248-a039-c31ffdd59399 {
        stroke-width: .75px;
      }

      .uuid-26f3cd25-3dc2-4f6d-a5c0-46b1e8712cb9, .uuid-1c8fec75-d934-4a39-b79e-40fef06affba {
        stroke: #e20613;
      }

      .uuid-872c9b27-a639-48ba-b8e2-c16b8ebc1ab0, .uuid-d8d43bd5-d0a9-4602-9801-b48ee2b8f9ac {
        stroke: #008c36;
      }

      .uuid-872c9b27-a639-48ba-b8e2-c16b8ebc1ab0, .uuid-4487d1b8-fd39-4551-bf0a-1325a2504e5a, .uuid-497a5cda-2dd3-4258-a9cb-57943d5c678c {
        stroke-width: .5px;
      }

      .uuid-c2505c84-f8b8-4dcc-8c49-1c538f09412c {
        stroke: red;
      }

      .uuid-2861d70c-96f6-4747-9353-f7773955f44e {
        stroke: #2190ff;
      }

      .uuid-33d16e34-008a-49a6-808f-8f7666d60388 {
        fill: #fbe910;
      }

      .uuid-4d984b00-b94b-4084-a9ec-6879f83b108a {
        fill: #1d1d1b;
      }

      .uuid-d8d43bd5-d0a9-4602-9801-b48ee2b8f9ac, .uuid-1c8fec75-d934-4a39-b79e-40fef06affba {
        stroke-width: 2px;
      }

      .uuid-e72cda03-db86-463f-8c74-fafd560d7088 {
        fill: #575756;
      }

      .uuid-698cf4fa-3ecc-4990-9ef9-0c712439390d, .uuid-1fcb6dd0-6c38-4095-8ee1-badfb73c9275 {
        fill: #e20613;
      }

      .uuid-62b2e033-45c4-468e-828c-5ca70907731d {
        fill: #fff;
      }

      .uuid-ec462832-4816-45c1-a37f-ed8bfd0a3072 {
        fill: #008c36;
      }

      .uuid-377f5281-cdcd-4551-9c27-15acde5682f5, .uuid-4487d1b8-fd39-4551-bf0a-1325a2504e5a, .uuid-70fc5550-6075-44b1-b4ea-32666aa1ccc0 {
        stroke: #1d1d1b;
      }

      .uuid-af1106dd-8c60-4713-92b1-68b0997c5025 {
        fill: #706f6f;
      }

      .uuid-70fc5550-6075-44b1-b4ea-32666aa1ccc0 {
        stroke-width: .25px;
      }

      .uuid-497a5cda-2dd3-4258-a9cb-57943d5c678c {
        stroke: #575756;
        stroke-dasharray: 2 2;
      }

      .uuid-36d43f25-8949-4248-a039-c31ffdd59399 {
        stroke: #3c0;
      }

      .uuid-7ff02dc6-32d6-4c24-8c75-160c2b637a7b {
        fill: red;
      }

      .uuid-26a37377-03a9-4123-a134-4d57d8802fab {
        fill: #f8b133;
      }

      .uuid-946a7c4a-40dc-499a-b565-c032267a417b {
        fill: #dddb00;
        opacity: .4;
      }

      .uuid-1fcb6dd0-6c38-4095-8ee1-badfb73c9275 {
        opacity: .2;
      }

      .uuid-e219dd5b-e23c-4f55-a955-165c1494130f {
        fill: #0056ff;
      }
    </style>
  </defs>
  <rect class="uuid-62b2e033-45c4-468e-828c-5ca70907731d" width="454.57" height="365.28"/>
  <g id="uuid-286be8e5-9581-4917-8c79-40a8a33cf4d7" data-name="fig 8">
    <line class="uuid-70fc5550-6075-44b1-b4ea-32666aa1ccc0" x1="-246.15" y1="153.37" x2="467.66" y2="153.37"/>
    <line class="uuid-70fc5550-6075-44b1-b4ea-32666aa1ccc0" x1="408.31" y1="-15.97" x2="-174.86" y2="320.72"/>
    <polygon class="uuid-f9b3fb60-10e3-442b-9efb-159243fd1409" points="114.95 153.38 114.95 153.38 114.96 153.38 114.95 153.38"/>
    <polygon class="uuid-f9b3fb60-10e3-442b-9efb-159243fd1409" points="114.95 153.38 114.99 154.45 115.02 153.42 114.96 153.38 114.95 153.38"/>
    <polygon class="uuid-f9b3fb60-10e3-442b-9efb-159243fd1409" points="115.02 153.42 115.02 153.42 114.96 153.38 115.02 153.42"/>
    <path class="uuid-33d16e34-008a-49a6-808f-8f7666d60388" d="M391.77-6.44c-57.14-98.97-159.22-155.8-265.59-159.63l-2.32,66.37c80.98,11.39,156.03,57.82,200.08,132.76,34.71,60.37,37.38,136.97.06,201.61-5.94,10.28-12.64,19.85-20,28.66l87.99,49.56c54.92-95.58,58.86-217-.22-319.34Z"/>
    <path class="uuid-26a37377-03a9-4123-a134-4d57d8802fab" d="M-53.25-66.06C-3.12-94.49,52.35-105.72,106.05-101.62l-2.25-64.48c-50.67,1.73-101.66,15.55-148.63,42.67-48.71,28.12-87.19,67.14-114.2,112.18l25.1,15.08c21.02-27.5,47.92-51.32,80.68-69.89Z"/>
    <g>
      <line class="uuid-c2505c84-f8b8-4dcc-8c49-1c538f09412c" x1="138.82" y1="135.89" x2="151.52" y2="135.89"/>
      <line class="uuid-c2505c84-f8b8-4dcc-8c49-1c538f09412c" x1="145.17" y1="129.54" x2="145.17" y2="142.24"/>
    </g>
    <g>
      <line class="uuid-36d43f25-8949-4248-a039-c31ffdd59399" x1="79.01" y1="170.84" x2="91.72" y2="170.84"/>
      <line class="uuid-36d43f25-8949-4248-a039-c31ffdd59399" x1="85.37" y1="164.49" x2="85.37" y2="177.2"/>
    </g>
    <path class="uuid-e219dd5b-e23c-4f55-a955-165c1494130f" d="M100.31,145.72c.44-.11.79-.31,1.04-.61.25-.3.76-1.09,1.53-2.39l5.79-9.91h.44l1.91,11.22c.12.72.27,1.17.44,1.35.17.18.53.29,1.07.34v.32h-4.89v-.32c.59-.06.97-.13,1.14-.21.28-.13.42-.38.42-.75,0-.1,0-.2,0-.31,0-.11-.02-.2-.03-.28l-.42-2.59h-4.23l-1.25,2.23c-.08.15-.16.31-.22.47-.11.3-.16.55-.16.75,0,.25.08.43.26.53.17.1.48.16.92.17v.32h-3.72v-.32ZM108.61,140.86l-.84-5.14-2.88,5.14h3.72Z"/>
    <path class="uuid-7ff02dc6-32d6-4c24-8c75-160c2b637a7b" d="M144.99,125.26c.46-.04.78-.12.96-.25.27-.19.49-.6.67-1.21l2.43-8.77c.06-.22.11-.39.14-.51.06-.3.1-.52.1-.66,0-.34-.11-.57-.32-.69-.22-.12-.62-.19-1.21-.2v-.32h5.12c.87,0,1.64.11,2.3.34,1.12.47,1.67,1.32,1.67,2.54,0,1.01-.46,1.8-1.37,2.36-.5.3-1.19.55-2.07.75.68.26,1.2.54,1.54.85.61.56.92,1.32.92,2.29,0,1.08-.48,1.99-1.44,2.72-.96.73-2.28,1.09-3.95,1.09h-5.48v-.32ZM152.79,123.93c.61-.68.91-1.51.91-2.47,0-1.07-.35-1.77-1.06-2.1-.45-.2-1.36-.31-2.73-.33l-1.25,4.49c-.03.11-.06.22-.08.32s-.03.21-.03.29c0,.36.16.59.49.71.19.07.48.11.88.11,1.3,0,2.26-.34,2.87-1.03ZM150.96,118.39c1.02,0,1.82-.14,2.39-.43.98-.49,1.47-1.39,1.47-2.69,0-.74-.21-1.27-.62-1.57-.42-.31-.96-.46-1.64-.46-.43,0-.72.04-.88.12-.15.08-.26.22-.31.43l-1.28,4.59h.87Z"/>
    <path class="uuid-ec462832-4816-45c1-a37f-ed8bfd0a3072" d="M81.59,154.64c.67.15,1.08.23,1.22.23.24,0,.41-.04.5-.12.1-.08.18-.19.24-.33h.41l-.73,3.95-.35-.05c-.07-.78-.25-1.41-.52-1.89-.51-.88-1.35-1.33-2.53-1.33-1.81,0-3.29.9-4.46,2.71-1.02,1.57-1.53,3.27-1.53,5.1,0,1.36.31,2.39.93,3.09.62.7,1.42,1.05,2.39,1.05s1.93-.25,2.77-.74c.5-.3,1.15-.83,1.95-1.6l.32.28c-.72.92-1.54,1.64-2.45,2.16-.91.53-1.92.79-3.02.79-1.65,0-2.92-.52-3.8-1.57-.88-1.05-1.33-2.26-1.33-3.66,0-2,.74-3.85,2.22-5.54,1.62-1.86,3.59-2.79,5.9-2.79.57,0,1.2.08,1.87.23Z"/>
    <path class="uuid-4d984b00-b94b-4084-a9ec-6879f83b108a" d="M301.19,250.22c.46-.04.78-.12.96-.25.27-.19.49-.6.67-1.21l2.43-8.76c.06-.21.1-.4.14-.55.06-.28.1-.49.1-.63,0-.34-.12-.57-.35-.69s-.63-.18-1.19-.19v-.32h9.87l-.62,3.02-.41-.03c.02-.21.03-.37.03-.48,0-.16,0-.28,0-.36,0-.6-.23-1-.7-1.2-.47-.2-1.44-.3-2.91-.3-.63,0-1.04.03-1.25.09-.21.06-.34.2-.41.44l-1.3,4.6c1.7-.05,2.72-.15,3.08-.31.36-.16.76-.66,1.21-1.53l.35.1-1.49,4.64-.35-.1c.07-.38.12-.64.13-.77s.03-.25.03-.37c0-.45-.19-.74-.57-.87-.24-.08-.72-.13-1.45-.13h-1.13l-1.21,4.41c-.1.34-.15.55-.17.62-.02.07-.02.16-.02.27,0,.35.14.59.44.71.19.08.55.13,1.08.17v.32h-4.98v-.32Z"/>
    <path class="uuid-4d984b00-b94b-4084-a9ec-6879f83b108a" d="M398.51,318.55c.46-.04.78-.12.96-.25.27-.19.49-.6.67-1.21l2.43-8.77c.08-.29.14-.53.18-.72.04-.19.06-.35.06-.49,0-.31-.12-.53-.35-.65-.24-.12-.63-.19-1.2-.2v-.32h9.87l-.62,3.02-.41-.03c.02-.19.03-.38.04-.56,0-.18,0-.24,0-.2.01-.65-.22-1.08-.69-1.28-.47-.2-1.45-.3-2.93-.3-.68,0-1.1.03-1.28.09-.17.06-.29.2-.36.42l-1.29,4.62c1.74-.06,2.79-.17,3.14-.33s.73-.69,1.13-1.6l.37.09-1.36,4.59-.39-.09c.06-.39.1-.62.12-.71.01-.08.02-.18.02-.28,0-.42-.15-.69-.45-.82s-.85-.19-1.64-.19h-1.13l-1.23,4.42c-.04.13-.07.26-.09.38-.02.12-.03.24-.03.36,0,.21.05.36.16.46.2.18.59.27,1.18.27,1.77,0,3.04-.19,3.81-.57s1.53-1.12,2.29-2.21l.32.16-1.24,3.2h-10.07v-.32Z"/>
    <path id="uuid-e075ae26-f93d-4213-a00e-75d58c806357" data-name="cerchio interno 1 corretto" class="uuid-d8d43bd5-d0a9-4602-9801-b48ee2b8f9ac" d="M323.77,33.16c76.21,129.65,30.99,295.44-101.02,370.29-132.01,74.85-326.45,47.44-384.7-91.21C-222.27,168.67-185.26,8.79-53.25-66.06c132.01-74.85,300.81-30.43,377.02,99.22Z"/>
    <circle id="uuid-cd14f794-9b63-402f-a425-19dbef2d3611" data-name="cerchio interno 2" class="uuid-1c8fec75-d934-4a39-b79e-40fef06affba" cx="149.2" cy="133.74" r="201.85"/>
    <circle id="uuid-f1222239-3c23-4ffd-9ffe-f5417a9958a9" data-name="cerchio esterno" class="uuid-2861d70c-96f6-4747-9353-f7773955f44e" cx="114.97" cy="153.37" r="319.62"/>
    <line class="uuid-377f5281-cdcd-4551-9c27-15acde5682f5" x1="115.02" y1="153.42" x2="304" y2="263.33"/>
    <path class="uuid-af1106dd-8c60-4713-92b1-68b0997c5025" d="M160.15,56.28c1.01.03,1.83.39,2.45,1.09.62.69.93,1.6.93,2.71s-.29,1.96-.87,2.65c-.58.69-1.35,1.07-2.32,1.15v3.26h-1.16v-3.26c-.97-.07-1.75-.45-2.34-1.14-.59-.69-.88-1.58-.88-2.65s.31-2.01.94-2.71,1.44-1.06,2.46-1.09l.09-3.12h.64l.07,3.12ZM159.34,56.75c-.6.06-1.08.39-1.46,1-.37.61-.56,1.39-.56,2.33s.17,1.65.51,2.25c.34.6.79.95,1.34,1.05l.16-6.64ZM160.16,56.75l.17,6.64c.56-.11,1.01-.46,1.34-1.06.33-.6.5-1.34.5-2.25s-.19-1.71-.56-2.33c-.38-.61-.86-.95-1.45-1.01Z"/>
    <path class="uuid-af1106dd-8c60-4713-92b1-68b0997c5025" d="M123.81,75.36c1.1,0,1.95.46,2.54,1.37s.89,2.23.89,3.94c0,1.85-.29,3.26-.88,4.24-.59.98-1.43,1.47-2.53,1.47-1.16,0-2.04-.47-2.62-1.4-.58-.94-.88-2.33-.88-4.19,0-1.71.31-3.05.92-4.01s1.47-1.44,2.56-1.44ZM125.66,80.22c0-.07,0-.17,0-.3,0-.13,0-.22,0-.28,0-1.35-.15-2.33-.45-2.96s-.77-.94-1.42-.94-1.16.35-1.47,1.05c-.31.7-.47,1.84-.48,3.42h3.8ZM121.86,80.79v.37c0,1.79.15,3.04.44,3.75s.78,1.07,1.47,1.07,1.2-.35,1.47-1.05c.28-.7.41-2.08.41-4.15h-3.8Z"/>
    <g>
      <path class="uuid-4d984b00-b94b-4084-a9ec-6879f83b108a" d="M244.04,121.8c0-1.25.32-2.24.97-2.95s1.53-1.07,2.65-1.07c1.03,0,1.86.36,2.49,1.07.63.71.94,1.66.94,2.84s-.32,2.18-.96,2.95c-.64.76-1.45,1.15-2.42,1.15-.44,0-.86-.09-1.27-.28-.41-.19-.75-.45-1.04-.79v4.45h-1.37v-7.36ZM247.38,118.22c-.6,0-1.07.26-1.4.79-.33.53-.5,1.27-.5,2.24,0,1.2.21,2.17.63,2.92.42.75.96,1.12,1.62,1.12s1.13-.24,1.44-.73c.32-.48.48-1.22.48-2.21,0-1.25-.21-2.25-.63-3-.42-.75-.97-1.13-1.64-1.13Z"/>
      <path class="uuid-4d984b00-b94b-4084-a9ec-6879f83b108a" d="M264.09,121.26h-7.47v-1.01h7.47v1.01ZM264.09,123.31h-7.47v-1.01h7.47v1.01Z"/>
      <path class="uuid-4d984b00-b94b-4084-a9ec-6879f83b108a" d="M269.78,121.8c0-1.25.32-2.24.97-2.95s1.53-1.07,2.65-1.07c1.03,0,1.86.36,2.49,1.07.63.71.94,1.66.94,2.84s-.32,2.18-.96,2.95c-.64.76-1.45,1.15-2.42,1.15-.44,0-.86-.09-1.27-.28-.41-.19-.75-.45-1.04-.79v4.45h-1.37v-7.36ZM273.11,118.22c-.6,0-1.07.26-1.4.79-.33.53-.5,1.27-.5,2.24,0,1.2.21,2.17.63,2.92.42.75.96,1.12,1.62,1.12s1.13-.24,1.44-.73c.32-.48.48-1.22.48-2.21,0-1.25-.21-2.25-.63-3-.42-.75-.97-1.13-1.64-1.13Z"/>
      <path class="uuid-4d984b00-b94b-4084-a9ec-6879f83b108a" d="M279.67,126.04v-.27c0-.1-.02-.17-.05-.22-.03-.05-.08-.07-.15-.07-.04,0-.09.01-.16.03-.07.02-.15.06-.24.1l-.6.29-.1-.18c.28-.14.59-.3.93-.48.33-.18.73-.41,1.2-.67v5.22c0,.45.05.72.16.82.11.09.38.14.83.14h.15v.19h-3.15v-.19c.55,0,.89-.05,1.01-.16.12-.11.18-.37.18-.8v-3.75Z"/>
      <path class="uuid-4d984b00-b94b-4084-a9ec-6879f83b108a" d="M291.26,121.31h3.17v1.01h-3.17v3.26h-1.01v-3.26h-3.18v-1.01h3.18v-3.26h1.01v3.26Z"/>
      <path class="uuid-4d984b00-b94b-4084-a9ec-6879f83b108a" d="M300.21,121.8c0-1.25.32-2.24.97-2.95s1.53-1.07,2.65-1.07c1.03,0,1.86.36,2.49,1.07.63.71.94,1.66.94,2.84s-.32,2.18-.96,2.95c-.64.76-1.45,1.15-2.42,1.15-.44,0-.86-.09-1.27-.28-.41-.19-.75-.45-1.04-.79v4.45h-1.37v-7.36ZM303.54,118.22c-.6,0-1.07.26-1.4.79-.33.53-.5,1.27-.5,2.24,0,1.2.21,2.17.63,2.92.42.75.96,1.12,1.62,1.12s1.13-.24,1.44-.73c.32-.48.48-1.22.48-2.21,0-1.25-.21-2.25-.63-3-.42-.75-.97-1.13-1.64-1.13Z"/>
      <path class="uuid-4d984b00-b94b-4084-a9ec-6879f83b108a" d="M308.55,126.46l-.2-.03c.13-.58.37-1.03.73-1.34.36-.31.81-.46,1.36-.46.52,0,.93.14,1.24.43.31.29.46.68.46,1.17,0,.37-.11.75-.32,1.12-.21.37-.61.86-1.2,1.46l-1.41,1.44h1.82c.48,0,.8-.05.96-.15.17-.1.31-.28.43-.54l.18.06-.53,1.33h-3.75v-.17l1.01-1.05.09-.1c1.27-1.33,1.91-2.32,1.91-2.97,0-.42-.12-.76-.36-1s-.56-.37-.96-.37c-.34,0-.64.1-.9.3-.26.2-.45.49-.58.86Z"/>
    </g>
    <path class="uuid-af1106dd-8c60-4713-92b1-68b0997c5025" d="M133.41,131.3c.1.12.18.31.24.59l.92-3.22c.03-.09.04-.17.05-.24,0-.07.01-.13.01-.18,0-.21-.04-.33-.11-.39-.08-.05-.19-.08-.33-.08-.09,0-.17,0-.25,0-.08,0-.18.01-.3.02v-.26c.59-.08,1.42-.21,2.47-.41l.07.08-.02.09-1.55,5.65-1.06,3.74c-.02.08-.04.16-.05.23-.01.07-.02.14-.02.19,0,.14.04.24.11.28.07.04.13.06.19.06.15,0,.37-.13.65-.4.16-.16.39-.42.68-.76l.18.17-.11.17c-.2.29-.45.58-.75.88-.54.53-1.03.8-1.46.8-.14,0-.27-.03-.39-.09-.22-.13-.32-.35-.32-.68,0-.11.02-.29.05-.53s.08-.51.14-.79c-.4.61-.83,1.11-1.31,1.49-.47.39-.99.58-1.55.58-.46,0-.86-.16-1.2-.49-.34-.32-.51-.82-.51-1.5,0-1.14.53-2.32,1.58-3.52,1.05-1.2,2.07-1.8,3.07-1.8.42,0,.71.1.89.3ZM129.5,137.14c.15.24.4.36.75.36.75,0,1.47-.6,2.17-1.81.67-1.13,1-2.2,1-3.21,0-.32-.05-.58-.16-.79-.11-.21-.32-.31-.64-.31-.8,0-1.58.64-2.33,1.93-.67,1.15-1.01,2.15-1.01,3,0,.32.07.6.22.84Z"/>
    <path class="uuid-4d984b00-b94b-4084-a9ec-6879f83b108a" d="M198.82,212.46c0-1.25.32-2.24.97-2.95s1.53-1.07,2.65-1.07c1.03,0,1.86.36,2.49,1.07.63.71.94,1.66.94,2.84s-.32,2.18-.96,2.95c-.64.76-1.45,1.15-2.42,1.15-.44,0-.86-.09-1.27-.28-.41-.19-.75-.45-1.04-.79v4.45h-1.37v-7.36ZM202.15,208.88c-.6,0-1.07.26-1.4.79-.33.53-.5,1.27-.5,2.24,0,1.2.21,2.17.63,2.92.42.75.96,1.12,1.62,1.12s1.13-.24,1.44-.73c.32-.48.48-1.22.48-2.21,0-1.25-.21-2.25-.63-3-.42-.75-.97-1.13-1.64-1.13Z"/>
    <g>
      <path class="uuid-ec462832-4816-45c1-a37f-ed8bfd0a3072" d="M174.59,237.55c0-1.09.28-1.94.84-2.57.56-.62,1.33-.93,2.31-.93.9,0,1.62.31,2.16.93.54.62.82,1.44.82,2.47s-.28,1.9-.84,2.56c-.56.67-1.26,1-2.1,1-.38,0-.74-.08-1.1-.25s-.66-.39-.9-.68v3.87h-1.19v-6.4ZM177.49,234.44c-.53,0-.93.23-1.22.69-.29.46-.43,1.11-.43,1.94,0,1.04.18,1.88.55,2.54.37.65.84.98,1.41.98s.98-.21,1.25-.63c.28-.42.41-1.06.41-1.92,0-1.08-.18-1.96-.55-2.61-.36-.66-.84-.98-1.43-.98Z"/>
      <path class="uuid-ec462832-4816-45c1-a37f-ed8bfd0a3072" d="M183.19,241.24v-.23c0-.08-.01-.15-.04-.19-.03-.04-.07-.06-.13-.06-.03,0-.08,0-.14.03-.06.02-.13.05-.21.09l-.52.25-.09-.16c.25-.12.52-.26.8-.42.29-.16.64-.35,1.04-.59v4.54c0,.39.05.63.14.71.09.08.33.12.72.12h.13v.16h-2.73v-.16c.48,0,.77-.05.88-.14.1-.09.16-.32.16-.69v-3.26Z"/>
    </g>
    <g>
      <path class="uuid-ec462832-4816-45c1-a37f-ed8bfd0a3072" d="M99.7,179.35c0-1.09.28-1.94.84-2.57.56-.62,1.33-.93,2.31-.93.9,0,1.62.31,2.16.93.54.62.82,1.44.82,2.47s-.28,1.9-.84,2.56c-.56.67-1.26,1-2.1,1-.38,0-.75-.08-1.1-.25s-.66-.39-.9-.68v3.87h-1.19v-6.4ZM102.6,176.24c-.52,0-.93.23-1.22.69-.29.46-.43,1.11-.43,1.94,0,1.04.18,1.88.55,2.54.37.65.84.98,1.41.98s.98-.21,1.25-.63c.28-.42.41-1.06.41-1.92,0-1.08-.18-1.96-.55-2.61s-.84-.98-1.43-.98Z"/>
      <path class="uuid-ec462832-4816-45c1-a37f-ed8bfd0a3072" d="M106.95,183.4l-.17-.02c.11-.51.32-.9.64-1.16.31-.27.71-.4,1.19-.4.45,0,.81.12,1.08.38s.4.59.4,1.01c0,.32-.09.65-.27.97-.18.32-.53.75-1.04,1.27l-1.22,1.26h1.58c.41,0,.69-.04.84-.13.14-.08.27-.24.38-.47l.16.05-.46,1.16h-3.26v-.15l.88-.91.08-.08c1.11-1.16,1.66-2.02,1.66-2.58,0-.37-.1-.66-.31-.87-.21-.21-.49-.32-.84-.32-.3,0-.56.09-.78.26-.22.18-.39.43-.5.75Z"/>
    </g>
    <g>
      <line class="uuid-7d47e1eb-ab81-438b-9f67-feb6d7eb657b" x1="108.63" y1="153.37" x2="121.33" y2="153.37"/>
      <line class="uuid-7d47e1eb-ab81-438b-9f67-feb6d7eb657b" x1="114.98" y1="147.01" x2="114.98" y2="159.72"/>
    </g>
    <polygon class="uuid-946a7c4a-40dc-499a-b565-c032267a417b" points="114.96 153.38 145.17 135.95 129.11 161.62 114.96 153.38"/>
    <line class="uuid-872c9b27-a639-48ba-b8e2-c16b8ebc1ab0" x1="86.7" y1="196.62" x2="110.45" y2="157.09"/>
    <line class="uuid-872c9b27-a639-48ba-b8e2-c16b8ebc1ab0" x1="102.18" y1="204.79" x2="125.93" y2="165.26"/>
    <line class="uuid-872c9b27-a639-48ba-b8e2-c16b8ebc1ab0" x1="271.05" y1="318.87" x2="302.33" y2="266.82"/>
    <g>
      <line class="uuid-872c9b27-a639-48ba-b8e2-c16b8ebc1ab0" x1="110.28" y1="192.38" x2="287.53" y2="289.29"/>
      <polygon class="uuid-ec462832-4816-45c1-a37f-ed8bfd0a3072" points="110.85 195.49 111.42 195.3 110.48 192.49 113.35 191.77 113.2 191.18 109.71 192.07 110.85 195.49"/>
      <polygon class="uuid-ec462832-4816-45c1-a37f-ed8bfd0a3072" points="284.6 290.49 284.46 289.91 287.32 289.18 286.39 286.38 286.96 286.19 288.1 289.61 284.6 290.49"/>
    </g>
    <g>
      <line class="uuid-872c9b27-a639-48ba-b8e2-c16b8ebc1ab0" x1="102.49" y1="171.1" x2="116.94" y2="178.88"/>
      <polygon class="uuid-ec462832-4816-45c1-a37f-ed8bfd0a3072" points="102.98 173.69 103.45 173.53 102.66 171.19 105.04 170.57 104.92 170.09 102.01 170.84 102.98 173.69"/>
      <polygon class="uuid-ec462832-4816-45c1-a37f-ed8bfd0a3072" points="114.51 179.89 114.38 179.41 116.77 178.79 115.97 176.45 116.45 176.29 117.41 179.14 114.51 179.89"/>
    </g>
    <path class="uuid-ec462832-4816-45c1-a37f-ed8bfd0a3072" d="M126.81,151.94l-.12-.09c-1.13-.74-1.69-1.37-1.69-1.88,0-.31.11-.57.34-.77.23-.21.52-.31.87-.31.4,0,.77.13,1.1.39.33.26.54.58.62.96h-.3c-.12-.32-.32-.57-.58-.76-.26-.19-.54-.28-.84-.28-.19,0-.34.04-.44.12-.11.08-.16.2-.16.35,0,.3.3.64.9,1.02.2.13.36.23.47.31.67.46,1.16.96,1.48,1.49s.48,1.11.48,1.75c0,.77-.22,1.38-.66,1.84s-1.02.69-1.75.69c-.67,0-1.22-.22-1.65-.67-.43-.45-.64-1.02-.64-1.72,0-.73.21-1.33.63-1.79s.97-.69,1.64-.69c.05,0,.1,0,.15.01.04,0,.09.02.14.03ZM127.93,154.66c0-.74-.13-1.33-.4-1.78-.27-.45-.62-.67-1.05-.67-.38,0-.68.16-.9.48s-.32.76-.32,1.34c0,.7.13,1.28.4,1.72.27.44.61.67,1.04.67s.72-.14.93-.43c.2-.29.31-.73.31-1.32Z"/>
    <circle class="uuid-4d984b00-b94b-4084-a9ec-6879f83b108a" cx="393.36" cy="311.34" r="1.67"/>
    <circle class="uuid-4d984b00-b94b-4084-a9ec-6879f83b108a" cx="304" cy="263.33" r="1.67"/>
    <g>
      <line class="uuid-377f5281-cdcd-4551-9c27-15acde5682f5" x1="301.9" y1="268.89" x2="388.03" y2="316.8"/>
      <polygon class="uuid-4d984b00-b94b-4084-a9ec-6879f83b108a" points="302.58 272.78 303.3 272.55 302.15 269.03 305.74 268.15 305.56 267.42 301.19 268.49 302.58 272.78"/>
      <polygon class="uuid-4d984b00-b94b-4084-a9ec-6879f83b108a" points="384.37 318.27 384.19 317.54 387.78 316.66 386.64 313.14 387.35 312.91 388.74 317.2 384.37 318.27"/>
    </g>
    <path class="uuid-4d984b00-b94b-4084-a9ec-6879f83b108a" d="M342.58,303.05h.24c.11.59.23,1.02.38,1.3.27.5.67.75,1.2.75.3,0,.55-.1.75-.32.2-.21.3-.49.3-.83,0-.21-.03-.39-.08-.53-.05-.14-.12-.26-.19-.37l-.61-.9c-.37-.55-.6-.91-.69-1.1-.14-.28-.21-.56-.21-.84,0-.42.15-.8.46-1.12.31-.32.74-.49,1.3-.49.24,0,.51.05.82.14.31.09.52.14.63.14.12,0,.21-.02.27-.07s.11-.11.16-.2h.21l-.3,2.08h-.24c-.06-.47-.16-.83-.29-1.07-.23-.44-.61-.67-1.11-.67-.21,0-.41.07-.58.2-.17.13-.25.33-.25.59,0,.2.04.38.11.53.08.15.25.42.52.81l.52.75c.27.39.46.7.57.94.11.25.17.51.17.79,0,.53-.23.97-.67,1.33-.45.36-.98.54-1.6.54-.2,0-.49-.04-.86-.12-.37-.08-.59-.12-.64-.12-.1,0-.17.02-.22.07-.05.04-.09.11-.13.2h-.24l.29-2.4Z"/>
    <g>
      <path class="uuid-698cf4fa-3ecc-4990-9ef9-0c712439390d" d="M212.88,175.58s.03.06.03.1c0,.05,0,.09-.01.12l-.8,3.05.18-.36c.38-.74.81-1.41,1.32-2.01.5-.61.98-.91,1.43-.91.25,0,.43.08.57.24s.2.35.2.55c0,.23-.07.43-.2.58-.13.15-.32.23-.55.23-.16,0-.28-.03-.37-.09-.08-.06-.15-.14-.19-.22l-.09-.17s-.05-.06-.07-.07-.06-.03-.11-.03c-.2,0-.5.28-.88.85-.38.57-.73,1.18-1.03,1.84-.18.4-.39.93-.61,1.59-.14.42-.33,1.01-.57,1.77h-1.2l1.3-4.7c.07-.27.13-.51.18-.73.04-.21.07-.39.07-.52,0-.16-.04-.28-.12-.36s-.21-.12-.41-.12c-.06,0-.14,0-.23.02s-.21.02-.34.04v-.26l.31-.06c.41-.08.85-.17,1.33-.27.48-.09.74-.14.76-.14.05,0,.08.01.1.04Z"/>
      <path class="uuid-698cf4fa-3ecc-4990-9ef9-0c712439390d" d="M215.65,187.82c.22-.02.37-.06.45-.12.13-.09.23-.28.31-.57l1.14-4.13c.03-.1.05-.18.07-.24.03-.14.05-.24.05-.31,0-.16-.05-.27-.15-.32-.1-.06-.29-.09-.57-.1v-.15h2.41c.41,0,.77.05,1.08.16.53.22.79.62.79,1.19,0,.48-.21.85-.64,1.11-.23.14-.56.26-.97.35.32.12.56.25.72.4.29.26.43.62.43,1.07,0,.51-.23.94-.68,1.28s-1.07.51-1.86.51h-2.58v-.15ZM219.32,187.19c.29-.32.43-.71.43-1.16,0-.5-.17-.83-.5-.99-.21-.09-.64-.15-1.28-.16l-.59,2.11c-.02.05-.03.1-.04.15,0,.05-.01.1-.01.14,0,.17.08.28.23.33.09.03.23.05.42.05.61,0,1.06-.16,1.35-.48ZM218.46,184.59c.48,0,.86-.07,1.13-.2.46-.23.69-.65.69-1.27,0-.35-.1-.6-.29-.74-.2-.14-.45-.22-.77-.22-.2,0-.34.02-.41.06s-.12.11-.15.2l-.6,2.16h.41Z"/>
    </g>
    <polygon class="uuid-1fcb6dd0-6c38-4095-8ee1-badfb73c9275" points="145.17 135.95 304 263.33 129.11 161.62 145.17 135.95"/>
    <line class="uuid-26f3cd25-3dc2-4f6d-a5c0-46b1e8712cb9" x1="145.17" y1="135.95" x2="304" y2="263.33"/>
    <g>
      <path class="uuid-497a5cda-2dd3-4258-a9cb-57943d5c678c" d="M170.81,186.5c-11.32,19.04-32.1,31.81-55.86,31.81-35.86,0-64.93-29.07-64.93-64.93s29.07-64.93,64.93-64.93,64.64,28.78,64.93,64.39"/>
      <polygon class="uuid-e72cda03-db86-463f-8c74-fafd560d7088" points="168.18 186.8 168.31 187.29 170.7 186.65 171.16 189.07 171.65 188.98 171.09 186.03 168.18 186.8"/>
      <polygon class="uuid-e72cda03-db86-463f-8c74-fafd560d7088" points="177.79 151.22 178.14 150.87 179.87 152.63 181.5 150.79 181.87 151.12 179.88 153.37 177.79 151.22"/>
    </g>
    <g>
      <path class="uuid-497a5cda-2dd3-4258-a9cb-57943d5c678c" d="M196.13,200.11c-16.18,28.04-46.47,46.91-81.17,46.91-51.73,0-93.66-41.93-93.66-93.66S63.23,59.71,114.95,59.71s93.36,41.64,93.66,93.11"/>
      <polygon class="uuid-e72cda03-db86-463f-8c74-fafd560d7088" points="193.5 200.45 193.64 200.93 196.01 200.27 196.5 202.69 196.99 202.59 196.39 199.64 193.5 200.45"/>
      <polygon class="uuid-e72cda03-db86-463f-8c74-fafd560d7088" points="206.51 151.22 206.87 150.87 208.59 152.63 210.22 150.79 210.6 151.12 208.61 153.37 206.51 151.22"/>
    </g>
    <g>
      <path class="uuid-4d984b00-b94b-4084-a9ec-6879f83b108a" d="M338.86,32.86c.47-.04.81-.1,1-.2.32-.17.55-.5.68-.98l2.34-8.45c-1.23,0-2.04.09-2.43.28s-.86.75-1.38,1.68l-.28-.05.66-2.46h8.53l-.7,2.61-.28-.04.04-.55c0-.49-.11-.86-.33-1.1s-.66-.36-1.32-.36h-.89l-2.24,7.96c-.05.17-.09.33-.12.46-.05.2-.07.36-.07.48,0,.31.1.51.29.58s.57.12,1.13.14v.26h-4.62v-.26Z"/>
      <path class="uuid-4d984b00-b94b-4084-a9ec-6879f83b108a" d="M346.71,38.3c.22-.02.37-.06.45-.12.13-.09.23-.28.31-.57l1.14-4.13c.03-.1.05-.18.07-.24.03-.14.05-.24.05-.31,0-.16-.05-.27-.15-.32-.1-.06-.29-.09-.57-.1v-.15h2.41c.41,0,.77.05,1.08.16.53.22.79.62.79,1.19,0,.48-.21.85-.64,1.11-.23.14-.56.26-.97.35.32.12.56.25.72.4.29.26.43.62.43,1.07,0,.51-.23.94-.68,1.28s-1.07.51-1.86.51h-2.58v-.15ZM350.38,37.67c.29-.32.43-.71.43-1.16,0-.5-.17-.83-.5-.99-.21-.09-.64-.15-1.28-.16l-.59,2.11c-.02.05-.03.1-.04.15,0,.05-.01.1-.01.14,0,.17.08.28.23.33.09.03.23.05.42.05.61,0,1.06-.16,1.35-.48ZM349.52,35.06c.48,0,.86-.07,1.13-.2.46-.23.69-.65.69-1.27,0-.35-.1-.6-.29-.74-.2-.14-.45-.22-.77-.22-.2,0-.34.02-.41.06s-.12.11-.15.2l-.6,2.16h.41Z"/>
    </g>
    <circle class="uuid-4487d1b8-fd39-4551-bf0a-1325a2504e5a" cx="324.32" cy="33.12" r="9.87"/>
  </g>
</svg>