<?xml version="1.0" encoding="UTF-8"?>
<svg xmlns="http://www.w3.org/2000/svg" viewBox="0 0 480.22 404.26">
  <defs>
    <style>
      .uuid-5ba36b65-adb8-4e26-8e4c-0f5f55184201, .uuid-a825050b-ed2a-4101-a616-d513b15f0cae {
        fill: #1d71b7;
      }

      .uuid-cff9ede0-e67f-4f1f-9341-48d57a601a81 {
        stroke: #063;
        stroke-width: 2px;
      }

      .uuid-cff9ede0-e67f-4f1f-9341-48d57a601a81, .uuid-afa5a430-52bd-4278-b4a0-08f53bae6867, .uuid-be7ce08f-0ae0-42ab-9bd7-e092e9b6f789, .uuid-cbfbe12e-7e14-4d40-a179-3405f801f84d, .uuid-631b5fcb-ff31-4763-8ebc-d51a691d1ae8, .uuid-6c6716e2-c78b-468d-930d-fbf105c45902, .uuid-d6bb7b27-4265-4c7d-bb4f-eaeee9e39daf, .uuid-369e4b2f-6366-4ebc-baed-74c8f76588d0, .uuid-af8e35b2-09f1-43d5-8942-deb1987ef683, .uuid-893deda6-c6fa-4c66-a276-ca1f946b578d, .uuid-0e7262e0-1f6b-4909-b7ee-6ff9841de602, .uuid-2f38ae29-a76f-4fa7-b15a-e5e737b31654, .uuid-70e9b774-428e-4977-9d7d-697d26e45df5, .uuid-173f9bd2-7c10-4366-8a63-40a86f8c419b, .uuid-1d773750-62b6-4777-90e1-42e542433458, .uuid-33efb117-c9a8-49df-b607-053b12b9be00, .uuid-bdbed71b-4743-4d2c-8af4-1c1ce193fb0b, .uuid-c18aff7a-afce-4468-99e2-577f44d99142, .uuid-cce6c941-e288-45f6-ad9c-263b30956219, .uuid-aeb571d0-e7c2-4a5c-b327-e8fa1366b960 {
        fill: none;
        stroke-miterlimit: 10;
      }

      .uuid-afa5a430-52bd-4278-b4a0-08f53bae6867, .uuid-631b5fcb-ff31-4763-8ebc-d51a691d1ae8, .uuid-6c6716e2-c78b-468d-930d-fbf105c45902 {
        stroke: #009540;
      }

      .uuid-afa5a430-52bd-4278-b4a0-08f53bae6867, .uuid-2f38ae29-a76f-4fa7-b15a-e5e737b31654, .uuid-cce6c941-e288-45f6-ad9c-263b30956219 {
        stroke-width: .75px;
      }

      .uuid-be7ce08f-0ae0-42ab-9bd7-e092e9b6f789, .uuid-af8e35b2-09f1-43d5-8942-deb1987ef683, .uuid-893deda6-c6fa-4c66-a276-ca1f946b578d, .uuid-0e7262e0-1f6b-4909-b7ee-6ff9841de602, .uuid-33efb117-c9a8-49df-b607-053b12b9be00, .uuid-bdbed71b-4743-4d2c-8af4-1c1ce193fb0b, .uuid-c18aff7a-afce-4468-99e2-577f44d99142, .uuid-cce6c941-e288-45f6-ad9c-263b30956219, .uuid-aeb571d0-e7c2-4a5c-b327-e8fa1366b960 {
        stroke: #e20613;
      }

      .uuid-cbfbe12e-7e14-4d40-a179-3405f801f84d {
        stroke: #bd1622;
      }

      .uuid-cbfbe12e-7e14-4d40-a179-3405f801f84d, .uuid-d6bb7b27-4265-4c7d-bb4f-eaeee9e39daf, .uuid-70e9b774-428e-4977-9d7d-697d26e45df5, .uuid-1d773750-62b6-4777-90e1-42e542433458 {
        stroke-width: .5px;
      }

      .uuid-cbfbe12e-7e14-4d40-a179-3405f801f84d, .uuid-1d773750-62b6-4777-90e1-42e542433458 {
        stroke-dasharray: 6 4;
      }

      .uuid-631b5fcb-ff31-4763-8ebc-d51a691d1ae8, .uuid-af8e35b2-09f1-43d5-8942-deb1987ef683, .uuid-893deda6-c6fa-4c66-a276-ca1f946b578d, .uuid-0e7262e0-1f6b-4909-b7ee-6ff9841de602, .uuid-33efb117-c9a8-49df-b607-053b12b9be00, .uuid-c18aff7a-afce-4468-99e2-577f44d99142, .uuid-aeb571d0-e7c2-4a5c-b327-e8fa1366b960 {
        stroke-width: .25px;
      }

      .uuid-80622526-0734-42e8-9580-7815fefc9a92 {
        fill: #063;
      }

      .uuid-0d459650-4f6f-41cf-acef-ca7a3fb15195 {
        fill: #bd1622;
      }

      .uuid-03dd1c5e-712d-4dad-80db-11dd5bebd370 {
        fill: #94c01f;
        opacity: .22;
      }

      .uuid-d6bb7b27-4265-4c7d-bb4f-eaeee9e39daf {
        stroke-dasharray: 5.98 3.99;
      }

      .uuid-d6bb7b27-4265-4c7d-bb4f-eaeee9e39daf, .uuid-70e9b774-428e-4977-9d7d-697d26e45df5, .uuid-1d773750-62b6-4777-90e1-42e542433458 {
        stroke: #1d1d1b;
      }

      .uuid-f1009386-a854-4ebf-8f2d-0b2117673f2a, .uuid-c36e423f-9021-4084-9b18-54b7f4725f12 {
        fill: #009540;
      }

      .uuid-f1009386-a854-4ebf-8f2d-0b2117673f2a, .uuid-a825050b-ed2a-4101-a616-d513b15f0cae, .uuid-f5c4ac88-1989-4da2-b4cf-0f2b005647c9 {
        opacity: .2;
      }

      .uuid-822296fa-6e5c-4a8b-9a80-bd0a82fc9271 {
        fill: #1d1d1b;
      }

      .uuid-7a4e781d-0b21-4afc-ae3e-39749648cafa {
        fill: #941b80;
      }

      .uuid-369e4b2f-6366-4ebc-baed-74c8f76588d0, .uuid-2f38ae29-a76f-4fa7-b15a-e5e737b31654 {
        stroke: #1d71b7;
      }

      .uuid-af8e35b2-09f1-43d5-8942-deb1987ef683 {
        stroke-dasharray: 11.85 3.95;
      }

      .uuid-893deda6-c6fa-4c66-a276-ca1f946b578d {
        stroke-dasharray: 11.85 3.95;
      }

      .uuid-0e7262e0-1f6b-4909-b7ee-6ff9841de602 {
        stroke-dasharray: 11.85 3.95;
      }

      .uuid-ecace49b-3f9e-45b7-85b2-db0e9d265a60, .uuid-f5c4ac88-1989-4da2-b4cf-0f2b005647c9 {
        fill: #e20613;
      }

      .uuid-3eb5c205-c52c-4255-a149-0844823b7a45 {
        fill: #fff;
      }

      .uuid-173f9bd2-7c10-4366-8a63-40a86f8c419b {
        stroke: #e5332a;
      }

      .uuid-33efb117-c9a8-49df-b607-053b12b9be00 {
        stroke-dasharray: 11.85 3.95;
      }

      .uuid-bdbed71b-4743-4d2c-8af4-1c1ce193fb0b {
        stroke-dasharray: 6.01 4.01;
      }

      .uuid-c18aff7a-afce-4468-99e2-577f44d99142 {
        stroke-dasharray: 12 4;
      }
    </style>
  </defs>
  <rect class="uuid-3eb5c205-c52c-4255-a149-0844823b7a45" width="480.22" height="404.26"/>
  <g id="uuid-3da8b9e7-eb4c-46b5-b25e-40971fea9557" data-name="costr grafica">
    <path id="uuid-8cfec9d1-b41c-4558-8da6-09dbbc3e1ac4" data-name="bordo esterno" class="uuid-03dd1c5e-712d-4dad-80db-11dd5bebd370" d="M124.93,279.22c-9.26-16.12-14.56-34.8-14.56-54.73,0-60.75,49.25-110,110-110s110,49.25,110,110c0,20.06-5.37,38.86-14.75,55.06l-190.69-.33Z"/>
    <line class="uuid-be7ce08f-0ae0-42ab-9bd7-e092e9b6f789" x1="55.34" y1="319.57" x2="220.56" y2="224.18"/>
    <line class="uuid-be7ce08f-0ae0-42ab-9bd7-e092e9b6f789" x1="385.17" y1="319.25" x2="220.53" y2="224.19"/>
    <g id="uuid-e7050fbb-79c1-4efd-971e-94ff0baec6ee" data-name="guide costruzione">
      <g>
        <line class="uuid-aeb571d0-e7c2-4a5c-b327-e8fa1366b960" x1="78.31" y1="224.18" x2="84.31" y2="224.18"/>
        <line class="uuid-af8e35b2-09f1-43d5-8942-deb1987ef683" x1="88.26" y1="224.18" x2="354.79" y2="224.18"/>
        <line class="uuid-aeb571d0-e7c2-4a5c-b327-e8fa1366b960" x1="356.76" y1="224.18" x2="362.76" y2="224.18"/>
      </g>
      <g>
        <line class="uuid-aeb571d0-e7c2-4a5c-b327-e8fa1366b960" x1="149.43" y1="347.37" x2="152.43" y2="342.17"/>
        <line class="uuid-0e7262e0-1f6b-4909-b7ee-6ff9841de602" x1="154.4" y1="338.75" x2="287.69" y2="107.9"/>
        <line class="uuid-aeb571d0-e7c2-4a5c-b327-e8fa1366b960" x1="288.67" y1="106.19" x2="291.67" y2="100.99"/>
      </g>
      <g>
        <line class="uuid-aeb571d0-e7c2-4a5c-b327-e8fa1366b960" x1="220.55" y1="366.4" x2="220.55" y2="360.4"/>
        <line class="uuid-893deda6-c6fa-4c66-a276-ca1f946b578d" x1="220.55" y1="356.45" x2="220.55" y2="89.92"/>
        <line class="uuid-aeb571d0-e7c2-4a5c-b327-e8fa1366b960" x1="220.55" y1="87.95" x2="220.55" y2="81.95"/>
      </g>
      <g>
        <line class="uuid-aeb571d0-e7c2-4a5c-b327-e8fa1366b960" x1="291.68" y1="347.37" x2="288.68" y2="342.17"/>
        <line class="uuid-33efb117-c9a8-49df-b607-053b12b9be00" x1="286.7" y1="338.75" x2="153.41" y2="107.89"/>
        <line class="uuid-aeb571d0-e7c2-4a5c-b327-e8fa1366b960" x1="152.42" y1="106.18" x2="149.42" y2="100.98"/>
      </g>
      <line class="uuid-c18aff7a-afce-4468-99e2-577f44d99142" x1="220.56" y1="224.18" x2="387.86" y2="127.59"/>
      <line class="uuid-c18aff7a-afce-4468-99e2-577f44d99142" x1="220.57" y1="224.18" x2="55.53" y2="128.89"/>
    </g>
    <g id="uuid-85e378b9-4b62-4636-80f3-83b63e1d6a59" data-name="guida bordo esterno">
      <circle class="uuid-bdbed71b-4743-4d2c-8af4-1c1ce193fb0b" cx="220.38" cy="224.49" r="110"/>
    </g>
    <g id="uuid-a1498d28-142a-46c7-b203-a788fe7fb1cc" data-name="guide 4 porzioni">
      <line class="uuid-369e4b2f-6366-4ebc-baed-74c8f76588d0" x1="343.73" y1="153.06" x2="195.74" y2="238.51"/>
      <line class="uuid-369e4b2f-6366-4ebc-baed-74c8f76588d0" x1="220.56" y1="81.94" x2="220.56" y2="252.83"/>
      <line class="uuid-369e4b2f-6366-4ebc-baed-74c8f76588d0" x1="97.38" y1="153.05" x2="245.37" y2="238.5"/>
    </g>
    <g id="uuid-d1bca567-4cd3-4070-a951-bc6da235a194" data-name="guide 5 porzioni">
      <line class="uuid-6c6716e2-c78b-468d-930d-fbf105c45902" x1="85.25" y1="180.22" x2="247.81" y2="233.04"/>
      <line class="uuid-6c6716e2-c78b-468d-930d-fbf105c45902" x1="162.68" y1="94.21" x2="232.2" y2="250.36"/>
      <line class="uuid-6c6716e2-c78b-468d-930d-fbf105c45902" x1="278.41" y1="94.21" x2="208.89" y2="250.35"/>
      <line class="uuid-6c6716e2-c78b-468d-930d-fbf105c45902" x1="355.85" y1="180.21" x2="193.29" y2="233.02"/>
    </g>
    <path id="uuid-a137fb0d-0c48-430e-b62f-84a8da6e3f14" data-name="cerchio interno 1 corretto" class="uuid-be7ce08f-0ae0-42ab-9bd7-e092e9b6f789" d="M289.15,184.68c25.04,42.59,10.18,97.06-33.19,121.65-43.37,24.59-107.24,15.59-126.38-29.96-19.81-47.16-7.66-99.69,35.71-124.28,43.37-24.59,98.82-10,123.86,32.6Z"/>
    <circle id="uuid-77455050-f0ef-4ecc-a54e-b26b868eafd3" data-name="cerchio interno 2" class="uuid-be7ce08f-0ae0-42ab-9bd7-e092e9b6f789" cx="231.8" cy="217.73" r="66.31"/>
    <circle id="uuid-2d82b707-ccbe-48e5-b4fa-52265e31d855" data-name="cerchio esterno" class="uuid-be7ce08f-0ae0-42ab-9bd7-e092e9b6f789" cx="220.55" cy="224.17" r="105"/>
    <path id="uuid-78ca039e-68b4-4dd9-b91d-378ca6fe1b3f" data-name="riempimento test" class="uuid-f5c4ac88-1989-4da2-b4cf-0f2b005647c9" d="M311.56,276.58c18.04-31.4,19.34-71.29-.07-104.91-28.99-50.22-93.21-67.43-143.43-38.43s-67.43,93.21-38.43,143.43l-.04-.31c-19.81-47.16-7.66-99.69,35.71-124.28,43.37-24.59,98.88-10.03,123.92,32.56,11.4,19.83,12.28,45,.02,66.23-1.95,3.38-4.15,6.52-6.57,9.42l28.91,16.28Z"/>
    <rect class="uuid-a825050b-ed2a-4101-a616-d513b15f0cae" x="276.81" y="175.22" width="42.33" height="4" transform="translate(-48.69 172.73) rotate(-30)"/>
    <rect class="uuid-a825050b-ed2a-4101-a616-d513b15f0cae" x="197.43" y="131.65" width="42.33" height="4" transform="translate(84.95 352.25) rotate(-90)"/>
    <rect class="uuid-a825050b-ed2a-4101-a616-d513b15f0cae" x="120.01" y="178.61" width="42.33" height="4" transform="translate(173.14 407.61) rotate(-150)"/>
    <line class="uuid-cff9ede0-e67f-4f1f-9341-48d57a601a81" x1="142.19" y1="178.88" x2="129.63" y2="171.63"/>
    <line class="uuid-cff9ede0-e67f-4f1f-9341-48d57a601a81" x1="220.6" y1="145.72" x2="220.6" y2="119.16"/>
    <path class="uuid-cff9ede0-e67f-4f1f-9341-48d57a601a81" d="M284.85,187.11l26.66-15.39s-.02-.03-.03-.05"/>
    <path class="uuid-f5c4ac88-1989-4da2-b4cf-0f2b005647c9" d="M135.52,179.65l-7.82-4.52c-16.26,30.85-16.8,69.11,1.92,101.54l-.04-.31c-14.08-33.52-12-69.73,5.94-96.72Z"/>
    <path class="uuid-f5c4ac88-1989-4da2-b4cf-0f2b005647c9" d="M216.6,119.24c-16.55.61-33.21,5.15-48.55,14.01-16.55,9.56-29.52,22.94-38.42,38.39l8.2,4.73c7.04-9.59,16.19-17.88,27.46-24.27,16.15-9.16,33.99-12.88,51.31-11.75v-21.1Z"/>
    <path class="uuid-f5c4ac88-1989-4da2-b4cf-0f2b005647c9" d="M309.44,168.3c-19.78-31.52-53.84-49.09-88.84-49.14v21.52c26.42,2.88,51.23,17.08,66.47,40.53l22.37-12.92Z"/>
    <path class="uuid-f5c4ac88-1989-4da2-b4cf-0f2b005647c9" d="M311.51,171.72l-22.33,12.89s.02.02.02.04c11.4,19.83,12.28,45,.02,66.23-1.95,3.38-4.15,6.52-6.57,9.42l28.91,16.28c18.03-31.38,19.33-71.25-.05-104.86Z"/>
    <rect class="uuid-f1009386-a854-4ebf-8f2d-0b2117673f2a" x="284.88" y="192.35" width="42.33" height="4" transform="translate(-45.08 104.09) rotate(-18)"/>
    <rect class="uuid-f1009386-a854-4ebf-8f2d-0b2117673f2a" x="234.43" y="138.68" width="42.33" height="4" transform="translate(23.11 316.96) rotate(-66)"/>
    <rect class="uuid-f1009386-a854-4ebf-8f2d-0b2117673f2a" x="160.78" y="140.27" width="42.33" height="4" transform="translate(125.98 366.36) rotate(-114)"/>
    <rect class="uuid-f1009386-a854-4ebf-8f2d-0b2117673f2a" x="112.69" y="196.06" width="42.33" height="4" transform="translate(199.95 427.79) rotate(-162)"/>
    <line class="uuid-173f9bd2-7c10-4366-8a63-40a86f8c419b" x1="132.55" y1="195.54" x2="120.71" y2="191.69"/>
    <line class="uuid-173f9bd2-7c10-4366-8a63-40a86f8c419b" x1="186.89" y1="148.45" x2="177.89" y2="128.23"/>
    <line class="uuid-173f9bd2-7c10-4366-8a63-40a86f8c419b" x1="251.3" y1="155.24" x2="263.31" y2="128.27"/>
    <line class="uuid-173f9bd2-7c10-4366-8a63-40a86f8c419b" x1="290.81" y1="201.4" x2="320.44" y2="191.77"/>
    <path class="uuid-f5c4ac88-1989-4da2-b4cf-0f2b005647c9" d="M126.32,197.72l-6.77-2.2c-7.47,26.35-4.7,55.57,10.07,81.16l-.04-.31c-11.13-26.49-12.17-54.67-3.26-78.65Z"/>
    <path class="uuid-f5c4ac88-1989-4da2-b4cf-0f2b005647c9" d="M174.27,129.93c-2.09,1.03-4.17,2.13-6.21,3.31-23.39,13.5-39.61,34.64-47.34,58.45l7.1,2.31c7.24-17.12,19.75-31.85,37.48-41.91,5.09-2.89,10.35-5.23,15.7-7.05l-6.73-15.11Z"/>
    <path class="uuid-f5c4ac88-1989-4da2-b4cf-0f2b005647c9" d="M259.62,126.71c-25.66-10.27-55.13-10.35-81.74,1.52l6.94,15.59c21.83-6.38,44.99-4.31,64.94,5.02l9.85-22.13Z"/>
    <path class="uuid-f5c4ac88-1989-4da2-b4cf-0f2b005647c9" d="M295.59,199.85c4.67,16.58,2.93,34.93-6.36,51.03-1.95,3.38-4.15,6.52-6.57,9.42l28.91,16.28c14.55-25.33,18.2-56.18,8.88-84.81l-24.85,8.08Z"/>
    <path class="uuid-7a4e781d-0b21-4afc-ae3e-39749648cafa" d="M232.56,224.18c0,6.63-5.37,12-12,12s-12-5.37-12-12,5.37-12,12-12,12,5.37,12,12ZM220.56,217.18c-3.87,0-7,3.13-7,7s3.13,7,7,7,7-3.13,7-7-3.13-7-7-7Z"/>
    <polygon class="uuid-7a4e781d-0b21-4afc-ae3e-39749648cafa" points="161.69 224.15 161.69 224.15 211.35 217.48 211.34 230.87 161.69 224.15"/>
    <g id="uuid-0d012610-ee34-4f6c-9f32-1a6ea4de2575" data-name="centro-rotazione">
      <line class="uuid-aeb571d0-e7c2-4a5c-b327-e8fa1366b960" x1="227.39" y1="224.16" x2="190.56" y2="224.16"/>
      <line class="uuid-aeb571d0-e7c2-4a5c-b327-e8fa1366b960" x1="220.55" y1="217.55" x2="220.55" y2="231.36"/>
    </g>
    <g id="uuid-f39f2dcf-dec1-4bd4-87de-553b08e522dd" data-name="centro-display">
      <line id="uuid-63a0c69e-109d-4867-aa2c-6d6564bf464c" data-name="centro-display" class="uuid-631b5fcb-ff31-4763-8ebc-d51a691d1ae8" x1="245.18" y1="224.18" x2="137.72" y2="224.18"/>
      <line id="uuid-2063dce7-a6cd-43e9-b942-c6d4840df67d" data-name="centro-display" class="uuid-631b5fcb-ff31-4763-8ebc-d51a691d1ae8" x1="220.56" y1="117.14" x2="220.56" y2="251.04"/>
    </g>
    <g>
      <path class="uuid-cce6c941-e288-45f6-ad9c-263b30956219" d="M345.2,224.99c-.14,22.17-6.07,42.97-16.35,60.95"/>
      <polygon class="uuid-ecace49b-3f9e-45b7-85b2-db0e9d265a60" points="342.03 227.37 342.56 227.9 345.17 225.28 347.59 228.07 348.16 227.57 345.2 224.17 342.03 227.37"/>
      <polygon class="uuid-ecace49b-3f9e-45b7-85b2-db0e9d265a60" points="327.3 282.29 328.03 282.1 328.96 285.68 332.46 284.48 332.71 285.19 328.44 286.65 327.3 282.29"/>
    </g>
    <g>
      <path class="uuid-afa5a430-52bd-4278-b4a0-08f53bae6867" d="M349.93,182.74c4.18,13.06,6.44,26.98,6.44,41.43,0,24.44-6.46,47.37-17.75,67.18"/>
      <polygon class="uuid-c36e423f-9021-4084-9b18-54b7f4725f12" points="347.71 186.02 348.38 186.35 350 183.02 353.2 184.88 353.58 184.23 349.68 181.97 347.71 186.02"/>
      <polygon class="uuid-c36e423f-9021-4084-9b18-54b7f4725f12" points="337.06 287.71 337.79 287.52 338.73 291.09 342.23 289.9 342.47 290.61 338.21 292.06 337.06 287.71"/>
    </g>
    <g>
      <path class="uuid-2f38ae29-a76f-4fa7-b15a-e5e737b31654" d="M354.23,148.32c12.73,22.38,20,48.27,20,75.86s-7.32,53.66-20.13,76.09"/>
      <polygon class="uuid-5ba36b65-adb8-4e26-8e4c-0f5f55184201" points="352.67 151.97 353.4 152.16 354.34 148.58 357.84 149.79 358.08 149.08 353.83 147.61 352.67 151.97"/>
      <polygon class="uuid-5ba36b65-adb8-4e26-8e4c-0f5f55184201" points="352.55 296.61 353.27 296.42 354.21 300 357.71 298.8 357.95 299.51 353.69 300.97 352.55 296.61"/>
    </g>
    <g>
      <path class="uuid-ecace49b-3f9e-45b7-85b2-db0e9d265a60" d="M353.72,344.15c.3.19,1,.49,1.73.49,1.36,0,1.78-.86,1.76-1.51-.01-1.09-1-1.56-2.01-1.56h-.59v-.79h.59c.77,0,1.74-.4,1.74-1.32,0-.62-.4-1.18-1.37-1.18-.62,0-1.22.28-1.56.52l-.28-.77c.41-.3,1.2-.6,2.04-.6,1.54,0,2.23.91,2.23,1.86,0,.8-.48,1.49-1.44,1.83v.02c.96.19,1.74.91,1.74,2,0,1.25-.97,2.34-2.84,2.34-.88,0-1.64-.28-2.03-.53l.29-.82Z"/>
      <path class="uuid-ecace49b-3f9e-45b7-85b2-db0e9d265a60" d="M364.81,341.38c0,2.65-.98,4.11-2.71,4.11-1.52,0-2.55-1.43-2.58-4.01,0-2.61,1.13-4.05,2.71-4.05s2.58,1.46,2.58,3.95ZM360.57,341.5c0,2.03.62,3.18,1.58,3.18,1.08,0,1.59-1.26,1.59-3.25s-.49-3.18-1.58-3.18c-.92,0-1.59,1.13-1.59,3.25Z"/>
      <path class="uuid-ecace49b-3f9e-45b7-85b2-db0e9d265a60" d="M368.77,338.71c0,.97-.78,1.61-1.61,1.61-.94,0-1.57-.71-1.57-1.55-.01-.92.71-1.62,1.6-1.62.98,0,1.58.74,1.58,1.56ZM366.24,338.77c0,.55.41.98.94.98s.95-.44.95-1.03c0-.44-.26-1.01-.95-1.01-.62,0-.94.54-.94,1.05Z"/>
      <path class="uuid-ecace49b-3f9e-45b7-85b2-db0e9d265a60" d="M374.77,337.04c-.88,1.17-1.51,2.73-1.51,4.91s.66,3.67,1.51,4.87h-.83c-.76-1-1.57-2.53-1.57-4.87.01-2.36.82-3.9,1.57-4.91h.83Z"/>
      <path class="uuid-ecace49b-3f9e-45b7-85b2-db0e9d265a60" d="M381.42,345.1c-.38.19-1.15.38-2.13.38-2.28,0-3.99-1.44-3.99-4.09s1.71-4.25,4.22-4.25c1.01,0,1.64.22,1.92.36l-.25.85c-.4-.19-.96-.34-1.63-.34-1.89,0-3.15,1.21-3.15,3.33,0,1.98,1.14,3.25,3.11,3.25.64,0,1.28-.13,1.7-.34l.22.83Z"/>
      <path class="uuid-ecace49b-3f9e-45b7-85b2-db0e9d265a60" d="M387.82,342.42c0,2.15-1.49,3.08-2.89,3.08-1.57,0-2.78-1.15-2.78-2.99,0-1.94,1.27-3.08,2.88-3.08s2.79,1.21,2.79,2.99ZM383.22,342.47c0,1.27.73,2.23,1.76,2.23s1.76-.95,1.76-2.25c0-.98-.49-2.23-1.74-2.23s-1.79,1.15-1.79,2.25Z"/>
      <path class="uuid-ecace49b-3f9e-45b7-85b2-db0e9d265a60" d="M389.01,344.29c.31.2.86.42,1.39.42.77,0,1.13-.38,1.13-.86s-.3-.78-1.08-1.07c-1.04-.37-1.54-.95-1.54-1.64,0-.94.76-1.7,2-1.7.59,0,1.1.17,1.43.36l-.26.77c-.23-.14-.65-.34-1.19-.34-.62,0-.97.36-.97.79,0,.48.35.7,1.1.98,1.01.38,1.52.89,1.52,1.75,0,1.02-.79,1.74-2.17,1.74-.64,0-1.22-.16-1.63-.4l.26-.8Z"/>
      <path class="uuid-ecace49b-3f9e-45b7-85b2-db0e9d265a60" d="M395.18,337.89v1.67h1.51v.8h-1.51v3.13c0,.72.2,1.13.79,1.13.28,0,.48-.04.61-.07l.05.79c-.2.08-.53.14-.94.14-.49,0-.89-.16-1.14-.44-.3-.31-.41-.83-.41-1.51v-3.17h-.9v-.8h.9v-1.39l1.03-.28Z"/>
      <path class="uuid-ecace49b-3f9e-45b7-85b2-db0e9d265a60" d="M397.88,341.37c0-.68-.01-1.27-.05-1.81h.92l.04,1.14h.05c.26-.78.9-1.27,1.61-1.27.12,0,.2.01.3.04v1c-.11-.02-.22-.04-.36-.04-.74,0-1.27.56-1.42,1.36-.02.14-.05.31-.05.49v3.09h-1.04v-3.99Z"/>
      <path class="uuid-ecace49b-3f9e-45b7-85b2-db0e9d265a60" d="M406.66,343.78c0,.6.01,1.13.05,1.58h-.94l-.06-.95h-.02c-.28.47-.89,1.08-1.92,1.08-.91,0-2-.5-2-2.54v-3.39h1.05v3.21c0,1.1.34,1.85,1.3,1.85.71,0,1.2-.49,1.39-.96.06-.16.1-.35.1-.54v-3.56h1.05v4.22Z"/>
      <path class="uuid-ecace49b-3f9e-45b7-85b2-db0e9d265a60" d="M407.76,344.75l2.63-3.42c.25-.31.49-.59.75-.9v-.02h-3.14v-.85h4.42v.66s-2.6,3.37-2.6,3.37c-.24.32-.48.61-.74.91v.02h3.39v.84h-4.71v-.61Z"/>
      <path class="uuid-ecace49b-3f9e-45b7-85b2-db0e9d265a60" d="M414.73,337.93c.01.36-.25.65-.67.65-.37,0-.64-.29-.64-.65s.28-.66.66-.66.65.29.65.66ZM413.55,345.37v-5.8h1.05v5.8h-1.05Z"/>
      <path class="uuid-ecace49b-3f9e-45b7-85b2-db0e9d265a60" d="M421.61,342.42c0,2.15-1.49,3.08-2.89,3.08-1.57,0-2.78-1.15-2.78-2.99,0-1.94,1.27-3.08,2.88-3.08s2.79,1.21,2.79,2.99ZM417.01,342.47c0,1.27.73,2.23,1.76,2.23s1.76-.95,1.76-2.25c0-.98-.49-2.23-1.74-2.23s-1.79,1.15-1.79,2.25Z"/>
      <path class="uuid-ecace49b-3f9e-45b7-85b2-db0e9d265a60" d="M422.95,341.13c0-.6-.01-1.09-.05-1.57h.94l.06.96h.02c.29-.55.96-1.09,1.92-1.09.8,0,2.05.48,2.05,2.47v3.47h-1.05v-3.35c0-.94-.35-1.72-1.34-1.72-.7,0-1.24.49-1.42,1.08-.05.13-.07.31-.07.49v3.49h-1.05v-4.23Z"/>
      <path class="uuid-ecace49b-3f9e-45b7-85b2-db0e9d265a60" d="M430.19,342.65c.02,1.43.94,2.02,1.99,2.02.76,0,1.21-.13,1.61-.3l.18.75c-.37.17-1.01.36-1.93.36-1.79,0-2.85-1.18-2.85-2.93s1.03-3.13,2.72-3.13c1.89,0,2.4,1.67,2.4,2.73,0,.22-.02.38-.04.49h-4.08ZM433.29,341.9c.01-.67-.28-1.72-1.46-1.72-1.07,0-1.54.98-1.62,1.72h3.08Z"/>
      <path class="uuid-ecace49b-3f9e-45b7-85b2-db0e9d265a60" d="M434.98,346.82c.85-1.19,1.51-2.75,1.51-4.91s-.65-3.68-1.51-4.87h.82c.77.98,1.57,2.52,1.57,4.88s-.8,3.87-1.57,4.89h-.82Z"/>
    </g>
    <g>
      <path class="uuid-ecace49b-3f9e-45b7-85b2-db0e9d265a60" d="M404.59,159.88l-.84,2.54h-1.08l2.75-8.08h1.26l2.76,8.08h-1.12l-.86-2.54h-2.87ZM407.25,159.06l-.79-2.33c-.18-.53-.3-1.01-.42-1.48h-.02c-.12.48-.25.97-.41,1.46l-.79,2.34h2.43Z"/>
      <path class="uuid-ecace49b-3f9e-45b7-85b2-db0e9d265a60" d="M410.56,153.91h1.05v8.52h-1.05v-8.52Z"/>
      <path class="uuid-ecace49b-3f9e-45b7-85b2-db0e9d265a60" d="M414.66,154.95v1.67h1.51v.8h-1.51v3.13c0,.72.2,1.13.79,1.13.28,0,.48-.04.61-.07l.05.79c-.2.08-.53.14-.94.14-.49,0-.89-.16-1.14-.44-.3-.31-.41-.83-.41-1.51v-3.17h-.9v-.8h.9v-1.39l1.03-.28Z"/>
      <path class="uuid-ecace49b-3f9e-45b7-85b2-db0e9d265a60" d="M417.88,159.71c.02,1.43.94,2.02,1.99,2.02.76,0,1.21-.13,1.61-.3l.18.75c-.37.17-1.01.36-1.93.36-1.79,0-2.85-1.18-2.85-2.93s1.03-3.13,2.72-3.13c1.89,0,2.4,1.67,2.4,2.73,0,.22-.02.38-.04.49h-4.08ZM420.97,158.96c.01-.67-.28-1.72-1.46-1.72-1.07,0-1.54.98-1.62,1.72h3.08Z"/>
      <path class="uuid-ecace49b-3f9e-45b7-85b2-db0e9d265a60" d="M422.64,161.81l2.63-3.42c.25-.31.49-.59.75-.9v-.02h-3.14v-.85h4.42v.66s-2.6,3.37-2.6,3.37c-.24.32-.48.61-.74.91v.02h3.39v.84h-4.71v-.61Z"/>
      <path class="uuid-ecace49b-3f9e-45b7-85b2-db0e9d265a60" d="M427.78,161.81l2.63-3.42c.25-.31.49-.59.75-.9v-.02h-3.14v-.85h4.42v.66s-2.6,3.37-2.6,3.37c-.24.32-.48.61-.74.91v.02h3.39v.84h-4.71v-.61Z"/>
      <path class="uuid-ecace49b-3f9e-45b7-85b2-db0e9d265a60" d="M436.79,162.42l-.08-.73h-.04c-.32.46-.95.86-1.78.86-1.17,0-1.77-.83-1.77-1.67,0-1.4,1.25-2.17,3.49-2.16v-.12c0-.48-.13-1.34-1.32-1.34-.54,0-1.1.17-1.51.43l-.24-.7c.48-.31,1.17-.52,1.91-.52,1.78,0,2.21,1.21,2.21,2.37v2.17c0,.5.02,1,.1,1.39h-.96ZM436.63,159.46c-1.15-.02-2.46.18-2.46,1.31,0,.68.46,1.01,1,1.01.76,0,1.24-.48,1.4-.97.04-.11.06-.23.06-.34v-1.01Z"/>
      <path class="uuid-ecace49b-3f9e-45b7-85b2-db0e9d265a60" d="M446.92,153.91v7.02c0,.52.01,1.1.05,1.5h-.95l-.05-1.01h-.02c-.32.65-1.03,1.14-1.98,1.14-1.4,0-2.48-1.19-2.48-2.95-.01-1.93,1.19-3.12,2.6-3.12.89,0,1.49.42,1.75.89h.02v-3.47h1.06ZM445.86,158.98c0-.13-.01-.31-.05-.44-.16-.67-.73-1.22-1.52-1.22-1.09,0-1.74.96-1.74,2.24,0,1.17.58,2.15,1.71,2.15.71,0,1.36-.47,1.55-1.26.04-.14.05-.29.05-.46v-1.01Z"/>
      <path class="uuid-ecace49b-3f9e-45b7-85b2-db0e9d265a60" d="M449.85,154.99c.01.36-.25.65-.67.65-.37,0-.64-.29-.64-.65s.28-.66.66-.66.65.29.65.66ZM448.67,162.42v-5.8h1.05v5.8h-1.05Z"/>
      <path class="uuid-ecace49b-3f9e-45b7-85b2-db0e9d265a60" d="M451.34,161.34c.31.2.86.42,1.39.42.77,0,1.13-.38,1.13-.86s-.3-.78-1.08-1.07c-1.04-.37-1.54-.95-1.54-1.64,0-.94.76-1.7,2-1.7.59,0,1.1.17,1.43.36l-.26.77c-.23-.14-.65-.34-1.19-.34-.62,0-.97.36-.97.79,0,.48.35.7,1.1.98,1.01.38,1.52.89,1.52,1.75,0,1.02-.79,1.74-2.17,1.74-.64,0-1.22-.16-1.63-.4l.26-.8Z"/>
      <path class="uuid-ecace49b-3f9e-45b7-85b2-db0e9d265a60" d="M456.23,158.51c0-.74-.02-1.34-.05-1.89h.95l.05,1h.02c.43-.71,1.12-1.13,2.06-1.13,1.4,0,2.46,1.19,2.46,2.95,0,2.09-1.27,3.12-2.64,3.12-.77,0-1.44-.34-1.79-.91h-.02v3.15h-1.04v-6.29ZM457.27,160.06c0,.16.02.3.05.43.19.73.83,1.24,1.58,1.24,1.12,0,1.76-.91,1.76-2.24,0-1.16-.61-2.16-1.73-2.16-.72,0-1.39.52-1.59,1.31-.04.13-.07.29-.07.43v1Z"/>
      <path class="uuid-ecace49b-3f9e-45b7-85b2-db0e9d265a60" d="M463.06,153.91h1.05v8.52h-1.05v-8.52Z"/>
      <path class="uuid-ecace49b-3f9e-45b7-85b2-db0e9d265a60" d="M469.1,162.42l-.08-.73h-.04c-.32.46-.95.86-1.78.86-1.17,0-1.77-.83-1.77-1.67,0-1.4,1.25-2.17,3.49-2.16v-.12c0-.48-.13-1.34-1.32-1.34-.54,0-1.1.17-1.51.43l-.24-.7c.48-.31,1.17-.52,1.91-.52,1.78,0,2.21,1.21,2.21,2.37v2.17c0,.5.02,1,.1,1.39h-.96ZM468.95,159.46c-1.15-.02-2.46.18-2.46,1.31,0,.68.46,1.01,1,1.01.76,0,1.24-.48,1.4-.97.04-.11.06-.23.06-.34v-1.01Z"/>
      <path class="uuid-ecace49b-3f9e-45b7-85b2-db0e9d265a60" d="M471.96,156.62l1.27,3.43c.13.38.28.84.37,1.19h.02c.11-.35.23-.79.37-1.21l1.15-3.41h1.12l-1.58,4.14c-.75,1.99-1.27,3.01-1.99,3.63-.52.46-1.03.64-1.3.68l-.26-.89c.26-.08.61-.25.92-.52.29-.23.65-.64.89-1.17.05-.11.08-.19.08-.25s-.02-.14-.07-.28l-2.15-5.35h1.15Z"/>
      <path class="uuid-ecace49b-3f9e-45b7-85b2-db0e9d265a60" d="M405.54,168.5c-.88,1.17-1.51,2.73-1.51,4.91s.66,3.67,1.51,4.87h-.83c-.76-1-1.57-2.53-1.57-4.87.01-2.36.82-3.9,1.57-4.91h.83Z"/>
      <path class="uuid-ecace49b-3f9e-45b7-85b2-db0e9d265a60" d="M406.66,172.83c0-.68-.01-1.27-.05-1.81h.92l.04,1.14h.05c.26-.78.9-1.27,1.61-1.27.12,0,.2.01.3.04v1c-.11-.02-.22-.04-.36-.04-.74,0-1.27.56-1.42,1.36-.02.14-.05.31-.05.49v3.09h-1.04v-3.99Z"/>
      <path class="uuid-ecace49b-3f9e-45b7-85b2-db0e9d265a60" d="M416.21,170.44v2.82h2.71v.72h-2.71v2.84h-.77v-2.84h-2.71v-.72h2.71v-2.82h.77Z"/>
      <path class="uuid-ecace49b-3f9e-45b7-85b2-db0e9d265a60" d="M422.82,172.83c0-.68-.01-1.27-.05-1.81h.92l.04,1.14h.05c.26-.78.9-1.27,1.61-1.27.12,0,.2.01.3.04v1c-.11-.02-.22-.04-.36-.04-.74,0-1.27.56-1.42,1.36-.02.14-.05.31-.05.49v3.09h-1.04v-3.99Z"/>
      <path class="uuid-ecace49b-3f9e-45b7-85b2-db0e9d265a60" d="M428.85,173.69c-.01-.71.56-1.26,1.26-1.26s1.26.55,1.26,1.25-.55,1.26-1.26,1.26-1.26-.54-1.26-1.25Z"/>
      <path class="uuid-ecace49b-3f9e-45b7-85b2-db0e9d265a60" d="M435.07,175.74c.31.2.86.42,1.39.42.77,0,1.13-.38,1.13-.86s-.3-.78-1.08-1.07c-1.04-.37-1.54-.95-1.54-1.64,0-.94.76-1.7,2-1.7.59,0,1.1.17,1.43.36l-.26.77c-.23-.14-.65-.34-1.19-.34-.62,0-.97.36-.97.79,0,.48.35.7,1.1.98,1.01.38,1.52.89,1.52,1.75,0,1.02-.79,1.74-2.17,1.74-.64,0-1.22-.16-1.63-.4l.26-.8Z"/>
      <path class="uuid-ecace49b-3f9e-45b7-85b2-db0e9d265a60" d="M441.15,169.39c.01.36-.25.65-.67.65-.37,0-.64-.29-.64-.65s.28-.66.66-.66.65.29.65.66ZM439.97,176.82v-5.8h1.05v5.8h-1.05Z"/>
      <path class="uuid-ecace49b-3f9e-45b7-85b2-db0e9d265a60" d="M442.78,172.59c0-.6-.01-1.09-.05-1.57h.94l.06.96h.02c.29-.55.96-1.09,1.92-1.09.8,0,2.05.48,2.05,2.47v3.47h-1.05v-3.35c0-.94-.35-1.72-1.34-1.72-.7,0-1.24.49-1.42,1.08-.05.13-.07.31-.07.49v3.49h-1.05v-4.23Z"/>
      <path class="uuid-ecace49b-3f9e-45b7-85b2-db0e9d265a60" d="M451.73,168.5c-.88,1.17-1.51,2.73-1.51,4.91s.66,3.67,1.51,4.87h-.83c-.76-1-1.57-2.53-1.57-4.87.01-2.36.82-3.9,1.57-4.91h.83Z"/>
      <path class="uuid-ecace49b-3f9e-45b7-85b2-db0e9d265a60" d="M452.76,175.61c.3.19,1,.49,1.73.49,1.36,0,1.78-.86,1.76-1.51-.01-1.09-1-1.56-2.01-1.56h-.59v-.79h.59c.77,0,1.74-.4,1.74-1.32,0-.62-.4-1.18-1.37-1.18-.62,0-1.22.28-1.56.52l-.28-.77c.41-.3,1.2-.6,2.04-.6,1.54,0,2.23.91,2.23,1.86,0,.8-.48,1.49-1.44,1.83v.02c.96.19,1.74.91,1.74,2,0,1.25-.97,2.34-2.84,2.34-.88,0-1.64-.28-2.03-.53l.29-.82Z"/>
      <path class="uuid-ecace49b-3f9e-45b7-85b2-db0e9d265a60" d="M463.85,172.84c0,2.65-.98,4.11-2.71,4.11-1.52,0-2.55-1.43-2.58-4.01,0-2.61,1.13-4.05,2.71-4.05s2.58,1.46,2.58,3.95ZM459.61,172.96c0,2.03.62,3.18,1.58,3.18,1.08,0,1.59-1.26,1.59-3.25s-.49-3.18-1.58-3.18c-.92,0-1.59,1.13-1.59,3.25Z"/>
      <path class="uuid-ecace49b-3f9e-45b7-85b2-db0e9d265a60" d="M464.52,178.27c.85-1.19,1.51-2.75,1.51-4.91s-.65-3.68-1.51-4.87h.82c.77.98,1.57,2.52,1.57,4.88s-.8,3.87-1.57,4.89h-.82Z"/>
      <path class="uuid-ecace49b-3f9e-45b7-85b2-db0e9d265a60" d="M467.93,178.27c.85-1.19,1.51-2.75,1.51-4.91s-.65-3.68-1.51-4.87h.82c.77.98,1.57,2.52,1.57,4.88s-.8,3.87-1.57,4.89h-.82Z"/>
    </g>
    <g>
      <path class="uuid-822296fa-6e5c-4a8b-9a80-bd0a82fc9271" d="M205.8,383.14v-.65l.83-.8c1.99-1.89,2.89-2.9,2.9-4.08,0-.79-.38-1.52-1.55-1.52-.71,0-1.3.36-1.66.66l-.34-.74c.54-.46,1.31-.79,2.21-.79,1.68,0,2.39,1.15,2.39,2.27,0,1.44-1.04,2.6-2.69,4.19l-.62.58v.02h3.5v.88h-4.98Z"/>
      <path class="uuid-822296fa-6e5c-4a8b-9a80-bd0a82fc9271" d="M211.96,383.14v-.65l.83-.8c1.99-1.89,2.89-2.9,2.9-4.08,0-.79-.38-1.52-1.55-1.52-.71,0-1.3.36-1.66.66l-.34-.74c.54-.46,1.31-.79,2.21-.79,1.68,0,2.39,1.15,2.39,2.27,0,1.44-1.04,2.6-2.69,4.19l-.62.58v.02h3.5v.88h-4.98Z"/>
      <path class="uuid-822296fa-6e5c-4a8b-9a80-bd0a82fc9271" d="M223.29,379.16c0,2.65-.98,4.11-2.71,4.11-1.52,0-2.55-1.43-2.58-4.01,0-2.61,1.13-4.05,2.71-4.05s2.58,1.46,2.58,3.95ZM219.06,379.28c0,2.03.62,3.18,1.58,3.18,1.08,0,1.59-1.26,1.59-3.25s-.49-3.18-1.58-3.18c-.92,0-1.59,1.13-1.59,3.25Z"/>
      <path class="uuid-822296fa-6e5c-4a8b-9a80-bd0a82fc9271" d="M224.6,379.23c0-.74-.02-1.34-.05-1.89h.95l.05,1h.02c.43-.71,1.12-1.13,2.06-1.13,1.4,0,2.46,1.19,2.46,2.95,0,2.09-1.27,3.12-2.64,3.12-.77,0-1.44-.34-1.79-.91h-.02v3.15h-1.04v-6.29ZM225.65,380.78c0,.16.02.3.05.43.19.73.83,1.24,1.58,1.24,1.12,0,1.76-.91,1.76-2.24,0-1.16-.61-2.16-1.73-2.16-.72,0-1.39.52-1.59,1.31-.04.13-.07.29-.07.43v1Z"/>
      <path class="uuid-822296fa-6e5c-4a8b-9a80-bd0a82fc9271" d="M231.76,377.34l.83,1.25c.22.32.4.62.59.95h.04c.19-.35.38-.65.58-.96l.82-1.24h1.14l-1.98,2.81,2.04,3h-1.2l-.85-1.31c-.23-.34-.42-.66-.62-1.01h-.02c-.19.35-.4.66-.61,1.01l-.84,1.31h-1.16l2.06-2.96-1.97-2.84h1.18Z"/>
    </g>
    <g>
      <path class="uuid-0d459650-4f6f-41cf-acef-ca7a3fb15195" d="M41.96,58.12c-.28.14-.89.34-1.67.34-1.75,0-2.89-1.19-2.89-2.96s1.22-3.08,3.12-3.08c.62,0,1.17.16,1.46.3l-.24.82c-.25-.14-.65-.28-1.22-.28-1.33,0-2.05.98-2.05,2.19,0,1.34.86,2.17,2.01,2.17.6,0,1-.16,1.29-.29l.18.79Z"/>
      <path class="uuid-0d459650-4f6f-41cf-acef-ca7a3fb15195" d="M48.38,55.38c0,2.15-1.49,3.08-2.89,3.08-1.57,0-2.78-1.15-2.78-2.99,0-1.94,1.27-3.08,2.88-3.08s2.79,1.21,2.79,2.99ZM43.77,55.44c0,1.27.73,2.23,1.76,2.23s1.76-.95,1.76-2.25c0-.98-.49-2.23-1.74-2.23s-1.79,1.15-1.79,2.25Z"/>
      <path class="uuid-0d459650-4f6f-41cf-acef-ca7a3fb15195" d="M54.97,55.38c0,2.15-1.49,3.08-2.89,3.08-1.57,0-2.78-1.15-2.78-2.99,0-1.94,1.27-3.08,2.88-3.08s2.79,1.21,2.79,2.99ZM50.36,55.44c0,1.27.73,2.23,1.76,2.23s1.76-.95,1.76-2.25c0-.98-.49-2.23-1.74-2.23s-1.79,1.15-1.79,2.25Z"/>
      <path class="uuid-0d459650-4f6f-41cf-acef-ca7a3fb15195" d="M56.3,54.34c0-.68-.01-1.27-.05-1.81h.92l.04,1.14h.05c.26-.78.9-1.27,1.61-1.27.12,0,.2.01.3.04v1c-.11-.02-.22-.04-.36-.04-.74,0-1.27.56-1.42,1.36-.02.14-.05.31-.05.49v3.09h-1.04v-3.99Z"/>
      <path class="uuid-0d459650-4f6f-41cf-acef-ca7a3fb15195" d="M65.12,49.82v7.02c0,.52.01,1.1.05,1.5h-.95l-.05-1.01h-.02c-.32.65-1.03,1.14-1.98,1.14-1.4,0-2.48-1.19-2.48-2.95-.01-1.93,1.19-3.12,2.6-3.12.89,0,1.49.42,1.75.89h.02v-3.47h1.06ZM64.06,54.89c0-.13-.01-.31-.05-.44-.16-.67-.73-1.22-1.52-1.22-1.09,0-1.74.96-1.74,2.24,0,1.17.58,2.15,1.71,2.15.71,0,1.36-.47,1.55-1.26.04-.14.05-.29.05-.46v-1.01Z"/>
      <path class="uuid-0d459650-4f6f-41cf-acef-ca7a3fb15195" d="M66.5,57.71c0-.44.3-.75.72-.75s.71.31.71.75-.28.76-.72.76c-.42,0-.71-.32-.71-.76Z"/>
      <path class="uuid-0d459650-4f6f-41cf-acef-ca7a3fb15195" d="M75.92,58.12c-.28.14-.89.34-1.67.34-1.75,0-2.89-1.19-2.89-2.96s1.22-3.08,3.12-3.08c.62,0,1.17.16,1.46.3l-.24.82c-.25-.14-.65-.28-1.22-.28-1.33,0-2.05.98-2.05,2.19,0,1.34.86,2.17,2.01,2.17.6,0,1-.16,1.29-.29l.18.79Z"/>
      <path class="uuid-0d459650-4f6f-41cf-acef-ca7a3fb15195" d="M77.67,55.62c.02,1.43.94,2.02,1.99,2.02.76,0,1.21-.13,1.61-.3l.18.75c-.37.17-1.01.36-1.93.36-1.79,0-2.85-1.18-2.85-2.93s1.03-3.13,2.72-3.13c1.89,0,2.4,1.67,2.4,2.73,0,.22-.02.38-.04.49h-4.08ZM80.77,54.87c.01-.67-.28-1.72-1.46-1.72-1.07,0-1.54.98-1.62,1.72h3.08Z"/>
      <path class="uuid-0d459650-4f6f-41cf-acef-ca7a3fb15195" d="M83.1,54.1c0-.6-.01-1.09-.05-1.57h.94l.06.96h.02c.29-.55.96-1.09,1.92-1.09.8,0,2.05.48,2.05,2.47v3.47h-1.05v-3.35c0-.94-.35-1.72-1.34-1.72-.7,0-1.24.49-1.42,1.08-.05.13-.07.31-.07.49v3.49h-1.05v-4.23Z"/>
      <path class="uuid-0d459650-4f6f-41cf-acef-ca7a3fb15195" d="M90.98,50.86v1.67h1.51v.8h-1.51v3.13c0,.72.2,1.13.79,1.13.28,0,.48-.04.61-.07l.05.79c-.2.08-.53.14-.94.14-.49,0-.89-.16-1.14-.44-.3-.31-.41-.83-.41-1.51v-3.17h-.9v-.8h.9v-1.39l1.03-.28Z"/>
      <path class="uuid-0d459650-4f6f-41cf-acef-ca7a3fb15195" d="M93.68,54.34c0-.68-.01-1.27-.05-1.81h.92l.04,1.14h.05c.26-.78.9-1.27,1.61-1.27.12,0,.2.01.3.04v1c-.11-.02-.22-.04-.36-.04-.74,0-1.27.56-1.42,1.36-.02.14-.05.31-.05.49v3.09h-1.04v-3.99Z"/>
      <path class="uuid-0d459650-4f6f-41cf-acef-ca7a3fb15195" d="M102.74,55.38c0,2.15-1.49,3.08-2.89,3.08-1.57,0-2.78-1.15-2.78-2.99,0-1.94,1.27-3.08,2.88-3.08s2.79,1.21,2.79,2.99ZM98.13,55.44c0,1.27.73,2.23,1.76,2.23s1.76-.95,1.76-2.25c0-.98-.49-2.23-1.74-2.23s-1.79,1.15-1.79,2.25Z"/>
      <path class="uuid-0d459650-4f6f-41cf-acef-ca7a3fb15195" d="M60.87,64.41c-.88,1.17-1.51,2.73-1.51,4.91s.66,3.67,1.51,4.87h-.83c-.76-1-1.57-2.53-1.57-4.87.01-2.36.82-3.9,1.57-4.91h.83Z"/>
      <path class="uuid-0d459650-4f6f-41cf-acef-ca7a3fb15195" d="M61.59,68.69v-.72h6.19v.72h-6.19ZM61.59,71.04v-.72h6.19v.72h-6.19Z"/>
      <path class="uuid-0d459650-4f6f-41cf-acef-ca7a3fb15195" d="M69.14,68.74c0-.68-.01-1.27-.05-1.81h.92l.04,1.14h.05c.26-.78.9-1.27,1.61-1.27.12,0,.2.01.3.04v1c-.11-.02-.22-.04-.36-.04-.74,0-1.27.56-1.42,1.36-.02.14-.05.31-.05.49v3.09h-1.04v-3.99Z"/>
      <path class="uuid-0d459650-4f6f-41cf-acef-ca7a3fb15195" d="M76.22,72.73l-.08-.73h-.04c-.32.46-.95.86-1.78.86-1.17,0-1.77-.83-1.77-1.67,0-1.4,1.25-2.17,3.49-2.16v-.12c0-.48-.13-1.34-1.32-1.34-.54,0-1.1.17-1.51.43l-.24-.7c.48-.31,1.17-.52,1.91-.52,1.78,0,2.21,1.21,2.21,2.37v2.17c0,.5.02,1,.1,1.39h-.96ZM76.06,69.77c-1.15-.02-2.46.18-2.46,1.31,0,.68.46,1.01,1,1.01.76,0,1.24-.48,1.4-.97.04-.11.06-.23.06-.34v-1.01Z"/>
      <path class="uuid-0d459650-4f6f-41cf-acef-ca7a3fb15195" d="M83.79,66.93c-.02.42-.05.89-.05,1.59v3.37c0,1.33-.26,2.15-.83,2.65-.56.53-1.38.7-2.11.7s-1.46-.17-1.93-.48l.26-.8c.38.24.98.46,1.7.46,1.08,0,1.87-.56,1.87-2.03v-.65h-.02c-.32.54-.95.97-1.85.97-1.44,0-2.47-1.22-2.47-2.83,0-1.97,1.28-3.08,2.61-3.08,1.01,0,1.56.53,1.81,1.01h.02l.05-.88h.92ZM82.7,69.22c0-.18-.01-.34-.06-.48-.19-.61-.71-1.12-1.48-1.12-1.01,0-1.73.85-1.73,2.2,0,1.14.58,2.09,1.71,2.09.65,0,1.24-.41,1.46-1.08.06-.18.08-.38.08-.56v-1.04Z"/>
      <path class="uuid-0d459650-4f6f-41cf-acef-ca7a3fb15195" d="M90.5,66.93c-.02.42-.05.89-.05,1.59v3.37c0,1.33-.26,2.15-.83,2.65-.56.53-1.38.7-2.11.7s-1.46-.17-1.93-.48l.26-.8c.38.24.98.46,1.7.46,1.08,0,1.87-.56,1.87-2.03v-.65h-.02c-.32.54-.95.97-1.85.97-1.44,0-2.47-1.22-2.47-2.83,0-1.97,1.28-3.08,2.61-3.08,1.01,0,1.56.53,1.81,1.01h.02l.05-.88h.92ZM89.41,69.22c0-.18-.01-.34-.06-.48-.19-.61-.71-1.12-1.48-1.12-1.01,0-1.73.85-1.73,2.2,0,1.14.58,2.09,1.71,2.09.65,0,1.24-.41,1.46-1.08.06-.18.08-.38.08-.56v-1.04Z"/>
      <path class="uuid-0d459650-4f6f-41cf-acef-ca7a3fb15195" d="M93.31,65.3c.01.36-.25.65-.67.65-.37,0-.64-.29-.64-.65s.28-.66.66-.66.65.29.65.66ZM92.13,72.73v-5.8h1.05v5.8h-1.05Z"/>
      <path class="uuid-0d459650-4f6f-41cf-acef-ca7a3fb15195" d="M100.19,69.78c0,2.15-1.49,3.08-2.89,3.08-1.57,0-2.78-1.15-2.78-2.99,0-1.94,1.27-3.08,2.88-3.08s2.79,1.21,2.79,2.99ZM95.59,69.84c0,1.27.73,2.23,1.76,2.23s1.76-.95,1.76-2.25c0-.98-.49-2.23-1.74-2.23s-1.79,1.15-1.79,2.25Z"/>
      <path class="uuid-0d459650-4f6f-41cf-acef-ca7a3fb15195" d="M40.91,86.92c-.28.14-.89.34-1.67.34-1.75,0-2.89-1.19-2.89-2.96s1.22-3.08,3.12-3.08c.62,0,1.17.16,1.46.3l-.24.82c-.25-.14-.65-.28-1.22-.28-1.33,0-2.05.98-2.05,2.19,0,1.34.86,2.17,2.01,2.17.6,0,1-.16,1.29-.29l.18.79Z"/>
      <path class="uuid-0d459650-4f6f-41cf-acef-ca7a3fb15195" d="M43.33,79.7c.01.36-.25.65-.67.65-.37,0-.64-.29-.64-.65s.28-.66.66-.66.65.29.65.66ZM42.15,87.13v-5.8h1.05v5.8h-1.05Z"/>
      <path class="uuid-0d459650-4f6f-41cf-acef-ca7a3fb15195" d="M44.96,83.14c0-.68-.01-1.27-.05-1.81h.92l.04,1.14h.05c.26-.78.9-1.27,1.61-1.27.12,0,.2.01.3.04v1c-.11-.02-.22-.04-.36-.04-.74,0-1.27.56-1.42,1.36-.02.14-.05.31-.05.49v3.09h-1.04v-3.99Z"/>
      <path class="uuid-0d459650-4f6f-41cf-acef-ca7a3fb15195" d="M52.9,86.92c-.28.14-.89.34-1.67.34-1.75,0-2.89-1.19-2.89-2.96s1.22-3.08,3.12-3.08c.62,0,1.17.16,1.46.3l-.24.82c-.25-.14-.65-.28-1.22-.28-1.33,0-2.05.98-2.05,2.19,0,1.34.86,2.17,2.01,2.17.6,0,1-.16,1.29-.29l.18.79Z"/>
      <path class="uuid-0d459650-4f6f-41cf-acef-ca7a3fb15195" d="M59.32,84.18c0,2.15-1.49,3.08-2.89,3.08-1.57,0-2.78-1.15-2.78-2.99,0-1.94,1.27-3.08,2.88-3.08s2.79,1.21,2.79,2.99ZM54.72,84.24c0,1.27.73,2.23,1.76,2.23s1.76-.95,1.76-2.25c0-.98-.49-2.23-1.74-2.23s-1.79,1.15-1.79,2.25Z"/>
      <path class="uuid-0d459650-4f6f-41cf-acef-ca7a3fb15195" d="M60.66,82.9c0-.6-.01-1.09-.05-1.57h.94l.06.96h.02c.29-.55.96-1.09,1.92-1.09.8,0,2.05.48,2.05,2.47v3.47h-1.05v-3.35c0-.94-.35-1.72-1.34-1.72-.7,0-1.24.49-1.42,1.08-.05.13-.07.31-.07.49v3.49h-1.05v-4.23Z"/>
      <path class="uuid-0d459650-4f6f-41cf-acef-ca7a3fb15195" d="M67.42,87.13v-5h-.82v-.8h.82v-.28c0-.82.18-1.56.67-2.03.4-.38.92-.54,1.42-.54.37,0,.7.08.9.17l-.14.82c-.16-.07-.37-.13-.67-.13-.9,0-1.13.79-1.13,1.68v.31h1.4v.8h-1.4v5h-1.04Z"/>
      <path class="uuid-0d459650-4f6f-41cf-acef-ca7a3fb15195" d="M71.25,84.42c.02,1.43.94,2.02,1.99,2.02.76,0,1.21-.13,1.61-.3l.18.75c-.37.17-1.01.36-1.93.36-1.79,0-2.85-1.18-2.85-2.93s1.03-3.13,2.72-3.13c1.89,0,2.4,1.67,2.4,2.73,0,.22-.02.38-.04.49h-4.08ZM74.34,83.67c.01-.67-.28-1.71-1.46-1.71-1.07,0-1.54.98-1.62,1.71h3.08Z"/>
      <path class="uuid-0d459650-4f6f-41cf-acef-ca7a3fb15195" d="M76.67,83.14c0-.68-.01-1.27-.05-1.81h.92l.04,1.14h.05c.26-.78.9-1.27,1.61-1.27.12,0,.2.01.3.04v1c-.11-.02-.22-.04-.36-.04-.74,0-1.27.56-1.42,1.36-.02.14-.05.31-.05.49v3.09h-1.04v-3.99Z"/>
      <path class="uuid-0d459650-4f6f-41cf-acef-ca7a3fb15195" d="M81.07,84.42c.02,1.43.94,2.02,1.99,2.02.76,0,1.21-.13,1.61-.3l.18.75c-.37.17-1.01.36-1.93.36-1.79,0-2.85-1.18-2.85-2.93s1.03-3.13,2.72-3.13c1.89,0,2.4,1.67,2.4,2.73,0,.22-.02.38-.04.49h-4.08ZM84.16,83.67c.01-.67-.28-1.71-1.46-1.71-1.07,0-1.54.98-1.62,1.71h3.08Z"/>
      <path class="uuid-0d459650-4f6f-41cf-acef-ca7a3fb15195" d="M86.49,82.9c0-.6-.01-1.09-.05-1.57h.94l.06.96h.02c.29-.55.96-1.09,1.92-1.09.8,0,2.05.48,2.05,2.47v3.47h-1.05v-3.35c0-.94-.35-1.72-1.34-1.72-.7,0-1.24.49-1.42,1.08-.05.13-.07.31-.07.49v3.49h-1.05v-4.23Z"/>
      <path class="uuid-0d459650-4f6f-41cf-acef-ca7a3fb15195" d="M92.49,86.52l2.63-3.42c.25-.31.49-.59.75-.9v-.02h-3.14v-.85h4.42v.66s-2.6,3.37-2.6,3.37c-.24.32-.48.61-.74.91v.02h3.39v.84h-4.71v-.61Z"/>
      <path class="uuid-0d459650-4f6f-41cf-acef-ca7a3fb15195" d="M101.5,87.13l-.08-.73h-.04c-.32.46-.95.86-1.78.86-1.17,0-1.77-.83-1.77-1.67,0-1.4,1.25-2.17,3.49-2.16v-.12c0-.48-.13-1.34-1.32-1.34-.54,0-1.1.17-1.51.43l-.24-.7c.48-.31,1.17-.52,1.91-.52,1.78,0,2.21,1.21,2.21,2.37v2.17c0,.5.02,1,.1,1.39h-.96ZM101.34,84.17c-1.15-.02-2.46.18-2.46,1.31,0,.68.46,1.01,1,1.01.76,0,1.24-.48,1.4-.97.04-.11.06-.23.06-.34v-1.01Z"/>
      <path class="uuid-0d459650-4f6f-41cf-acef-ca7a3fb15195" d="M50.29,101.32c-.28.14-.89.34-1.67.34-1.75,0-2.89-1.19-2.89-2.96s1.22-3.08,3.12-3.08c.62,0,1.17.16,1.46.3l-.24.82c-.25-.14-.65-.28-1.22-.28-1.33,0-2.05.98-2.05,2.19,0,1.34.86,2.17,2.01,2.17.6,0,1-.16,1.29-.29l.18.79Z"/>
      <path class="uuid-0d459650-4f6f-41cf-acef-ca7a3fb15195" d="M52.7,94.1c.01.36-.25.65-.67.65-.37,0-.64-.29-.64-.65s.28-.66.66-.66.65.29.65.66ZM51.52,101.53v-5.8h1.05v5.8h-1.05Z"/>
      <path class="uuid-0d459650-4f6f-41cf-acef-ca7a3fb15195" d="M54.33,97.54c0-.68-.01-1.27-.05-1.81h.92l.04,1.14h.05c.26-.78.9-1.27,1.61-1.27.12,0,.2.01.3.04v1c-.11-.02-.22-.04-.36-.04-.74,0-1.27.56-1.42,1.36-.02.14-.05.31-.05.49v3.09h-1.04v-3.99Z"/>
      <path class="uuid-0d459650-4f6f-41cf-acef-ca7a3fb15195" d="M62.27,101.32c-.28.14-.89.34-1.67.34-1.75,0-2.89-1.19-2.89-2.96s1.22-3.08,3.12-3.08c.62,0,1.17.16,1.46.3l-.24.82c-.25-.14-.65-.28-1.22-.28-1.33,0-2.05.98-2.05,2.19,0,1.34.86,2.17,2.01,2.17.6,0,1-.16,1.29-.29l.18.79Z"/>
      <path class="uuid-0d459650-4f6f-41cf-acef-ca7a3fb15195" d="M68.69,98.58c0,2.15-1.49,3.08-2.89,3.08-1.57,0-2.78-1.15-2.78-2.99,0-1.94,1.27-3.08,2.88-3.08s2.79,1.21,2.79,2.99ZM64.09,98.64c0,1.27.73,2.23,1.76,2.23s1.76-.95,1.76-2.25c0-.98-.49-2.23-1.74-2.23s-1.79,1.15-1.79,2.25Z"/>
      <path class="uuid-0d459650-4f6f-41cf-acef-ca7a3fb15195" d="M69.88,100.45c.31.2.86.42,1.39.42.77,0,1.13-.38,1.13-.86s-.3-.78-1.08-1.07c-1.04-.37-1.54-.95-1.54-1.64,0-.94.76-1.7,2-1.7.59,0,1.1.17,1.43.36l-.26.77c-.23-.14-.65-.34-1.19-.34-.62,0-.97.36-.97.79,0,.48.35.7,1.1.98,1.01.38,1.52.89,1.52,1.75,0,1.02-.79,1.74-2.17,1.74-.64,0-1.22-.16-1.63-.4l.26-.8Z"/>
      <path class="uuid-0d459650-4f6f-41cf-acef-ca7a3fb15195" d="M78.92,101.32c-.28.14-.89.34-1.67.34-1.75,0-2.89-1.19-2.89-2.96s1.22-3.08,3.12-3.08c.62,0,1.17.16,1.46.3l-.24.82c-.25-.14-.65-.28-1.22-.28-1.33,0-2.05.98-2.05,2.19,0,1.34.86,2.17,2.01,2.17.6,0,1-.16,1.29-.29l.18.79Z"/>
      <path class="uuid-0d459650-4f6f-41cf-acef-ca7a3fb15195" d="M80.16,97.54c0-.68-.01-1.27-.05-1.81h.92l.04,1.14h.05c.26-.78.9-1.27,1.61-1.27.12,0,.2.01.3.04v1c-.11-.02-.22-.04-.36-.04-.74,0-1.27.56-1.42,1.36-.02.14-.05.31-.05.49v3.09h-1.04v-3.99Z"/>
      <path class="uuid-0d459650-4f6f-41cf-acef-ca7a3fb15195" d="M85.3,94.1c.01.36-.25.65-.67.65-.37,0-.64-.29-.64-.65s.28-.66.66-.66.65.29.65.66ZM84.13,101.53v-5.8h1.05v5.8h-1.05Z"/>
      <path class="uuid-0d459650-4f6f-41cf-acef-ca7a3fb15195" d="M88.21,94.06v1.67h1.51v.8h-1.51v3.13c0,.72.2,1.13.79,1.13.28,0,.48-.04.61-.07l.05.79c-.2.08-.53.14-.94.14-.49,0-.89-.16-1.14-.44-.3-.31-.41-.83-.41-1.51v-3.17h-.9v-.8h.9v-1.39l1.03-.28Z"/>
      <path class="uuid-0d459650-4f6f-41cf-acef-ca7a3fb15195" d="M92.18,94.06v1.67h1.51v.8h-1.51v3.13c0,.72.2,1.13.79,1.13.28,0,.48-.04.61-.07l.05.79c-.2.08-.53.14-.94.14-.49,0-.89-.16-1.14-.44-.3-.31-.41-.83-.41-1.51v-3.17h-.9v-.8h.9v-1.39l1.03-.28Z"/>
      <path class="uuid-0d459650-4f6f-41cf-acef-ca7a3fb15195" d="M98.09,101.53l-.08-.73h-.04c-.32.46-.95.86-1.78.86-1.17,0-1.77-.83-1.77-1.67,0-1.4,1.25-2.17,3.49-2.16v-.12c0-.48-.13-1.34-1.32-1.34-.54,0-1.1.17-1.51.43l-.24-.7c.48-.31,1.17-.52,1.91-.52,1.78,0,2.21,1.21,2.21,2.37v2.17c0,.5.02,1,.1,1.39h-.96ZM97.94,98.57c-1.15-.02-2.46.18-2.46,1.31,0,.68.46,1.01,1,1.01.76,0,1.24-.48,1.4-.97.04-.11.06-.23.06-.34v-1.01Z"/>
      <path class="uuid-0d459650-4f6f-41cf-acef-ca7a3fb15195" d="M100.03,102.98c.85-1.19,1.51-2.75,1.51-4.91s-.65-3.68-1.51-4.87h.82c.77.98,1.57,2.52,1.57,4.88s-.8,3.87-1.57,4.89h-.82Z"/>
    </g>
    <g>
      <path class="uuid-0d459650-4f6f-41cf-acef-ca7a3fb15195" d="M161.85,16.5h-.02l-1.36.73-.2-.8,1.7-.91h.9v7.8h-1.02v-6.81Z"/>
      <path class="uuid-0d459650-4f6f-41cf-acef-ca7a3fb15195" d="M168.01,16.5h-.02l-1.36.73-.2-.8,1.7-.91h.9v7.8h-1.02v-6.81Z"/>
      <path class="uuid-0d459650-4f6f-41cf-acef-ca7a3fb15195" d="M177.05,19.33c0,2.65-.98,4.11-2.71,4.11-1.52,0-2.55-1.43-2.58-4.01,0-2.61,1.13-4.05,2.71-4.05s2.58,1.46,2.58,3.95ZM172.82,19.45c0,2.03.62,3.18,1.58,3.18,1.08,0,1.59-1.26,1.59-3.25s-.49-3.18-1.58-3.18c-.92,0-1.59,1.13-1.59,3.25Z"/>
    </g>
    <g>
      <path class="uuid-0d459650-4f6f-41cf-acef-ca7a3fb15195" d="M12.89,167.66h-.02l-1.36.73-.2-.8,1.7-.91h.9v7.8h-1.02v-6.81Z"/>
      <path class="uuid-0d459650-4f6f-41cf-acef-ca7a3fb15195" d="M19.05,167.66h-.02l-1.36.73-.2-.8,1.7-.91h.9v7.8h-1.02v-6.81Z"/>
      <path class="uuid-0d459650-4f6f-41cf-acef-ca7a3fb15195" d="M28.1,170.49c0,2.65-.98,4.11-2.71,4.11-1.52,0-2.55-1.43-2.58-4.01,0-2.61,1.13-4.05,2.71-4.05s2.58,1.46,2.58,3.95ZM23.86,170.61c0,2.03.62,3.18,1.58,3.18,1.08,0,1.59-1.26,1.59-3.25s-.49-3.18-1.58-3.18c-.92,0-1.59,1.13-1.59,3.25Z"/>
    </g>
    <g>
      <path class="uuid-822296fa-6e5c-4a8b-9a80-bd0a82fc9271" d="M325.07,80.9v-.65l.83-.8c1.99-1.89,2.89-2.9,2.9-4.08,0-.79-.38-1.52-1.55-1.52-.71,0-1.3.36-1.66.66l-.34-.74c.54-.46,1.31-.79,2.21-.79,1.68,0,2.39,1.15,2.39,2.27,0,1.44-1.04,2.6-2.69,4.19l-.62.58v.02h3.5v.88h-4.98Z"/>
      <path class="uuid-822296fa-6e5c-4a8b-9a80-bd0a82fc9271" d="M334.49,80.9v-2.12h-3.62v-.7l3.48-4.98h1.14v4.85h1.09v.83h-1.09v2.12h-1ZM334.49,77.95v-2.6c0-.41.01-.82.04-1.22h-.04c-.24.46-.43.79-.65,1.15l-1.91,2.65v.02h2.55Z"/>
      <path class="uuid-822296fa-6e5c-4a8b-9a80-bd0a82fc9271" d="M342.57,76.92c0,2.65-.98,4.11-2.71,4.11-1.52,0-2.55-1.43-2.58-4.01,0-2.61,1.13-4.05,2.71-4.05s2.58,1.46,2.58,3.95ZM338.33,77.04c0,2.03.62,3.18,1.58,3.18,1.08,0,1.59-1.26,1.59-3.25s-.49-3.18-1.58-3.18c-.92,0-1.59,1.13-1.59,3.25Z"/>
      <path class="uuid-822296fa-6e5c-4a8b-9a80-bd0a82fc9271" d="M346.53,74.24c0,.97-.78,1.61-1.61,1.61-.94,0-1.57-.71-1.57-1.55-.01-.92.71-1.62,1.6-1.62.98,0,1.58.74,1.58,1.56ZM344,74.3c0,.55.41.98.94.98s.95-.44.95-1.03c0-.44-.26-1.01-.95-1.01-.62,0-.94.54-.94,1.05Z"/>
    </g>
    <g>
      <path class="uuid-80622526-0734-42e8-9580-7815fefc9a92" d="M356.73,366.36v-2.12h-3.62v-.7l3.48-4.98h1.14v4.85h1.09v.83h-1.09v2.12h-1ZM356.73,363.41v-2.6c0-.41.01-.82.04-1.22h-.04c-.24.46-.43.79-.65,1.15l-1.91,2.65v.02h2.55Z"/>
      <path class="uuid-80622526-0734-42e8-9580-7815fefc9a92" d="M359.53,364.38c0-.98.59-1.68,1.55-2.09v-.04c-.88-.41-1.25-1.08-1.25-1.75,0-1.24,1.04-2.08,2.41-2.08,1.51,0,2.27.95,2.27,1.92,0,.66-.32,1.37-1.28,1.82v.04c.97.38,1.57,1.07,1.57,2.01,0,1.36-1.16,2.27-2.65,2.27-1.63,0-2.62-.97-2.62-2.11ZM363.73,364.33c0-.95-.66-1.4-1.71-1.7-.91.26-1.4.86-1.4,1.61-.04.79.56,1.49,1.56,1.49s1.56-.59,1.56-1.39ZM360.82,360.43c0,.78.59,1.2,1.49,1.44.67-.23,1.19-.71,1.19-1.42,0-.62-.37-1.27-1.32-1.27-.88,0-1.36.58-1.36,1.25Z"/>
      <path class="uuid-80622526-0734-42e8-9580-7815fefc9a92" d="M368.77,359.7c0,.97-.78,1.61-1.61,1.61-.94,0-1.57-.71-1.57-1.55-.01-.92.71-1.62,1.6-1.62.98,0,1.58.74,1.58,1.56ZM366.24,359.76c0,.55.41.98.94.98s.95-.44.95-1.03c0-.44-.26-1.01-.95-1.01-.62,0-.94.54-.94,1.05Z"/>
      <path class="uuid-80622526-0734-42e8-9580-7815fefc9a92" d="M374.77,358.03c-.88,1.17-1.51,2.73-1.51,4.91s.66,3.67,1.51,4.87h-.83c-.76-1-1.57-2.53-1.57-4.87.01-2.36.82-3.9,1.57-4.91h.83Z"/>
      <path class="uuid-80622526-0734-42e8-9580-7815fefc9a92" d="M380.2,359.45h-2.97l-.3,2c.18-.02.35-.05.64-.05.6,0,1.2.13,1.68.42.61.35,1.12,1.02,1.12,2,0,1.52-1.21,2.66-2.9,2.66-.85,0-1.57-.24-1.94-.48l.26-.8c.32.19.96.43,1.67.43,1,0,1.85-.65,1.85-1.69-.01-1.01-.68-1.73-2.24-1.73-.44,0-.79.05-1.08.08l.5-3.74h3.73v.89Z"/>
      <path class="uuid-80622526-0734-42e8-9580-7815fefc9a92" d="M384.58,362.45c0-.74-.02-1.34-.05-1.89h.95l.05,1h.02c.43-.71,1.12-1.13,2.06-1.13,1.4,0,2.46,1.19,2.46,2.95,0,2.09-1.27,3.12-2.64,3.12-.77,0-1.44-.34-1.79-.91h-.02v3.15h-1.04v-6.29ZM385.63,363.99c0,.16.02.3.05.43.19.73.83,1.24,1.58,1.24,1.12,0,1.76-.91,1.76-2.24,0-1.16-.61-2.16-1.73-2.16-.72,0-1.39.52-1.59,1.31-.04.13-.07.29-.07.43v1Z"/>
      <path class="uuid-80622526-0734-42e8-9580-7815fefc9a92" d="M396.67,363.41c0,2.15-1.49,3.08-2.89,3.08-1.57,0-2.78-1.15-2.78-2.99,0-1.94,1.27-3.08,2.88-3.08s2.79,1.21,2.79,2.99ZM392.06,363.46c0,1.27.73,2.23,1.76,2.23s1.76-.95,1.76-2.25c0-.98-.49-2.23-1.74-2.23s-1.79,1.15-1.79,2.25Z"/>
      <path class="uuid-80622526-0734-42e8-9580-7815fefc9a92" d="M398,362.36c0-.68-.01-1.27-.05-1.81h.92l.04,1.14h.05c.26-.78.9-1.27,1.61-1.27.12,0,.2.01.3.04v1c-.11-.02-.22-.04-.36-.04-.74,0-1.27.56-1.42,1.36-.02.14-.05.31-.05.49v3.09h-1.04v-3.99Z"/>
      <path class="uuid-80622526-0734-42e8-9580-7815fefc9a92" d="M401.37,365.74l2.63-3.42c.25-.31.49-.59.75-.9v-.02h-3.14v-.85h4.42v.66s-2.6,3.37-2.6,3.37c-.24.32-.48.61-.74.91v.02h3.39v.84h-4.71v-.61Z"/>
      <path class="uuid-80622526-0734-42e8-9580-7815fefc9a92" d="M408.34,358.92c.01.36-.25.65-.67.65-.37,0-.64-.29-.64-.65s.28-.66.66-.66.65.29.65.66ZM407.17,366.36v-5.8h1.05v5.8h-1.05Z"/>
      <path class="uuid-80622526-0734-42e8-9580-7815fefc9a92" d="M415.23,363.41c0,2.15-1.49,3.08-2.89,3.08-1.57,0-2.78-1.15-2.78-2.99,0-1.94,1.27-3.08,2.88-3.08s2.79,1.21,2.79,2.99ZM410.62,363.46c0,1.27.73,2.23,1.76,2.23s1.76-.95,1.76-2.25c0-.98-.49-2.23-1.74-2.23s-1.79,1.15-1.79,2.25Z"/>
      <path class="uuid-80622526-0734-42e8-9580-7815fefc9a92" d="M416.56,362.12c0-.6-.01-1.09-.05-1.57h.94l.06.96h.02c.29-.55.96-1.09,1.92-1.09.8,0,2.05.48,2.05,2.47v3.47h-1.05v-3.35c0-.94-.35-1.72-1.34-1.72-.7,0-1.24.49-1.42,1.08-.05.13-.07.31-.07.49v3.49h-1.05v-4.23Z"/>
      <path class="uuid-80622526-0734-42e8-9580-7815fefc9a92" d="M424.4,358.92c.01.36-.25.65-.67.65-.37,0-.64-.29-.64-.65s.28-.66.66-.66.65.29.65.66ZM423.22,366.36v-5.8h1.05v5.8h-1.05Z"/>
      <path class="uuid-80622526-0734-42e8-9580-7815fefc9a92" d="M425.4,367.81c.85-1.19,1.51-2.75,1.51-4.91s-.65-3.68-1.51-4.87h.82c.77.98,1.57,2.52,1.57,4.88s-.8,3.87-1.57,4.89h-.82Z"/>
    </g>
    <g>
      <path class="uuid-5ba36b65-adb8-4e26-8e4c-0f5f55184201" d="M357.92,381.22c-.22-.01-.49,0-.79.05-1.65.28-2.53,1.49-2.71,2.77h.04c.37-.49,1.02-.9,1.88-.9,1.38,0,2.35,1,2.35,2.52,0,1.43-.97,2.75-2.59,2.75s-2.76-1.29-2.76-3.32c0-1.54.55-2.75,1.32-3.51.65-.64,1.51-1.03,2.5-1.15.31-.05.58-.06.77-.06v.86ZM357.62,385.72c0-1.12-.64-1.79-1.61-1.79-.64,0-1.22.4-1.51.96-.07.12-.12.28-.12.47.02,1.28.61,2.23,1.71,2.23.91,0,1.52-.76,1.52-1.87Z"/>
      <path class="uuid-5ba36b65-adb8-4e26-8e4c-0f5f55184201" d="M364.81,384.29c0,2.65-.98,4.11-2.71,4.11-1.52,0-2.55-1.43-2.58-4.01,0-2.61,1.13-4.05,2.71-4.05s2.58,1.46,2.58,3.95ZM360.57,384.41c0,2.03.62,3.18,1.58,3.18,1.08,0,1.59-1.26,1.59-3.25s-.49-3.18-1.58-3.18c-.92,0-1.59,1.13-1.59,3.25Z"/>
      <path class="uuid-5ba36b65-adb8-4e26-8e4c-0f5f55184201" d="M368.77,381.62c0,.97-.78,1.61-1.61,1.61-.94,0-1.57-.71-1.57-1.55-.01-.92.71-1.62,1.6-1.62.98,0,1.58.74,1.58,1.56ZM366.24,381.67c0,.55.41.98.94.98s.95-.44.95-1.03c0-.44-.26-1.01-.95-1.01-.62,0-.94.54-.94,1.05Z"/>
      <path class="uuid-5ba36b65-adb8-4e26-8e4c-0f5f55184201" d="M374.77,379.95c-.88,1.17-1.51,2.73-1.51,4.91s.66,3.67,1.51,4.87h-.83c-.76-1-1.57-2.53-1.57-4.87.01-2.36.82-3.9,1.57-4.91h.83Z"/>
      <path class="uuid-5ba36b65-adb8-4e26-8e4c-0f5f55184201" d="M378.81,388.27v-2.12h-3.62v-.7l3.48-4.98h1.14v4.85h1.09v.83h-1.09v2.12h-1ZM378.81,385.32v-2.6c0-.41.01-.82.04-1.22h-.04c-.24.46-.43.79-.65,1.15l-1.91,2.65v.02h2.55Z"/>
      <path class="uuid-5ba36b65-adb8-4e26-8e4c-0f5f55184201" d="M384.58,384.36c0-.74-.02-1.34-.05-1.89h.95l.05,1h.02c.43-.71,1.12-1.13,2.06-1.13,1.4,0,2.46,1.19,2.46,2.95,0,2.09-1.27,3.12-2.64,3.12-.77,0-1.44-.34-1.79-.91h-.02v3.15h-1.04v-6.29ZM385.63,385.91c0,.16.02.3.05.43.19.73.83,1.24,1.58,1.24,1.12,0,1.76-.91,1.76-2.24,0-1.16-.61-2.16-1.73-2.16-.72,0-1.39.52-1.59,1.31-.04.13-.07.29-.07.43v1Z"/>
      <path class="uuid-5ba36b65-adb8-4e26-8e4c-0f5f55184201" d="M396.67,385.32c0,2.15-1.49,3.08-2.89,3.08-1.57,0-2.78-1.15-2.78-2.99,0-1.94,1.27-3.08,2.88-3.08s2.79,1.21,2.79,2.99ZM392.06,385.38c0,1.27.73,2.23,1.76,2.23s1.76-.95,1.76-2.25c0-.98-.49-2.23-1.74-2.23s-1.79,1.15-1.79,2.25Z"/>
      <path class="uuid-5ba36b65-adb8-4e26-8e4c-0f5f55184201" d="M398,384.28c0-.68-.01-1.27-.05-1.81h.92l.04,1.14h.05c.26-.78.9-1.27,1.61-1.27.12,0,.2.01.3.04v1c-.11-.02-.22-.04-.36-.04-.74,0-1.27.56-1.42,1.36-.02.14-.05.31-.05.49v3.09h-1.04v-3.99Z"/>
      <path class="uuid-5ba36b65-adb8-4e26-8e4c-0f5f55184201" d="M401.37,387.66l2.63-3.42c.25-.31.49-.59.75-.9v-.02h-3.14v-.85h4.42v.66s-2.6,3.37-2.6,3.37c-.24.32-.48.61-.74.91v.02h3.39v.84h-4.71v-.61Z"/>
      <path class="uuid-5ba36b65-adb8-4e26-8e4c-0f5f55184201" d="M408.34,380.84c.01.36-.25.65-.67.65-.37,0-.64-.29-.64-.65s.28-.66.66-.66.65.29.65.66ZM407.17,388.27v-5.8h1.05v5.8h-1.05Z"/>
      <path class="uuid-5ba36b65-adb8-4e26-8e4c-0f5f55184201" d="M415.23,385.32c0,2.15-1.49,3.08-2.89,3.08-1.57,0-2.78-1.15-2.78-2.99,0-1.94,1.27-3.08,2.88-3.08s2.79,1.21,2.79,2.99ZM410.62,385.38c0,1.27.73,2.23,1.76,2.23s1.76-.95,1.76-2.25c0-.98-.49-2.23-1.74-2.23s-1.79,1.15-1.79,2.25Z"/>
      <path class="uuid-5ba36b65-adb8-4e26-8e4c-0f5f55184201" d="M416.56,384.04c0-.6-.01-1.09-.05-1.57h.94l.06.96h.02c.29-.55.96-1.09,1.92-1.09.8,0,2.05.48,2.05,2.47v3.47h-1.05v-3.35c0-.94-.35-1.72-1.34-1.72-.7,0-1.24.49-1.42,1.08-.05.13-.07.31-.07.49v3.49h-1.05v-4.23Z"/>
      <path class="uuid-5ba36b65-adb8-4e26-8e4c-0f5f55184201" d="M424.4,380.84c.01.36-.25.65-.67.65-.37,0-.64-.29-.64-.65s.28-.66.66-.66.65.29.65.66ZM423.22,388.27v-5.8h1.05v5.8h-1.05Z"/>
      <path class="uuid-5ba36b65-adb8-4e26-8e4c-0f5f55184201" d="M425.4,389.72c.85-1.19,1.51-2.75,1.51-4.91s-.65-3.68-1.51-4.87h.82c.77.98,1.57,2.52,1.57,4.88s-.8,3.87-1.57,4.89h-.82Z"/>
    </g>
    <g>
      <path class="uuid-70e9b774-428e-4977-9d7d-697d26e45df5" d="M73.79,308.27c-.5-.87-.99-1.74-1.47-2.61"/>
      <path class="uuid-d6bb7b27-4265-4c7d-bb4f-eaeee9e39daf" d="M70.44,302.14c-12.14-23.33-19.01-49.85-19.01-77.97,0-93.4,75.72-169.12,169.12-169.12s169.12,75.72,169.12,169.12c0,29.03-7.31,56.35-20.2,80.22"/>
      <path class="uuid-70e9b774-428e-4977-9d7d-697d26e45df5" d="M368.51,306.15c-.49.87-.98,1.74-1.48,2.61"/>
      <path class="uuid-822296fa-6e5c-4a8b-9a80-bd0a82fc9271" d="M74.31,304.11c-.14-.01-.26.09-.27.23l-.28,3.81-3.34-1.87c-.12-.07-.27-.03-.34.1-.07.12-.02.27.1.34l3.68,2.06c.07.04.17.04.24,0s.12-.12.13-.2l.31-4.21s0-.1-.03-.14c-.04-.07-.11-.12-.2-.13Z"/>
      <path class="uuid-822296fa-6e5c-4a8b-9a80-bd0a82fc9271" d="M366.53,304.6c.14,0,.26.09.27.23l.27,3.82,3.34-1.86c.12-.07.27-.02.34.1s.02.27-.1.34l-3.69,2.05c-.07.04-.17.04-.24,0-.08-.04-.12-.12-.13-.2l-.3-4.21s0-.1.03-.14c.04-.07.11-.12.2-.13Z"/>
    </g>
    <g>
      <line class="uuid-1d773750-62b6-4777-90e1-42e542433458" x1="109.99" y1="357.08" x2="109.99" y2="314.6"/>
      <line class="uuid-1d773750-62b6-4777-90e1-42e542433458" x1="331.09" y1="321.85" x2="331.09" y2="357.08"/>
      <g>
        <line class="uuid-1d773750-62b6-4777-90e1-42e542433458" x1="111.03" y1="344.76" x2="331.09" y2="344.76"/>
        <path class="uuid-822296fa-6e5c-4a8b-9a80-bd0a82fc9271" d="M114.45,347.16c.07-.12.04-.27-.08-.35l-3.23-2.05,3.23-2.05c.12-.07.15-.23.08-.35s-.23-.15-.35-.08l-3.56,2.27c-.07.05-.12.13-.12.21s.04.17.12.21l3.56,2.27s.09.04.13.04c.08,0,.16-.04.21-.12Z"/>
        <path class="uuid-822296fa-6e5c-4a8b-9a80-bd0a82fc9271" d="M327.67,347.16c-.07-.12-.04-.27.08-.35l3.23-2.05-3.23-2.05c-.12-.07-.15-.23-.08-.35s.23-.15.35-.08l3.56,2.27c.07.05.12.13.12.21s-.04.17-.12.21l-3.56,2.27s-.09.04-.13.04c-.08,0-.16-.04-.21-.12Z"/>
      </g>
    </g>
    <g>
      <line class="uuid-cbfbe12e-7e14-4d40-a179-3405f801f84d" x1="109.99" y1="172.27" x2="109.99" y2="5.39"/>
      <g>
        <line class="uuid-cbfbe12e-7e14-4d40-a179-3405f801f84d" x1="220.86" y1="7.62" x2="220.86" y2="42.85"/>
        <g>
          <line class="uuid-cbfbe12e-7e14-4d40-a179-3405f801f84d" x1="111.95" y1="30.53" x2="220.57" y2="30.53"/>
          <path class="uuid-0d459650-4f6f-41cf-acef-ca7a3fb15195" d="M115.36,32.93c.07-.12.04-.27-.08-.35l-3.23-2.05,3.23-2.05c.12-.07.15-.23.08-.35s-.23-.15-.35-.08l-3.56,2.27c-.07.05-.12.13-.12.21s.04.17.12.21l3.56,2.27s.09.04.13.04c.08,0,.16-.04.21-.12Z"/>
          <path class="uuid-0d459650-4f6f-41cf-acef-ca7a3fb15195" d="M217.16,32.93c-.07-.12-.04-.27.08-.35l3.23-2.05-3.23-2.05c-.12-.07-.15-.23-.08-.35s.23-.15.35-.08l3.56,2.27c.07.05.12.13.12.21s-.04.17-.12.21l-3.56,2.27s-.09.04-.13.04c-.08,0-.16-.04-.21-.12Z"/>
        </g>
      </g>
    </g>
    <g>
      <line class="uuid-cbfbe12e-7e14-4d40-a179-3405f801f84d" x1="165.31" y1="113.05" x2="8.86" y2="113.05"/>
      <g>
        <line class="uuid-cbfbe12e-7e14-4d40-a179-3405f801f84d" x1="11.09" y1="223.92" x2="46.32" y2="223.92"/>
        <g>
          <line class="uuid-cbfbe12e-7e14-4d40-a179-3405f801f84d" x1="34" y1="115.01" x2="34" y2="223.64"/>
          <path class="uuid-0d459650-4f6f-41cf-acef-ca7a3fb15195" d="M31.6,118.43c.12.07.27.04.35-.08l2.05-3.23,2.05,3.23c.07.12.23.15.35.08s.15-.23.08-.35l-2.27-3.56c-.05-.07-.13-.12-.21-.12s-.17.04-.21.12l-2.27,3.56s-.04.09-.04.13c0,.08.04.16.12.21Z"/>
          <path class="uuid-0d459650-4f6f-41cf-acef-ca7a3fb15195" d="M31.6,220.22c.12-.07.27-.04.35.08l2.05,3.23,2.05-3.23c.07-.12.23-.15.35-.08s.15.23.08.35l-2.27,3.56c-.05.07-.13.12-.21.12s-.17-.04-.21-.12l-2.27-3.56s-.04-.09-.04-.13c0-.08.04-.16.12-.21Z"/>
        </g>
      </g>
    </g>
    <g>
      <line class="uuid-cbfbe12e-7e14-4d40-a179-3405f801f84d" x1="461.12" y1="113.05" x2="294.24" y2="113.05"/>
      <g>
        <line class="uuid-cbfbe12e-7e14-4d40-a179-3405f801f84d" x1="383.81" y1="279.24" x2="410.39" y2="279.24"/>
        <g>
          <line class="uuid-cbfbe12e-7e14-4d40-a179-3405f801f84d" x1="398.07" y1="115.01" x2="398.07" y2="279.11"/>
          <path class="uuid-0d459650-4f6f-41cf-acef-ca7a3fb15195" d="M395.67,118.43c.12.07.27.04.35-.08l2.05-3.23,2.05,3.23c.07.12.23.15.35.08s.15-.23.08-.35l-2.27-3.56c-.05-.07-.13-.12-.21-.12s-.17.04-.21.12l-2.27,3.56s-.04.09-.04.13c0,.08.04.16.12.21Z"/>
          <path class="uuid-0d459650-4f6f-41cf-acef-ca7a3fb15195" d="M395.67,275.7c.12-.07.27-.04.35.08l2.05,3.23,2.05-3.23c.07-.12.23-.15.35-.08s.15.23.08.35l-2.27,3.56c-.05.07-.13.12-.21.12s-.17-.04-.21-.12l-2.27-3.56s-.04-.09-.04-.13c0-.08.04-.16.12-.21Z"/>
        </g>
      </g>
    </g>
  </g>
</svg>