<?xml version="1.0" encoding="UTF-8"?>
<svg xmlns="http://www.w3.org/2000/svg" viewBox="0 0 248.59 184.99">
  <defs>
    <style>
      .uuid-20a7f97a-ec3b-4274-a26e-bcc2165fbe8a {
        stroke: #0056ff;
      }

      .uuid-20a7f97a-ec3b-4274-a26e-bcc2165fbe8a, .uuid-702a56a0-bbb2-4d21-82b0-368aa92ed3f6, .uuid-0012fd27-fd25-46ce-b3d8-f25cf974b5b9, .uuid-0be74c6c-250c-4cab-a911-5ad5d734e702, .uuid-e92fcc3f-57ce-4275-be39-692cfae5dae9, .uuid-932c7bdf-957f-4b83-a33b-d8c6bd2b1005 {
        fill: none;
        stroke-miterlimit: 10;
      }

      .uuid-20a7f97a-ec3b-4274-a26e-bcc2165fbe8a, .uuid-0012fd27-fd25-46ce-b3d8-f25cf974b5b9, .uuid-932c7bdf-957f-4b83-a33b-d8c6bd2b1005 {
        stroke-width: .75px;
      }

      .uuid-702a56a0-bbb2-4d21-82b0-368aa92ed3f6 {
        stroke-dasharray: 1 3;
        stroke-linecap: round;
      }

      .uuid-702a56a0-bbb2-4d21-82b0-368aa92ed3f6, .uuid-0be74c6c-250c-4cab-a911-5ad5d734e702 {
        stroke-width: .25px;
      }

      .uuid-702a56a0-bbb2-4d21-82b0-368aa92ed3f6, .uuid-0be74c6c-250c-4cab-a911-5ad5d734e702, .uuid-e92fcc3f-57ce-4275-be39-692cfae5dae9 {
        stroke: #706f6f;
      }

      .uuid-0012fd27-fd25-46ce-b3d8-f25cf974b5b9 {
        stroke: red;
      }

      .uuid-e7cd47a1-5234-4e98-9d4d-2d0e2f771b4a {
        fill: #871811;
      }

      .uuid-50d08541-db44-4420-9199-76c65fef06c2, .uuid-88598a00-952b-455f-85e2-3df6a909d8eb {
        opacity: .2;
      }

      .uuid-50d08541-db44-4420-9199-76c65fef06c2, .uuid-03245aea-c16c-4999-9399-b7284ca7ac0f {
        fill: red;
      }

      .uuid-88598a00-952b-455f-85e2-3df6a909d8eb, .uuid-642f13fa-3e81-404a-963d-450337d0441e {
        fill: #009540;
      }

      .uuid-e1b07331-acad-4595-8be4-59ed34ca6e98 {
        fill: #575756;
      }

      .uuid-b3201044-da32-46ae-b3cb-8a0a488ebb0d {
        fill: #e20613;
      }

      .uuid-ce69107e-2bd4-489c-89cd-a690175ef9be {
        fill: #fff;
      }

      .uuid-240123c4-fcb2-436f-b6bd-21c926b9aa01 {
        fill: #008c36;
      }

      .uuid-3f7f4cb4-cfa2-4ffb-86ea-6d8a85d6e262 {
        fill: #706f6f;
      }

      .uuid-e92fcc3f-57ce-4275-be39-692cfae5dae9 {
        stroke-width: .5px;
      }

      .uuid-932c7bdf-957f-4b83-a33b-d8c6bd2b1005 {
        stroke: #3c0;
      }

      .uuid-f384293f-9b5b-4b26-977e-4bc05b6f923a {
        fill: #0056ff;
      }
    </style>
  </defs>
  <rect class="uuid-ce69107e-2bd4-489c-89cd-a690175ef9be" width="248.59" height="184.99"/>
  <g id="uuid-47c24954-6f43-4fef-b20f-296decdebc17" data-name="calcolo centri">
    <polygon class="uuid-50d08541-db44-4420-9199-76c65fef06c2" points="116.48 107.01 174.75 73.36 174.75 107.01 116.48 107.01"/>
    <polygon class="uuid-88598a00-952b-455f-85e2-3df6a909d8eb" points="56.86 142.2 56.86 107.01 116.48 107.01 56.86 142.2"/>
    <line class="uuid-0be74c6c-250c-4cab-a911-5ad5d734e702" x1="266.83" y1="20.24" x2="-18.53" y2="184.99"/>
    <line class="uuid-702a56a0-bbb2-4d21-82b0-368aa92ed3f6" x1="83.11" y1="49.41" x2="143.99" y2="154.86"/>
    <line class="uuid-702a56a0-bbb2-4d21-82b0-368aa92ed3f6" x1="23.67" y1="83.73" x2="84.55" y2="189.18"/>
    <line class="uuid-702a56a0-bbb2-4d21-82b0-368aa92ed3f6" x1="141.47" y1="15.72" x2="202.35" y2="121.17"/>
    <g>
      <line class="uuid-20a7f97a-ec3b-4274-a26e-bcc2165fbe8a" x1="110.09" y1="107.01" x2="122.88" y2="107.01"/>
      <line class="uuid-20a7f97a-ec3b-4274-a26e-bcc2165fbe8a" x1="116.48" y1="100.61" x2="116.48" y2="113.4"/>
    </g>
    <g>
      <line class="uuid-0012fd27-fd25-46ce-b3d8-f25cf974b5b9" x1="168.65" y1="73.46" x2="181.45" y2="73.46"/>
      <line class="uuid-0012fd27-fd25-46ce-b3d8-f25cf974b5b9" x1="175.05" y1="67.06" x2="175.05" y2="79.86"/>
    </g>
    <g>
      <line class="uuid-932c7bdf-957f-4b83-a33b-d8c6bd2b1005" x1="50.46" y1="142.2" x2="63.25" y2="142.2"/>
      <line class="uuid-932c7bdf-957f-4b83-a33b-d8c6bd2b1005" x1="56.86" y1="135.8" x2="56.86" y2="148.59"/>
    </g>
    <path class="uuid-f384293f-9b5b-4b26-977e-4bc05b6f923a" d="M107.17,94.38c.57-.14,1.02-.41,1.35-.79.33-.38.99-1.42,1.97-3.09l7.49-12.83h.56l2.47,14.52c.16.94.35,1.52.56,1.75.22.23.68.38,1.39.45v.41h-6.33v-.41c.76-.08,1.25-.17,1.48-.28.36-.17.54-.49.54-.98,0-.12,0-.26-.01-.4,0-.14-.02-.26-.04-.36l-.55-3.36h-5.48l-1.61,2.88c-.11.19-.2.4-.29.61-.14.38-.21.71-.21.96,0,.33.11.56.33.69s.62.21,1.18.23v.41h-4.81v-.41ZM117.91,88.08l-1.09-6.65-3.73,6.65h4.82Z"/>
    <path class="uuid-03245aea-c16c-4999-9399-b7284ca7ac0f" d="M174.51,61.53c.6-.05,1.01-.16,1.24-.33.35-.25.64-.77.86-1.57l3.14-11.35c.08-.28.14-.5.18-.66.08-.38.12-.67.12-.85,0-.43-.14-.73-.42-.89-.28-.16-.8-.25-1.57-.26v-.41h6.63c1.13,0,2.12.15,2.98.44,1.44.61,2.17,1.7,2.17,3.28,0,1.31-.59,2.33-1.77,3.06-.64.39-1.54.71-2.68.96.88.33,1.55.7,1.99,1.1.79.73,1.19,1.71,1.19,2.96,0,1.4-.62,2.58-1.87,3.52s-2.95,1.42-5.11,1.42h-7.09v-.41ZM184.61,59.8c.79-.89,1.18-1.95,1.18-3.2,0-1.39-.46-2.29-1.38-2.72-.58-.26-1.76-.4-3.53-.43l-1.62,5.81c-.04.14-.08.28-.1.42-.02.14-.04.26-.04.38,0,.46.21.76.64.92.24.09.62.14,1.14.14,1.69,0,2.92-.44,3.71-1.33ZM182.24,52.64c1.32,0,2.36-.18,3.1-.55,1.27-.63,1.9-1.8,1.9-3.48,0-.96-.27-1.64-.81-2.04-.54-.4-1.25-.59-2.12-.59-.56,0-.94.05-1.13.16-.2.1-.33.29-.41.56l-1.66,5.94h1.12Z"/>
    <path class="uuid-240123c4-fcb2-436f-b6bd-21c926b9aa01" d="M64.69,152.53c.87.2,1.39.3,1.58.3.31,0,.53-.05.65-.15s.23-.24.31-.43h.53l-.94,5.11-.45-.06c-.09-1.01-.32-1.83-.68-2.44-.66-1.14-1.75-1.72-3.27-1.72-2.34,0-4.26,1.17-5.78,3.51-1.32,2.03-1.98,4.23-1.98,6.6,0,1.76.4,3.1,1.2,4,.8.9,1.83,1.35,3.1,1.35s2.5-.32,3.58-.95c.64-.38,1.48-1.07,2.52-2.07l.41.36c-.94,1.19-1.99,2.12-3.18,2.8-1.18.68-2.48,1.02-3.9,1.02-2.14,0-3.78-.68-4.92-2.03s-1.72-2.93-1.72-4.74c0-2.59.96-4.98,2.87-7.17,2.1-2.41,4.64-3.61,7.64-3.61.74,0,1.55.1,2.42.3Z"/>
    <g>
      <path class="uuid-3f7f4cb4-cfa2-4ffb-86ea-6d8a85d6e262" d="M114.7,24.19c.16.18.29.5.38.94l1.47-5.14c.04-.14.07-.27.08-.38.01-.11.02-.21.02-.29,0-.33-.06-.53-.18-.61-.12-.08-.29-.12-.52-.12-.14,0-.27,0-.4.01-.12,0-.28.02-.48.04v-.41c.95-.13,2.26-.34,3.94-.65l.11.13-.03.14-2.47,9.01-1.68,5.96c-.03.13-.06.26-.08.37-.02.11-.03.22-.03.31,0,.23.06.38.17.44s.21.1.29.1c.25,0,.59-.21,1.04-.64.26-.26.62-.66,1.08-1.21l.29.28-.18.26c-.31.46-.71.93-1.2,1.41-.87.85-1.64,1.27-2.33,1.27-.23,0-.43-.05-.62-.15-.34-.2-.52-.56-.52-1.08,0-.18.03-.46.08-.84.05-.38.13-.8.23-1.26-.64.97-1.33,1.76-2.09,2.38-.76.62-1.58.93-2.48.93-.73,0-1.36-.26-1.91-.78-.54-.52-.82-1.31-.82-2.39,0-1.82.84-3.69,2.52-5.61,1.67-1.91,3.3-2.87,4.89-2.87.66,0,1.13.16,1.41.48ZM108.45,33.49c.23.38.63.57,1.19.57,1.2,0,2.34-.96,3.45-2.88,1.06-1.8,1.59-3.51,1.59-5.12,0-.51-.08-.93-.25-1.26-.17-.33-.51-.5-1.02-.5-1.28,0-2.51,1.03-3.71,3.08-1.07,1.83-1.6,3.43-1.6,4.78,0,.51.12.95.35,1.33Z"/>
      <path class="uuid-3f7f4cb4-cfa2-4ffb-86ea-6d8a85d6e262" d="M118.19,43.38c.35-.03.59-.09.72-.19.21-.15.37-.45.5-.91l1.83-6.62c.05-.17.08-.29.11-.39.05-.22.07-.39.07-.5,0-.25-.08-.43-.24-.52-.16-.09-.47-.14-.92-.15v-.24h3.86c.66,0,1.24.08,1.74.26.84.36,1.26.99,1.26,1.91,0,.76-.34,1.36-1.03,1.78-.38.23-.9.42-1.56.56.52.19.9.41,1.16.64.46.42.69,1,.69,1.72,0,.82-.36,1.5-1.09,2.05-.73.55-1.72.83-2.98.83h-4.13v-.24ZM124.08,42.37c.46-.52.69-1.14.69-1.86,0-.81-.27-1.34-.8-1.58-.34-.15-1.03-.23-2.06-.25l-.95,3.39c-.02.08-.04.16-.06.24s-.02.16-.02.22c0,.27.12.45.37.53.14.05.36.08.67.08.98,0,1.71-.26,2.16-.77ZM122.7,38.2c.77,0,1.37-.11,1.81-.32.74-.37,1.11-1.05,1.11-2.03,0-.56-.16-.96-.47-1.19-.31-.23-.73-.35-1.24-.35-.33,0-.55.03-.66.09-.11.06-.19.17-.24.32l-.97,3.46h.66Z"/>
    </g>
    <g>
      <path class="uuid-b3201044-da32-46ae-b3cb-8a0a488ebb0d" d="M133.04,113.31c.06.07.11.19.15.37l.57-2c.02-.06.03-.11.03-.15s0-.08,0-.11c0-.13-.02-.21-.07-.24-.05-.03-.12-.05-.2-.05-.06,0-.11,0-.15,0-.05,0-.11,0-.19.01v-.16c.37-.05.88-.13,1.54-.25l.04.05v.05s-.97,3.51-.97,3.51l-.66,2.32c-.01.05-.02.1-.03.14,0,.04-.01.08-.01.12,0,.09.02.15.07.17.04.03.08.04.11.04.1,0,.23-.08.41-.25.1-.1.24-.26.42-.47l.11.11-.07.1c-.12.18-.28.36-.47.55-.34.33-.64.5-.91.5-.09,0-.17-.02-.24-.06-.13-.08-.2-.22-.2-.42,0-.07,0-.18.03-.33s.05-.31.09-.49c-.25.38-.52.69-.81.93-.29.24-.62.36-.96.36-.28,0-.53-.1-.74-.3-.21-.2-.32-.51-.32-.93,0-.71.33-1.44.98-2.18.65-.75,1.29-1.12,1.91-1.12.26,0,.44.06.55.19ZM130.61,116.94c.09.15.25.22.46.22.47,0,.91-.37,1.34-1.12.41-.7.62-1.37.62-1.99,0-.2-.03-.36-.1-.49-.07-.13-.2-.2-.4-.2-.5,0-.98.4-1.45,1.2-.42.72-.62,1.34-.62,1.86,0,.2.05.37.14.52Z"/>
      <path class="uuid-b3201044-da32-46ae-b3cb-8a0a488ebb0d" d="M134.4,120.79c.14-.01.23-.04.28-.07.08-.06.15-.18.2-.36l.71-2.58c.02-.06.03-.12.04-.15.02-.09.03-.15.03-.19,0-.1-.03-.17-.1-.2s-.18-.06-.36-.06v-.09h1.51c.26,0,.48.03.68.1.33.14.49.39.49.75,0,.3-.13.53-.4.7-.15.09-.35.16-.61.22.2.08.35.16.45.25.18.17.27.39.27.67,0,.32-.14.59-.42.8-.28.21-.67.32-1.16.32h-1.61v-.09ZM136.7,120.4c.18-.2.27-.44.27-.73,0-.31-.1-.52-.31-.62-.13-.06-.4-.09-.8-.1l-.37,1.32s-.02.06-.02.1,0,.06,0,.09c0,.1.05.17.15.21.05.02.14.03.26.03.38,0,.66-.1.84-.3ZM136.16,118.77c.3,0,.54-.04.7-.12.29-.14.43-.41.43-.79,0-.22-.06-.37-.18-.46-.12-.09-.28-.14-.48-.14-.13,0-.21.01-.26.04-.04.02-.08.07-.09.13l-.38,1.35h.26Z"/>
      <path class="uuid-b3201044-da32-46ae-b3cb-8a0a488ebb0d" d="M143.46,113.41c.18.18.26.35.26.52,0,.15-.05.27-.14.35-.09.08-.2.13-.32.13s-.22-.04-.3-.11c-.08-.08-.12-.17-.12-.28,0-.08.03-.18.08-.27.05-.1.08-.16.08-.19,0-.06-.03-.11-.1-.15-.07-.04-.17-.06-.32-.06-.52,0-.98.3-1.37.89-.38.6-.58,1.22-.58,1.88,0,.37.08.66.23.87.16.21.39.31.7.31.25,0,.49-.07.73-.22.24-.15.45-.33.65-.55l.03-.04.14.11c-.23.29-.45.51-.66.67-.37.27-.79.41-1.25.41s-.79-.14-1.06-.42c-.27-.28-.41-.66-.41-1.14,0-.74.3-1.42.9-2.04.6-.62,1.24-.93,1.93-.93.4,0,.68.09.86.27Z"/>
      <path class="uuid-b3201044-da32-46ae-b3cb-8a0a488ebb0d" d="M148.25,113.56c.22.29.34.64.34,1.03,0,.69-.3,1.37-.91,2.03-.63.69-1.3,1.04-2.01,1.04-.45,0-.81-.13-1.08-.39s-.41-.63-.41-1.1c0-.71.3-1.4.91-2.05.62-.67,1.29-1,2.01-1,.55,0,.93.15,1.16.44ZM145.22,117.18c.14.18.33.27.59.27.53,0,1-.4,1.41-1.2.35-.69.52-1.32.52-1.89,0-.24-.03-.44-.09-.59-.11-.28-.32-.42-.62-.42-.5,0-.96.37-1.4,1.12-.41.7-.62,1.38-.62,2.06,0,.27.07.49.2.67Z"/>
      <path class="uuid-b3201044-da32-46ae-b3cb-8a0a488ebb0d" d="M149.27,116.1h.16c.07.39.16.68.25.86.18.33.45.5.8.5.2,0,.37-.07.5-.21.14-.14.2-.33.2-.56,0-.14-.02-.26-.05-.35-.04-.09-.08-.17-.13-.25l-.41-.6c-.24-.37-.4-.61-.46-.73-.09-.19-.14-.37-.14-.56,0-.28.1-.53.31-.75.2-.22.49-.32.87-.32.16,0,.34.03.55.09.21.06.34.09.42.09.08,0,.14-.02.18-.05.04-.03.08-.08.11-.13h.14l-.2,1.39h-.16c-.04-.32-.11-.55-.19-.71-.16-.3-.4-.44-.74-.44-.14,0-.27.04-.38.13-.11.09-.17.22-.17.39,0,.13.03.25.08.35.05.1.17.28.34.54l.35.5c.18.26.31.47.38.63.08.16.11.34.11.53,0,.35-.15.65-.45.89s-.66.36-1.07.36c-.13,0-.32-.03-.57-.08s-.39-.08-.43-.08c-.07,0-.11.01-.14.04-.03.03-.06.07-.09.13h-.16l.2-1.6Z"/>
      <path class="uuid-b3201044-da32-46ae-b3cb-8a0a488ebb0d" d="M155.95,111.02c-.31.33-.55.63-.74.9-.33.49-.6,1.06-.8,1.71-.18.58-.31,1.13-.39,1.66-.08.53-.11.96-.11,1.31,0,.55.03,1,.09,1.35.06.35.19.81.38,1.37l-.17.06c-.35-.59-.6-1.19-.76-1.79-.16-.6-.24-1.21-.24-1.8,0-.79.13-1.5.4-2.11.39-.92,1.13-1.85,2.21-2.8l.13.15Z"/>
      <path class="uuid-b3201044-da32-46ae-b3cb-8a0a488ebb0d" d="M156.96,116.7c.08.03.15.07.23.12l.23.16c.12.08.22.14.3.18.13.06.26.09.39.09.33,0,.62-.15.88-.46.26-.3.39-.7.39-1.18,0-.55-.14-.96-.43-1.25s-.7-.42-1.23-.42c-.03,0-.05,0-.07,0-.02,0-.06,0-.12,0v-.16c.87-.12,1.49-.34,1.85-.66.36-.32.54-.64.54-.97,0-.22-.07-.43-.2-.62-.13-.19-.37-.29-.71-.29-.2,0-.4.05-.59.16s-.37.27-.52.48l-.16-.05c.19-.36.43-.61.71-.78.28-.16.58-.24.89-.24.43,0,.77.11,1.04.34s.4.53.4.9c0,.39-.16.71-.48.96-.21.17-.57.34-1.07.53v.03c.24.11.43.25.57.41.25.28.38.66.38,1.13,0,.66-.26,1.25-.77,1.74-.54.52-1.19.79-1.97.79-.28,0-.51-.03-.69-.09-.31-.1-.46-.28-.46-.54,0-.09.03-.17.1-.25s.17-.11.32-.11c.09,0,.18.01.25.04Z"/>
      <path class="uuid-b3201044-da32-46ae-b3cb-8a0a488ebb0d" d="M165.83,111.72c.18.41.27.88.27,1.42,0,1.19-.31,2.24-.94,3.14-.62.89-1.32,1.33-2.09,1.33-.45,0-.83-.19-1.15-.58-.31-.39-.47-.92-.47-1.6,0-1.14.31-2.19.92-3.16.63-.99,1.33-1.49,2.11-1.49.62,0,1.08.31,1.35.93ZM164.72,115.5c.39-1.06.59-2.07.59-3.04,0-.34-.04-.61-.11-.81-.13-.39-.38-.59-.74-.59-.67,0-1.23.72-1.7,2.16-.35,1.1-.53,2.02-.53,2.75,0,.31.04.57.11.78.14.4.39.61.75.61.62,0,1.16-.62,1.62-1.86Z"/>
      <path class="uuid-b3201044-da32-46ae-b3cb-8a0a488ebb0d" d="M166.3,119.2c.34-.36.6-.68.78-.95.31-.47.56-1.02.76-1.67.17-.55.3-1.08.38-1.6s.12-1.01.12-1.48c0-.58-.05-1.08-.14-1.52-.1-.44-.21-.8-.34-1.08l.19-.06c.31.5.55,1.07.73,1.69.18.63.27,1.26.27,1.9,0,.73-.11,1.37-.33,1.93-.39,1.02-1.15,2.01-2.28,2.98l-.13-.15Z"/>
    </g>
    <g>
      <path class="uuid-642f13fa-3e81-404a-963d-450337d0441e" d="M64.58,97.89c.06.07.11.19.15.37l.57-2c.02-.05.03-.1.03-.15s0-.08,0-.12c0-.13-.02-.21-.07-.24-.05-.03-.12-.05-.2-.05-.06,0-.11,0-.15,0-.05,0-.11,0-.19.01v-.16c.37-.05.88-.13,1.54-.25l.04.05v.05s-.97,3.51-.97,3.51l-.66,2.32c-.01.05-.02.1-.03.14,0,.04-.01.08-.01.12,0,.09.02.15.07.17.04.03.08.04.11.04.1,0,.23-.08.41-.25.1-.1.24-.26.42-.47l.11.11-.07.1c-.12.18-.28.36-.47.55-.34.33-.64.5-.91.5-.09,0-.17-.02-.24-.06-.13-.08-.2-.22-.2-.42,0-.07,0-.18.03-.33s.05-.31.09-.49c-.25.38-.52.69-.81.93-.29.24-.62.36-.96.36-.28,0-.53-.1-.74-.3-.21-.2-.32-.51-.32-.93,0-.71.33-1.44.98-2.19.65-.75,1.29-1.12,1.91-1.12.26,0,.44.06.55.19ZM62.15,101.52c.09.15.25.22.46.22.47,0,.91-.37,1.34-1.12.41-.7.62-1.37.62-2,0-.2-.03-.36-.1-.49s-.2-.2-.4-.2c-.5,0-.98.4-1.45,1.2-.42.71-.62,1.34-.62,1.86,0,.2.05.37.14.52Z"/>
      <path class="uuid-642f13fa-3e81-404a-963d-450337d0441e" d="M69.23,101.66c.2.04.32.07.36.07.07,0,.12-.01.15-.03.03-.02.05-.06.07-.1h.12l-.21,1.16h-.1c-.02-.24-.07-.43-.15-.57-.15-.26-.4-.39-.74-.39-.53,0-.97.27-1.31.8-.3.46-.45.96-.45,1.5,0,.4.09.7.27.91.18.21.42.31.7.31s.57-.07.81-.22c.15-.09.34-.24.57-.47l.09.08c-.21.27-.45.48-.72.64-.27.16-.56.23-.89.23-.49,0-.86-.15-1.12-.46-.26-.31-.39-.67-.39-1.08,0-.59.22-1.13.65-1.63.48-.55,1.05-.82,1.74-.82.17,0,.35.02.55.07Z"/>
      <path class="uuid-642f13fa-3e81-404a-963d-450337d0441e" d="M75.33,98c.18.18.26.35.26.52,0,.15-.05.27-.14.36-.09.08-.2.13-.32.13s-.22-.04-.3-.11c-.08-.07-.12-.17-.12-.28,0-.08.03-.18.08-.27.05-.1.08-.16.08-.19,0-.06-.03-.11-.1-.15-.07-.04-.17-.06-.32-.06-.52,0-.98.3-1.37.89-.38.6-.58,1.22-.58,1.88,0,.37.08.66.23.87.16.21.39.31.7.31.25,0,.49-.07.73-.22.24-.15.45-.33.65-.55l.03-.04.14.11c-.23.29-.45.51-.66.67-.37.27-.79.41-1.25.41s-.79-.14-1.06-.42c-.27-.28-.41-.66-.41-1.14,0-.74.3-1.42.9-2.04.6-.62,1.24-.93,1.93-.93.4,0,.68.09.86.27Z"/>
      <path class="uuid-642f13fa-3e81-404a-963d-450337d0441e" d="M80.12,98.15c.22.29.34.64.34,1.03,0,.69-.3,1.37-.91,2.03-.63.69-1.3,1.04-2.01,1.04-.45,0-.81-.13-1.08-.39s-.41-.63-.41-1.1c0-.71.3-1.39.91-2.05.62-.67,1.29-1,2.01-1,.55,0,.93.15,1.16.44ZM77.09,101.76c.14.18.33.27.59.27.53,0,1-.4,1.41-1.2.35-.69.52-1.32.52-1.89,0-.24-.03-.44-.09-.59-.11-.28-.32-.42-.62-.42-.5,0-.96.37-1.4,1.12-.41.7-.62,1.38-.62,2.06,0,.27.07.49.2.67Z"/>
      <path class="uuid-642f13fa-3e81-404a-963d-450337d0441e" d="M81.14,100.68h.16c.07.39.16.68.25.86.18.33.45.5.8.5.2,0,.37-.07.5-.21.14-.14.2-.33.2-.56,0-.14-.02-.26-.05-.35-.04-.09-.08-.17-.13-.25l-.41-.6c-.24-.36-.4-.61-.46-.73-.09-.19-.14-.37-.14-.56,0-.28.1-.53.31-.75.2-.22.49-.33.87-.33.16,0,.34.03.55.09.21.06.34.09.42.09.08,0,.14-.02.18-.05.04-.03.08-.08.11-.13h.14l-.2,1.39h-.16c-.04-.32-.11-.55-.19-.71-.16-.3-.4-.44-.74-.44-.14,0-.27.04-.38.13-.11.09-.17.22-.17.39,0,.13.03.25.08.35.05.1.17.28.34.54l.35.5c.18.26.31.47.38.63.08.16.11.34.11.53,0,.35-.15.65-.45.89s-.66.36-1.07.36c-.13,0-.32-.03-.57-.08s-.39-.08-.43-.08c-.07,0-.11.01-.14.04-.03.03-.06.07-.09.13h-.16l.2-1.6Z"/>
      <path class="uuid-642f13fa-3e81-404a-963d-450337d0441e" d="M87.82,95.6c-.31.33-.55.63-.74.9-.33.49-.6,1.06-.8,1.71-.18.58-.31,1.13-.39,1.66-.08.53-.11.96-.11,1.31,0,.55.03,1,.09,1.35.06.35.19.81.38,1.37l-.17.06c-.35-.59-.6-1.19-.76-1.79-.16-.6-.24-1.21-.24-1.8,0-.79.13-1.5.4-2.11.39-.91,1.13-1.85,2.21-2.8l.13.15Z"/>
      <path class="uuid-642f13fa-3e81-404a-963d-450337d0441e" d="M88.82,101.28c.08.03.15.07.23.12l.23.16c.12.08.22.14.3.18.13.06.26.09.39.09.33,0,.62-.15.88-.46.26-.3.39-.7.39-1.18,0-.55-.14-.96-.43-1.25s-.7-.42-1.23-.42c-.03,0-.05,0-.07,0-.02,0-.06,0-.12,0v-.16c.87-.12,1.49-.34,1.85-.66.36-.32.54-.64.54-.97,0-.22-.07-.43-.2-.62-.13-.19-.37-.29-.71-.29-.2,0-.4.05-.59.16s-.37.27-.52.48l-.16-.05c.19-.35.43-.61.71-.78.28-.16.58-.24.89-.24.43,0,.77.12,1.04.34s.4.53.4.9c0,.39-.16.71-.48.96-.21.17-.57.34-1.07.53v.03c.24.11.43.25.57.41.25.28.38.66.38,1.13,0,.66-.26,1.25-.77,1.74-.54.52-1.19.79-1.97.79-.28,0-.51-.03-.69-.09-.31-.1-.46-.28-.46-.54,0-.09.03-.17.1-.25s.17-.11.32-.11c.09,0,.18.01.25.04Z"/>
      <path class="uuid-642f13fa-3e81-404a-963d-450337d0441e" d="M97.7,96.3c.18.41.27.88.27,1.42,0,1.19-.31,2.24-.94,3.14-.62.89-1.32,1.33-2.09,1.33-.45,0-.83-.19-1.15-.58-.31-.39-.47-.92-.47-1.6,0-1.14.31-2.19.92-3.16.63-.99,1.33-1.49,2.11-1.49.62,0,1.08.31,1.35.93ZM96.58,100.09c.39-1.06.59-2.07.59-3.04,0-.33-.04-.61-.11-.81-.13-.39-.38-.59-.74-.59-.67,0-1.23.72-1.7,2.16-.35,1.1-.53,2.02-.53,2.75,0,.31.04.57.11.78.14.4.39.61.75.61.62,0,1.16-.62,1.62-1.86Z"/>
      <path class="uuid-642f13fa-3e81-404a-963d-450337d0441e" d="M98.16,103.78c.34-.36.6-.68.78-.95.31-.47.56-1.02.76-1.67.17-.55.3-1.08.38-1.6s.12-1.01.12-1.48c0-.58-.05-1.08-.14-1.52-.1-.44-.21-.8-.34-1.08l.19-.06c.31.5.55,1.07.73,1.69.18.63.27,1.26.27,1.9,0,.73-.11,1.37-.33,1.93-.39,1.02-1.15,2.01-2.28,2.98l-.13-.15Z"/>
    </g>
    <g>
      <path class="uuid-b3201044-da32-46ae-b3cb-8a0a488ebb0d" d="M179.97,90.55c.06.07.11.19.15.37l.57-2c.02-.06.03-.11.03-.15s0-.08,0-.11c0-.13-.02-.21-.07-.24-.05-.03-.12-.05-.2-.05-.06,0-.11,0-.15,0-.05,0-.11,0-.19.01v-.16c.37-.05.88-.13,1.54-.25l.04.05v.05s-.97,3.51-.97,3.51l-.66,2.32c-.01.05-.02.1-.03.14,0,.04-.01.08-.01.12,0,.09.02.15.07.17.04.03.08.04.11.04.1,0,.23-.08.41-.25.1-.1.24-.26.42-.47l.11.11-.07.1c-.12.18-.28.36-.47.55-.34.33-.64.5-.91.5-.09,0-.17-.02-.24-.06-.13-.08-.2-.22-.2-.42,0-.07,0-.18.03-.33s.05-.31.09-.49c-.25.38-.52.69-.81.93-.29.24-.62.36-.96.36-.28,0-.53-.1-.74-.3-.21-.2-.32-.51-.32-.93,0-.71.33-1.44.98-2.18.65-.75,1.29-1.12,1.91-1.12.26,0,.44.06.55.19ZM177.54,94.17c.09.15.25.22.46.22.47,0,.91-.37,1.34-1.12.41-.7.62-1.37.62-1.99,0-.2-.03-.36-.1-.49-.07-.13-.2-.2-.4-.2-.5,0-.98.4-1.45,1.2-.42.72-.62,1.34-.62,1.86,0,.2.05.37.14.52Z"/>
      <path class="uuid-b3201044-da32-46ae-b3cb-8a0a488ebb0d" d="M181.33,98.03c.14-.01.23-.04.28-.07.08-.06.15-.18.2-.36l.71-2.58c.02-.06.03-.12.04-.15.02-.09.03-.15.03-.19,0-.1-.03-.17-.1-.2s-.18-.06-.36-.06v-.09h1.51c.26,0,.48.03.68.1.33.14.49.39.49.75,0,.3-.13.53-.4.7-.15.09-.35.16-.61.22.2.08.35.16.45.25.18.17.27.39.27.67,0,.32-.14.59-.42.8-.28.21-.67.32-1.16.32h-1.61v-.09ZM183.63,97.63c.18-.2.27-.44.27-.73,0-.31-.1-.52-.31-.62-.13-.06-.4-.09-.8-.1l-.37,1.32s-.02.06-.02.1,0,.06,0,.09c0,.1.05.17.15.21.05.02.14.03.26.03.38,0,.66-.1.84-.3ZM183.09,96c.3,0,.54-.04.7-.12.29-.14.43-.41.43-.79,0-.22-.06-.37-.18-.46-.12-.09-.28-.14-.48-.14-.13,0-.21.01-.26.04-.04.02-.08.07-.09.13l-.38,1.35h.26Z"/>
      <path class="uuid-b3201044-da32-46ae-b3cb-8a0a488ebb0d" d="M186.76,93.33h.16c.07.39.16.68.25.86.18.33.45.5.8.5.2,0,.37-.07.5-.21.14-.14.2-.33.2-.56,0-.14-.02-.26-.05-.35-.04-.09-.08-.17-.13-.25l-.41-.6c-.24-.37-.4-.61-.46-.73-.09-.19-.14-.37-.14-.56,0-.28.1-.53.31-.75.2-.22.49-.32.87-.32.16,0,.34.03.55.09.21.06.34.09.42.09.08,0,.14-.02.18-.05.04-.03.08-.08.11-.13h.14l-.2,1.39h-.16c-.04-.32-.11-.55-.19-.71-.16-.3-.4-.44-.74-.44-.14,0-.27.04-.38.13-.11.09-.17.22-.17.39,0,.13.03.25.08.35.05.1.17.28.34.54l.35.5c.18.26.31.47.38.63.08.16.11.34.11.53,0,.35-.15.65-.45.89s-.66.36-1.07.36c-.13,0-.32-.03-.57-.08s-.39-.08-.43-.08c-.07,0-.11.01-.14.04-.03.03-.06.07-.09.13h-.16l.2-1.6Z"/>
      <path class="uuid-b3201044-da32-46ae-b3cb-8a0a488ebb0d" d="M192.56,90.36s.03.03.02.04l-.99,3.49c-.05.19-.07.3-.07.33,0,.05,0,.09.03.13.02.04.06.06.12.06.11,0,.26-.1.44-.29.11-.11.24-.28.4-.49l.13.11-.05.07c-.24.34-.45.59-.61.74-.25.23-.5.35-.73.35-.14,0-.26-.06-.35-.18s-.14-.26-.14-.42c0-.09,0-.18.02-.25.01-.07.04-.17.07-.31l.7-2.51s.02-.08.02-.11c0-.03,0-.07,0-.1,0-.12-.04-.19-.13-.22-.09-.03-.26-.04-.51-.04v-.16c.27-.03.46-.06.58-.08.12-.02.24-.04.36-.06.16-.03.3-.06.44-.09.14-.03.22-.04.24-.03ZM192.1,89.14c-.09-.1-.14-.23-.14-.38s.05-.28.14-.38c.09-.1.21-.16.34-.16s.25.05.34.16c.1.1.14.23.14.38s-.05.28-.14.38c-.1.1-.21.15-.34.15s-.25-.05-.34-.16Z"/>
      <path class="uuid-b3201044-da32-46ae-b3cb-8a0a488ebb0d" d="M193.26,94.79l.84-3.02c.07-.26.11-.41.12-.46.01-.05.02-.11.02-.17,0-.09-.03-.17-.08-.22-.05-.05-.16-.08-.31-.08-.04,0-.08,0-.12,0-.04,0-.08.01-.12.02v-.16c.21-.03.36-.06.45-.07.09-.02.19-.04.29-.06l.87-.19s.03.03.04.04l-.65,2.1c.4-.61.73-1.06,1-1.36.47-.52.89-.79,1.27-.79.14,0,.27.03.37.08.2.11.3.3.3.58,0,.08,0,.16-.02.24-.02.08-.04.18-.06.27l-.64,2.34s-.03.11-.04.18c-.02.07-.02.12-.02.15,0,.05.01.09.03.13.02.04.06.06.11.06.08,0,.17-.05.28-.15.11-.1.28-.31.52-.64l.14.13c-.26.36-.47.62-.62.76-.26.26-.51.39-.75.39-.11,0-.21-.04-.31-.11-.1-.07-.15-.21-.15-.4,0-.06,0-.11.01-.18s.02-.12.03-.16l.62-2.37c.03-.13.05-.24.07-.32s.02-.14.02-.18c0-.08-.02-.15-.06-.2-.04-.06-.1-.08-.2-.08-.25,0-.56.22-.93.66-.22.26-.45.58-.67.94-.17.28-.3.56-.4.83s-.25.76-.47,1.46h-.75Z"/>
      <path class="uuid-b3201044-da32-46ae-b3cb-8a0a488ebb0d" d="M201.22,88.25c-.31.33-.55.63-.74.9-.33.49-.6,1.06-.8,1.71-.18.58-.31,1.13-.39,1.66-.08.53-.11.96-.11,1.31,0,.55.03,1,.09,1.35.06.35.19.81.38,1.37l-.17.06c-.35-.59-.6-1.19-.76-1.79-.16-.6-.24-1.21-.24-1.8,0-.79.13-1.5.4-2.11.39-.92,1.13-1.85,2.21-2.8l.13.15Z"/>
      <path class="uuid-b3201044-da32-46ae-b3cb-8a0a488ebb0d" d="M202.23,93.93c.08.03.15.07.23.12l.23.16c.12.08.22.14.3.18.13.06.26.09.39.09.33,0,.62-.15.88-.46.26-.3.39-.7.39-1.18,0-.55-.14-.96-.43-1.25s-.7-.42-1.23-.42c-.03,0-.05,0-.07,0-.02,0-.06,0-.12,0v-.16c.87-.12,1.49-.34,1.85-.66.36-.32.54-.64.54-.97,0-.22-.07-.43-.2-.62-.13-.19-.37-.29-.71-.29-.2,0-.4.05-.59.16s-.37.27-.52.48l-.16-.05c.19-.36.43-.61.71-.78.28-.16.58-.24.89-.24.43,0,.77.11,1.04.34s.4.53.4.9c0,.39-.16.71-.48.96-.21.17-.57.34-1.07.53v.03c.24.11.43.25.57.41.25.28.38.66.38,1.13,0,.66-.26,1.25-.77,1.74-.54.52-1.19.79-1.97.79-.28,0-.51-.03-.69-.09-.31-.1-.46-.28-.46-.54,0-.09.03-.17.1-.25s.17-.11.32-.11c.09,0,.18.01.25.04Z"/>
      <path class="uuid-b3201044-da32-46ae-b3cb-8a0a488ebb0d" d="M211.1,88.95c.18.41.27.88.27,1.42,0,1.19-.31,2.24-.94,3.14-.62.89-1.32,1.33-2.09,1.33-.45,0-.83-.19-1.15-.58-.31-.39-.47-.92-.47-1.6,0-1.14.31-2.19.92-3.16.63-.99,1.33-1.49,2.11-1.49.62,0,1.08.31,1.35.93ZM209.99,92.74c.39-1.06.59-2.07.59-3.04,0-.34-.04-.61-.11-.81-.13-.39-.38-.59-.74-.59-.67,0-1.23.72-1.7,2.16-.35,1.1-.53,2.02-.53,2.75,0,.31.04.57.11.78.14.4.39.61.75.61.62,0,1.16-.62,1.62-1.86Z"/>
      <path class="uuid-b3201044-da32-46ae-b3cb-8a0a488ebb0d" d="M211.57,96.43c.34-.36.6-.68.78-.95.31-.47.56-1.02.76-1.67.17-.55.3-1.08.38-1.6s.12-1.01.12-1.48c0-.58-.05-1.08-.14-1.52-.1-.44-.21-.8-.34-1.08l.19-.06c.31.5.55,1.07.73,1.69.18.63.27,1.26.27,1.9,0,.73-.11,1.37-.33,1.93-.39,1.02-1.15,2.01-2.28,2.98l-.13-.15Z"/>
    </g>
    <g>
      <path class="uuid-642f13fa-3e81-404a-963d-450337d0441e" d="M21.64,120.36c.06.07.11.19.15.37l.57-2c.02-.05.03-.1.03-.15s0-.08,0-.12c0-.13-.02-.21-.07-.24-.05-.03-.12-.05-.2-.05-.06,0-.11,0-.15,0-.05,0-.11,0-.19.01v-.16c.37-.05.88-.13,1.54-.25l.04.05v.05s-.97,3.51-.97,3.51l-.66,2.32c-.01.05-.02.1-.03.14,0,.04-.01.08-.01.12,0,.09.02.15.07.17.04.03.08.04.11.04.1,0,.23-.08.41-.25.1-.1.24-.26.42-.47l.11.11-.07.1c-.12.18-.28.36-.47.55-.34.33-.64.5-.91.5-.09,0-.17-.02-.24-.06-.13-.08-.2-.22-.2-.42,0-.07,0-.18.03-.33s.05-.31.09-.49c-.25.38-.52.69-.81.93-.29.24-.62.36-.96.36-.28,0-.53-.1-.74-.3-.21-.2-.32-.51-.32-.93,0-.71.33-1.44.98-2.19.65-.75,1.29-1.12,1.91-1.12.26,0,.44.06.55.19ZM19.21,123.98c.09.15.25.22.46.22.47,0,.91-.37,1.34-1.12.41-.7.62-1.37.62-2,0-.2-.03-.36-.1-.49s-.2-.2-.4-.2c-.5,0-.98.4-1.45,1.2-.42.71-.62,1.34-.62,1.86,0,.2.05.37.14.52Z"/>
      <path class="uuid-642f13fa-3e81-404a-963d-450337d0441e" d="M26.29,124.12c.2.04.32.07.36.07.07,0,.12-.01.15-.03.03-.02.05-.06.07-.1h.12l-.21,1.16h-.1c-.02-.24-.07-.43-.15-.57-.15-.26-.4-.39-.74-.39-.53,0-.97.27-1.31.8-.3.46-.45.96-.45,1.5,0,.4.09.7.27.91.18.21.42.31.7.31s.57-.07.81-.22c.15-.09.34-.24.57-.47l.09.08c-.21.27-.45.48-.72.64-.27.16-.56.23-.89.23-.49,0-.86-.15-1.12-.46-.26-.31-.39-.67-.39-1.08,0-.59.22-1.13.65-1.63.48-.55,1.05-.82,1.74-.82.17,0,.35.02.55.07Z"/>
      <path class="uuid-642f13fa-3e81-404a-963d-450337d0441e" d="M28.76,123.15h.16c.07.39.16.68.25.86.18.33.45.5.8.5.2,0,.37-.07.5-.21.14-.14.2-.33.2-.56,0-.14-.02-.26-.05-.35-.04-.09-.08-.17-.13-.25l-.41-.6c-.24-.36-.4-.61-.46-.73-.09-.19-.14-.37-.14-.56,0-.28.1-.53.31-.75.2-.22.49-.33.87-.33.16,0,.34.03.55.09.21.06.34.09.42.09.08,0,.14-.02.18-.05.04-.03.08-.08.11-.13h.14l-.2,1.39h-.16c-.04-.32-.11-.55-.19-.71-.16-.3-.4-.44-.74-.44-.14,0-.27.04-.38.13-.11.09-.17.22-.17.39,0,.13.03.25.08.35.05.1.17.28.34.54l.35.5c.18.26.31.47.38.63.08.16.11.34.11.53,0,.35-.15.65-.45.89s-.66.36-1.07.36c-.13,0-.32-.03-.57-.08s-.39-.08-.43-.08c-.07,0-.11.01-.14.04-.03.03-.06.07-.09.13h-.16l.2-1.6Z"/>
      <path class="uuid-642f13fa-3e81-404a-963d-450337d0441e" d="M34.56,120.18s.03.03.02.04l-.99,3.49c-.05.19-.07.3-.07.33,0,.05,0,.09.03.13.02.04.06.06.12.06.11,0,.26-.1.44-.29.11-.11.24-.28.4-.49l.13.11-.05.07c-.24.34-.45.59-.61.74-.25.23-.5.35-.73.35-.14,0-.26-.06-.35-.18s-.14-.26-.14-.42c0-.09,0-.18.02-.25.01-.07.04-.17.07-.31l.7-2.51s.02-.07.02-.11c0-.03,0-.06,0-.1,0-.12-.04-.19-.13-.22-.09-.03-.26-.04-.51-.04v-.16c.27-.03.46-.06.58-.08.12-.02.24-.04.36-.06.16-.03.3-.05.44-.09.14-.03.22-.04.24-.03ZM34.1,118.95c-.09-.1-.14-.23-.14-.38s.05-.28.14-.38c.09-.1.21-.16.34-.16s.25.05.34.16c.1.1.14.23.14.38s-.05.28-.14.38c-.1.1-.21.15-.34.15s-.25-.05-.34-.16Z"/>
      <path class="uuid-642f13fa-3e81-404a-963d-450337d0441e" d="M35.25,124.6l.84-3.02c.07-.25.11-.41.12-.46.01-.05.02-.11.02-.17,0-.09-.03-.17-.08-.22s-.16-.08-.31-.08c-.04,0-.08,0-.12,0-.04,0-.08.01-.12.02v-.16c.21-.03.36-.06.45-.07.09-.02.19-.04.29-.06l.87-.19s.03.03.04.04l-.65,2.1c.4-.61.73-1.06,1-1.36.47-.52.89-.79,1.27-.79.14,0,.27.03.37.08.2.11.3.3.3.58,0,.08,0,.16-.02.24-.02.08-.04.18-.06.27l-.64,2.34s-.03.11-.04.18c-.02.07-.02.12-.02.15,0,.05.01.09.03.13.02.04.06.06.11.06.08,0,.17-.05.28-.15.11-.1.28-.31.52-.64l.14.13c-.26.36-.47.62-.62.76-.26.26-.51.39-.75.39-.11,0-.21-.04-.31-.11-.1-.07-.15-.21-.15-.4,0-.06,0-.11.01-.18s.02-.12.03-.16l.62-2.37c.03-.13.05-.24.07-.32s.02-.14.02-.18c0-.08-.02-.15-.06-.2-.04-.06-.1-.09-.2-.09-.25,0-.56.22-.93.66-.22.26-.45.58-.67.94-.17.28-.3.56-.4.83-.1.27-.25.76-.47,1.46h-.75Z"/>
      <path class="uuid-642f13fa-3e81-404a-963d-450337d0441e" d="M43.22,118.06c-.31.33-.55.63-.74.9-.33.49-.6,1.06-.8,1.71-.18.58-.31,1.13-.39,1.66-.08.53-.11.96-.11,1.31,0,.55.03,1,.09,1.35.06.35.19.81.38,1.37l-.17.06c-.35-.59-.6-1.19-.76-1.79-.16-.6-.24-1.21-.24-1.8,0-.79.13-1.5.4-2.11.39-.91,1.13-1.85,2.21-2.8l.13.15Z"/>
      <path class="uuid-642f13fa-3e81-404a-963d-450337d0441e" d="M44.22,123.74c.08.03.15.07.23.12l.23.16c.12.08.22.14.3.18.13.06.26.09.39.09.33,0,.62-.15.88-.46.26-.3.39-.7.39-1.18,0-.55-.14-.96-.43-1.25s-.7-.42-1.23-.42c-.03,0-.05,0-.07,0-.02,0-.06,0-.12,0v-.16c.87-.12,1.49-.34,1.85-.66.36-.32.54-.64.54-.97,0-.22-.07-.43-.2-.62-.13-.19-.37-.29-.71-.29-.2,0-.4.05-.59.16s-.37.27-.52.48l-.16-.05c.19-.35.43-.61.71-.78.28-.16.58-.24.89-.24.43,0,.77.12,1.04.34s.4.53.4.9c0,.39-.16.71-.48.96-.21.17-.57.34-1.07.53v.03c.24.11.43.25.57.41.25.28.38.66.38,1.13,0,.66-.26,1.25-.77,1.74-.54.52-1.19.79-1.97.79-.28,0-.51-.03-.69-.09-.31-.1-.46-.28-.46-.54,0-.09.03-.17.1-.25s.17-.11.32-.11c.09,0,.18.01.25.04Z"/>
      <path class="uuid-642f13fa-3e81-404a-963d-450337d0441e" d="M53.1,118.77c.18.41.27.88.27,1.42,0,1.19-.31,2.24-.94,3.14-.62.89-1.32,1.33-2.09,1.33-.45,0-.83-.19-1.15-.58-.31-.39-.47-.92-.47-1.6,0-1.14.31-2.19.92-3.16.63-.99,1.33-1.49,2.11-1.49.62,0,1.08.31,1.35.93ZM51.99,122.55c.39-1.06.59-2.07.59-3.04,0-.33-.04-.61-.11-.81-.13-.39-.38-.59-.74-.59-.67,0-1.23.72-1.7,2.16-.35,1.1-.53,2.02-.53,2.75,0,.31.04.57.11.78.14.4.39.61.75.61.62,0,1.16-.62,1.62-1.86Z"/>
      <path class="uuid-642f13fa-3e81-404a-963d-450337d0441e" d="M53.56,126.25c.34-.36.6-.68.78-.95.31-.47.56-1.02.76-1.67.17-.55.3-1.08.38-1.6s.12-1.01.12-1.48c0-.58-.05-1.08-.14-1.52-.1-.44-.21-.8-.34-1.08l.19-.06c.31.5.55,1.07.73,1.69.18.63.27,1.26.27,1.9,0,.73-.11,1.37-.33,1.93-.39,1.02-1.15,2.01-2.28,2.98l-.13-.15Z"/>
    </g>
    <g>
      <path class="uuid-3f7f4cb4-cfa2-4ffb-86ea-6d8a85d6e262" d="M49.79,54.26c.16.18.29.5.38.94l1.47-5.14c.04-.14.07-.27.08-.38.01-.11.02-.21.02-.29,0-.33-.06-.53-.18-.61-.12-.08-.29-.12-.52-.12-.14,0-.27,0-.4.01-.12,0-.28.02-.48.04v-.41c.95-.12,2.26-.34,3.94-.65l.11.13-.03.14-2.47,9.01-1.68,5.96c-.03.14-.06.26-.08.37-.02.11-.03.22-.03.31,0,.23.06.38.17.44s.21.1.29.1c.25,0,.59-.21,1.04-.64.26-.26.62-.66,1.08-1.21l.29.28-.18.26c-.31.46-.71.93-1.2,1.41-.87.85-1.64,1.27-2.33,1.27-.23,0-.43-.05-.62-.15-.34-.2-.52-.56-.52-1.08,0-.18.03-.46.08-.84.05-.38.13-.81.23-1.26-.64.97-1.33,1.76-2.09,2.38-.76.62-1.58.93-2.48.93-.73,0-1.36-.26-1.91-.78-.54-.52-.82-1.31-.82-2.39,0-1.82.84-3.69,2.52-5.61,1.67-1.91,3.3-2.87,4.89-2.87.66,0,1.13.16,1.41.48ZM43.55,63.57c.23.38.63.57,1.19.57,1.2,0,2.34-.96,3.45-2.88,1.06-1.8,1.59-3.51,1.59-5.12,0-.51-.08-.93-.25-1.26-.17-.33-.51-.5-1.02-.5-1.28,0-2.51,1.03-3.71,3.08-1.07,1.84-1.6,3.43-1.6,4.78,0,.51.12.95.35,1.33Z"/>
      <path class="uuid-3f7f4cb4-cfa2-4ffb-86ea-6d8a85d6e262" d="M61.72,63.92c.51.12.81.17.92.17.18,0,.31-.03.38-.09s.13-.14.18-.25h.31l-.55,2.98-.26-.04c-.05-.59-.19-1.06-.39-1.42-.38-.67-1.02-1-1.91-1-1.36,0-2.49.68-3.37,2.05-.77,1.18-1.15,2.47-1.15,3.85,0,1.03.23,1.8.7,2.33.47.53,1.07.79,1.8.79s1.46-.19,2.09-.56c.38-.22.86-.63,1.47-1.21l.24.21c-.55.69-1.16,1.24-1.85,1.63-.69.4-1.45.59-2.28.59-1.25,0-2.2-.39-2.87-1.18s-1-1.71-1-2.76c0-1.51.56-2.9,1.67-4.18,1.22-1.4,2.71-2.1,4.46-2.1.43,0,.9.06,1.41.18Z"/>
    </g>
    <line class="uuid-0be74c6c-250c-4cab-a911-5ad5d734e702" x1="-45.28" y1="107.01" x2="285.28" y2="107.01"/>
    <g>
      <line class="uuid-0be74c6c-250c-4cab-a911-5ad5d734e702" x1="30.69" y1="94.51" x2="88.18" y2="59.93"/>
      <polygon class="uuid-3f7f4cb4-cfa2-4ffb-86ea-6d8a85d6e262" points="33.16 95.41 33.27 94.92 30.85 94.41 31.54 92.04 31.05 91.9 30.22 94.79 33.16 95.41"/>
      <polygon class="uuid-3f7f4cb4-cfa2-4ffb-86ea-6d8a85d6e262" points="87.81 62.53 87.33 62.39 88.01 60.03 85.6 59.52 85.7 59.03 88.64 59.65 87.81 62.53"/>
    </g>
    <g>
      <line class="uuid-0be74c6c-250c-4cab-a911-5ad5d734e702" x1="93.28" y1="65.41" x2="149.92" y2="32.72"/>
      <polygon class="uuid-3f7f4cb4-cfa2-4ffb-86ea-6d8a85d6e262" points="95.74 66.35 95.85 65.87 93.45 65.32 94.18 62.96 93.7 62.81 92.82 65.68 95.74 66.35"/>
      <polygon class="uuid-3f7f4cb4-cfa2-4ffb-86ea-6d8a85d6e262" points="149.5 35.32 149.02 35.17 149.75 32.81 147.35 32.26 147.46 31.77 150.39 32.45 149.5 35.32"/>
    </g>
    <g id="uuid-2bfc4765-051c-488b-8a5f-afe045f34bc6" data-name="Angular Dimension">
      <g>
        <path class="uuid-e1b07331-acad-4595-8be4-59ed34ca6e98" d="M235.22,68.31c-.1.31-.2,1-.03,1.65.32,1.2,1.19,1.37,1.76,1.2.96-.27,1.15-1.25.9-2.16l-.14-.52.7-.19.14.52c.18.68.76,1.45,1.58,1.23.55-.15.95-.63.72-1.49-.15-.55-.54-1.02-.83-1.26l.61-.43c.36.29.82.92,1.02,1.66.37,1.36-.28,2.19-1.12,2.42-.71.19-1.43-.07-1.97-.84h-.02c.06.9-.39,1.76-1.36,2.02-1.11.3-2.3-.31-2.75-1.96-.21-.78-.15-1.52-.01-1.92l.79.06Z"/>
        <path class="uuid-e1b07331-acad-4595-8be4-59ed34ca6e98" d="M240.3,77.47c-2.35.63-3.88.1-4.29-1.43-.36-1.35.66-2.6,2.94-3.24,2.32-.62,3.86.04,4.24,1.44.39,1.46-.68,2.63-2.88,3.22ZM239.19,73.74c-1.8.48-2.67,1.31-2.44,2.16.26.96,1.49,1.11,3.26.64,1.7-.46,2.7-1.19,2.44-2.16-.22-.82-1.38-1.15-3.26-.64Z"/>
        <path class="uuid-e1b07331-acad-4595-8be4-59ed34ca6e98" d="M243.61,80.34c-.86.23-1.61-.31-1.81-1.04-.22-.83.25-1.56,1-1.76.82-.23,1.6.24,1.81,1.03.23.87-.28,1.58-1.01,1.77ZM242.96,78.11c-.49.13-.78.6-.65,1.06.13.48.62.74,1.14.6.39-.11.83-.47.67-1.08-.15-.55-.7-.7-1.16-.58Z"/>
      </g>
      <g>
        <path class="uuid-e92fcc3f-57ce-4275-be39-692cfae5dae9" d="M238.08,106.57c-.08-21.04-5.61-41.7-16.07-59.96"/>
        <polygon class="uuid-e7cd47a1-5234-4e98-9d4d-2d0e2f771b4a" points="239.66 105.19 239.35 104.93 238.06 106.42 236.67 105.02 236.39 105.3 238.08 107.01 239.66 105.19"/>
        <polygon class="uuid-e7cd47a1-5234-4e98-9d4d-2d0e2f771b4a" points="224.07 47.02 223.94 47.4 222.07 46.76 221.57 48.66 221.18 48.56 221.8 46.24 224.07 47.02"/>
      </g>
    </g>
  </g>
</svg>