<?xml version="1.0" encoding="UTF-8"?>
<svg xmlns="http://www.w3.org/2000/svg" viewBox="0 0 248.59 247.1">
  <defs>
    <style>
      .uuid-aa53e96c-ed61-4f74-b05e-be850eabdc61 {
        stroke: #a3897b;
      }

      .uuid-aa53e96c-ed61-4f74-b05e-be850eabdc61, .uuid-b50deb4b-017e-4f64-82cb-2993fc50d169, .uuid-3bd856e9-719e-4cdd-882a-3d975fff634b, .uuid-8a4a064e-78c1-42a3-bdb3-912f519aa175, .uuid-3ea09297-13bd-4ea6-8c89-c1fc632b0962, .uuid-a6bec7c0-e605-4d9a-8796-ff2ecf7138ef, .uuid-212a5d16-bab9-49bb-9577-0394fd231fd5, .uuid-20cfefaf-69c2-41e2-924e-0bf739138f88, .uuid-0472e096-b0eb-446a-84bd-ff29a0c8a490, .uuid-07285a32-929b-4c11-8870-c21c1927a5b7, .uuid-b0192cb4-4aa3-4e92-93e1-5e5bb170eeb0, .uuid-ec92a45d-bed8-45ae-8a5d-a910d2505b31, .uuid-683df36f-2738-46b2-a4fa-16a593c72246, .uuid-59a440f8-fe1f-405b-8705-f678359b3730, .uuid-7fbc2a14-88f4-4d4e-b014-c38c9ff34306, .uuid-cb03728d-ec65-4445-9e63-fdd4e83ce9c2, .uuid-607d2987-bd76-4bf0-b50c-2669a671ef6e, .uuid-0d45f778-e0d5-4f2f-b421-61264cff5db9 {
        fill: none;
        stroke-miterlimit: 10;
      }

      .uuid-aa53e96c-ed61-4f74-b05e-be850eabdc61, .uuid-3ea09297-13bd-4ea6-8c89-c1fc632b0962, .uuid-212a5d16-bab9-49bb-9577-0394fd231fd5, .uuid-0472e096-b0eb-446a-84bd-ff29a0c8a490, .uuid-b0192cb4-4aa3-4e92-93e1-5e5bb170eeb0, .uuid-ec92a45d-bed8-45ae-8a5d-a910d2505b31, .uuid-607d2987-bd76-4bf0-b50c-2669a671ef6e {
        stroke-width: .25px;
      }

      .uuid-b50deb4b-017e-4f64-82cb-2993fc50d169, .uuid-3bd856e9-719e-4cdd-882a-3d975fff634b, .uuid-3ea09297-13bd-4ea6-8c89-c1fc632b0962, .uuid-ec92a45d-bed8-45ae-8a5d-a910d2505b31, .uuid-607d2987-bd76-4bf0-b50c-2669a671ef6e {
        stroke: #0056ff;
      }

      .uuid-b50deb4b-017e-4f64-82cb-2993fc50d169, .uuid-20cfefaf-69c2-41e2-924e-0bf739138f88, .uuid-683df36f-2738-46b2-a4fa-16a593c72246, .uuid-cb03728d-ec65-4445-9e63-fdd4e83ce9c2 {
        stroke-width: .75px;
      }

      .uuid-3bd856e9-719e-4cdd-882a-3d975fff634b, .uuid-a6bec7c0-e605-4d9a-8796-ff2ecf7138ef, .uuid-59a440f8-fe1f-405b-8705-f678359b3730, .uuid-0d45f778-e0d5-4f2f-b421-61264cff5db9 {
        stroke-width: .5px;
      }

      .uuid-8a4a064e-78c1-42a3-bdb3-912f519aa175 {
        stroke: #e20613;
      }

      .uuid-a6bec7c0-e605-4d9a-8796-ff2ecf7138ef {
        stroke: #b07f4a;
      }

      .uuid-212a5d16-bab9-49bb-9577-0394fd231fd5, .uuid-20cfefaf-69c2-41e2-924e-0bf739138f88 {
        stroke: red;
      }

      .uuid-212a5d16-bab9-49bb-9577-0394fd231fd5, .uuid-0472e096-b0eb-446a-84bd-ff29a0c8a490 {
        stroke-dasharray: 2 1;
      }

      .uuid-0472e096-b0eb-446a-84bd-ff29a0c8a490, .uuid-7fbc2a14-88f4-4d4e-b014-c38c9ff34306 {
        stroke: #008c36;
      }

      .uuid-07285a32-929b-4c11-8870-c21c1927a5b7 {
        stroke: #2190ff;
      }

      .uuid-7bc20d71-ecd8-4dfd-b06f-9c95b29def6e {
        fill: #fbe910;
      }

      .uuid-0cd232ec-c730-4421-ad28-477d61bc9dd3 {
        fill: #1d1d1b;
      }

      .uuid-b0192cb4-4aa3-4e92-93e1-5e5bb170eeb0, .uuid-0d45f778-e0d5-4f2f-b421-61264cff5db9 {
        stroke: #706f6f;
      }

      .uuid-35c02399-ad7a-4c50-a247-d7763099aaf6 {
        fill: #e20613;
      }

      .uuid-edb32f81-c799-481b-882e-aeff2c8a3ee8 {
        fill: #fff;
      }

      .uuid-ec92a45d-bed8-45ae-8a5d-a910d2505b31 {
        stroke-dasharray: 1.98 .99;
      }

      .uuid-dd630e7c-1c59-4768-82da-5440201cb0b1 {
        fill: #008c36;
      }

      .uuid-683df36f-2738-46b2-a4fa-16a593c72246, .uuid-59a440f8-fe1f-405b-8705-f678359b3730 {
        stroke: #1d1d1b;
      }

      .uuid-1586d5d5-e117-4da6-95c0-99205ab92d01 {
        fill: #706f6f;
      }

      .uuid-cad40440-e826-471e-9ca2-9cd494197356 {
        fill: #07cc00;
      }

      .uuid-cf048470-2cf5-47e2-bd76-e8df376c2231 {
        opacity: .5;
      }

      .uuid-cb03728d-ec65-4445-9e63-fdd4e83ce9c2 {
        stroke: #3c0;
      }

      .uuid-c8271f0c-25ae-4e29-9565-c57e367f2958 {
        fill: red;
      }

      .uuid-607d2987-bd76-4bf0-b50c-2669a671ef6e {
        stroke-dasharray: 1.98 .99;
      }

      .uuid-0d45f778-e0d5-4f2f-b421-61264cff5db9 {
        stroke-dasharray: 6.02 4.01;
      }

      .uuid-df938d6c-e0d0-43ed-aa2e-abe75a7f99e8 {
        fill: #a3897b;
      }

      .uuid-b970ec48-aac2-4506-b415-c31ca9798bb4 {
        fill: #0056ff;
      }
    </style>
  </defs>
  <rect class="uuid-edb32f81-c799-481b-882e-aeff2c8a3ee8" width="248.59" height="247.1"/>
  <g id="uuid-aa34e212-4939-4f58-8296-1fe8d7983818" data-name="costruzione">
    <line class="uuid-b0192cb4-4aa3-4e92-93e1-5e5bb170eeb0" x1="122.35" y1="97.98" x2="138.36" y2="126.36"/>
    <line class="uuid-b0192cb4-4aa3-4e92-93e1-5e5bb170eeb0" x1="111.61" y1="104.17" x2="127.62" y2="132.56"/>
    <line class="uuid-b0192cb4-4aa3-4e92-93e1-5e5bb170eeb0" x1="101.34" y1="110.1" x2="117.35" y2="138.49"/>
    <g>
      <line class="uuid-b0192cb4-4aa3-4e92-93e1-5e5bb170eeb0" x1="105.87" y1="117.4" x2="115.67" y2="111.74"/>
      <polygon class="uuid-1586d5d5-e117-4da6-95c0-99205ab92d01" points="107.09 117.87 107.15 117.63 105.95 117.35 106.31 116.17 106.07 116.1 105.63 117.54 107.09 117.87"/>
      <polygon class="uuid-1586d5d5-e117-4da6-95c0-99205ab92d01" points="115.46 113.04 115.22 112.97 115.59 111.79 114.38 111.51 114.44 111.27 115.9 111.61 115.46 113.04"/>
    </g>
    <g>
      <line class="uuid-b0192cb4-4aa3-4e92-93e1-5e5bb170eeb0" x1="117.45" y1="113.21" x2="127.25" y2="107.55"/>
      <polygon class="uuid-1586d5d5-e117-4da6-95c0-99205ab92d01" points="118.67 113.68 118.73 113.44 117.53 113.16 117.89 111.98 117.65 111.91 117.21 113.35 118.67 113.68"/>
      <polygon class="uuid-1586d5d5-e117-4da6-95c0-99205ab92d01" points="127.04 108.85 126.8 108.78 127.17 107.6 125.96 107.32 126.02 107.08 127.48 107.42 127.04 108.85"/>
    </g>
    <rect class="uuid-a6bec7c0-e605-4d9a-8796-ff2ecf7138ef" x="13.76" y="19.16" width="219.61" height="166.21"/>
    <g>
      <path class="uuid-df938d6c-e0d0-43ed-aa2e-abe75a7f99e8" d="M15.98,10.96v.11c-.17,0-.29.03-.37.06-.12.05-.17.15-.17.28,0,.02,0,.04,0,.06,0,.02,0,.04,0,.06l.45,3.04h.04l1.41-2.44c.07-.12.14-.25.2-.37.11-.22.16-.37.16-.45s-.03-.14-.1-.17c-.07-.03-.18-.05-.34-.08v-.11h1.3v.11c-.1.02-.17.05-.22.08s-.1.1-.17.2l-2.61,4.31h-.14l-.59-3.64c-.07-.43-.13-.69-.18-.78-.05-.09-.17-.14-.37-.16v-.11h1.69Z"/>
      <path class="uuid-df938d6c-e0d0-43ed-aa2e-abe75a7f99e8" d="M19.11,12.42s.02.02.02.03l-.69,2.44c-.03.13-.05.21-.05.23,0,.03,0,.06.02.09.01.03.04.04.09.04.08,0,.18-.07.31-.2.08-.08.17-.19.28-.34l.09.08-.04.05c-.17.24-.31.41-.42.52-.17.16-.35.25-.51.25-.1,0-.18-.04-.24-.12-.06-.08-.1-.18-.1-.29,0-.07,0-.12.01-.17,0-.05.03-.12.05-.22l.49-1.76s.01-.05.02-.08c0-.02,0-.05,0-.07,0-.08-.03-.13-.09-.15-.06-.02-.18-.03-.36-.03v-.11c.19-.02.32-.04.41-.05.08-.01.17-.03.25-.04.11-.02.21-.04.31-.06.1-.02.15-.03.16-.02ZM18.79,11.57c-.07-.07-.1-.16-.1-.26s.03-.19.1-.27.15-.11.24-.11.17.04.24.11.1.16.1.27-.03.19-.1.26c-.07.07-.15.11-.24.11s-.17-.04-.24-.11Z"/>
      <path class="uuid-df938d6c-e0d0-43ed-aa2e-abe75a7f99e8" d="M20.37,13.15c.45-.47.92-.71,1.4-.71.18,0,.32.04.42.12.1.08.16.2.16.36,0,.33-.19.61-.58.84-.38.23-.79.38-1.21.43l-.2.02c-.03.09-.05.17-.06.22-.01.06-.02.13-.02.21,0,.2.07.36.2.47s.29.17.47.17.35-.06.54-.17c.11-.07.27-.18.47-.36l.09.08c-.1.13-.25.26-.44.4-.34.24-.68.37-1.02.37-.24,0-.45-.09-.64-.26-.18-.17-.27-.42-.27-.73,0-.51.23-.99.68-1.47ZM21.48,13.61c.27-.24.41-.48.41-.72,0-.09-.02-.16-.06-.21s-.1-.08-.18-.08c-.15,0-.29.06-.44.19-.14.13-.27.27-.38.43-.12.19-.22.36-.29.54-.04.09-.08.19-.12.31.43-.06.79-.22,1.06-.46Z"/>
      <path class="uuid-df938d6c-e0d0-43ed-aa2e-abe75a7f99e8" d="M26.83,13.61c-.1.18-.25.39-.43.64-.19.26-.39.51-.59.76-.32.4-.51.6-.57.6-.03,0-.04-.01-.05-.03,0-.02-.02-.09-.03-.21l-.2-2.13-1.42,2.32s-.02.02-.03.03c-.01,0-.02,0-.03,0h-.05s0-.04,0-.04l-.04-.84c0-.19-.02-.38-.04-.59-.02-.2-.03-.38-.05-.52-.05-.41-.1-.67-.15-.76s-.15-.14-.3-.14c-.03,0-.05,0-.08,0-.03,0-.06,0-.08,0v-.1c.09-.02.18-.03.27-.05.09-.02.18-.04.28-.06l.32-.08c.08,0,.16.32.24.97.04.36.08.76.12,1.21l1.34-2.12s.02-.03.03-.05c.01-.01.03-.02.05-.02.02,0,.03,0,.04.02s.01.03.01.06l.23,2.47s.14-.18.38-.48c.24-.3.36-.46.37-.48.17-.25.29-.44.34-.57.04-.09.05-.17.05-.25,0-.03,0-.06-.01-.09,0-.03-.03-.06-.07-.09l-.11-.1s-.06-.06-.08-.1c-.02-.04-.03-.08-.03-.12,0-.06.02-.12.06-.17s.11-.09.22-.09c.08,0,.17.03.24.1.08.07.12.18.12.33,0,.19-.09.44-.28.76Z"/>
      <path class="uuid-df938d6c-e0d0-43ed-aa2e-abe75a7f99e8" d="M28.45,11.43c.01-.05.02-.1.03-.14,0-.04,0-.07,0-.1,0-.03,0-.06-.02-.09-.01-.03-.05-.05-.1-.07-.02,0-.04,0-.08-.01-.04,0-.12,0-.24-.01v-.12c.07-.01.15-.02.24-.03s.2-.02.35-.05c.02,0,.08-.02.21-.04.12-.03.21-.04.26-.04.01,0,.02,0,.03.01.01,0,.02.02.02.04v.04s-.7,2.58-.7,2.58c.2-.29.38-.5.52-.64.25-.23.51-.35.77-.35.25,0,.45.08.6.25.15.17.23.37.23.61,0,.57-.25,1.1-.74,1.59-.48.48-.98.72-1.49.72-.24,0-.45-.05-.65-.16-.2-.1-.29-.18-.27-.25l1.05-3.78ZM29.49,14.66c.32-.47.47-.9.47-1.3,0-.18-.05-.32-.14-.43-.09-.11-.21-.16-.35-.16-.36,0-.71.32-1.04.97-.29.56-.43,1.03-.43,1.4,0,.09.03.16.08.21.06.05.15.08.27.08.4,0,.78-.26,1.13-.79Z"/>
      <path class="uuid-df938d6c-e0d0-43ed-aa2e-abe75a7f99e8" d="M33.78,12.73c.16.2.24.44.24.72,0,.48-.21.96-.64,1.42-.44.48-.91.72-1.41.72-.31,0-.57-.09-.75-.27-.19-.18-.28-.44-.28-.77,0-.5.21-.98.64-1.43.43-.47.9-.7,1.4-.7.38,0,.65.1.81.31ZM31.66,15.26c.09.12.23.19.42.19.37,0,.7-.28.99-.84.24-.48.37-.92.37-1.33,0-.17-.02-.31-.06-.41-.08-.2-.23-.3-.44-.3-.35,0-.68.26-.98.78-.29.49-.43.97-.43,1.44,0,.19.05.35.14.47Z"/>
      <path class="uuid-df938d6c-e0d0-43ed-aa2e-abe75a7f99e8" d="M34.13,15.1c.05-.04.11-.06.17-.06.03,0,.05,0,.08.01.03,0,.06.02.09.04l.12.06s.03.02.05.02c.01,0,.03,0,.05,0,.06,0,.1-.01.13-.04.03-.03.11-.13.24-.3.08-.11.28-.38.57-.82,0-.02-.03-.14-.08-.37-.05-.23-.1-.42-.14-.58-.04-.16-.08-.27-.12-.32-.03-.05-.1-.08-.19-.08-.03,0-.09.01-.19.03-.06.01-.12.03-.19.05l-.03-.11.38-.13c.1-.03.19-.06.27-.08s.15-.03.21-.03c.1,0,.17.03.22.09.07.09.13.27.18.54l.07.39c.21-.31.36-.54.48-.66.1-.12.2-.2.29-.26s.18-.09.26-.09c.08,0,.14.01.19.03.09.04.13.12.13.23,0,.08-.02.14-.06.18s-.1.06-.17.06c-.02,0-.05,0-.07,0-.02,0-.05-.01-.07-.03l-.09-.04s-.05-.02-.07-.03c-.02,0-.04-.01-.05-.01-.1,0-.24.13-.43.4-.18.27-.27.42-.27.46,0,.03.02.15.06.33.04.19.09.39.14.6.04.2.08.33.12.41.05.12.11.18.18.18s.12-.03.19-.1.16-.19.29-.37l.1.06c-.1.18-.2.33-.3.45-.2.24-.39.36-.57.36-.11,0-.2-.05-.27-.16-.04-.06-.08-.17-.11-.31l-.21-.84-.7.92c-.14.16-.24.27-.32.32s-.17.08-.28.08c-.15,0-.24-.05-.3-.14-.03-.05-.04-.1-.04-.17,0-.09.03-.15.08-.19Z"/>
      <path class="uuid-df938d6c-e0d0-43ed-aa2e-abe75a7f99e8" d="M41.61,12.55s.08.14.1.26l.4-1.4s.02-.07.02-.1c0-.03,0-.06,0-.08,0-.09-.02-.14-.05-.17s-.08-.03-.14-.03c-.04,0-.07,0-.11,0s-.08,0-.13.01v-.11c.26-.03.62-.09,1.08-.18l.03.03v.04s-.68,2.46-.68,2.46l-.46,1.62s-.02.07-.02.1c0,.03,0,.06,0,.08,0,.06.02.1.05.12.03.02.06.03.08.03.07,0,.16-.06.28-.18.07-.07.17-.18.29-.33l.08.08-.05.07c-.08.13-.19.25-.33.38-.24.23-.45.35-.64.35-.06,0-.12-.01-.17-.04-.09-.05-.14-.15-.14-.29,0-.05,0-.12.02-.23.01-.1.03-.22.06-.34-.17.26-.36.48-.57.65-.21.17-.43.25-.68.25-.2,0-.37-.07-.52-.21-.15-.14-.22-.36-.22-.65,0-.5.23-1.01.69-1.53.46-.52.9-.78,1.33-.78.18,0,.31.04.39.13ZM39.91,15.09c.06.1.17.16.33.16.33,0,.64-.26.94-.79.29-.49.43-.96.43-1.4,0-.14-.02-.25-.07-.34-.05-.09-.14-.14-.28-.14-.35,0-.69.28-1.01.84-.29.5-.44.94-.44,1.3,0,.14.03.26.1.36Z"/>
      <path class="uuid-df938d6c-e0d0-43ed-aa2e-abe75a7f99e8" d="M43.5,13.15c.45-.47.92-.71,1.4-.71.18,0,.32.04.42.12.1.08.16.2.16.36,0,.33-.19.61-.58.84-.38.23-.79.38-1.21.43l-.2.02c-.03.09-.05.17-.06.22-.01.06-.02.13-.02.21,0,.2.07.36.2.47s.29.17.47.17.35-.06.54-.17c.11-.07.27-.18.47-.36l.09.08c-.1.13-.25.26-.44.4-.34.24-.68.37-1.02.37-.24,0-.45-.09-.64-.26-.18-.17-.27-.42-.27-.73,0-.51.23-.99.68-1.47ZM44.61,13.61c.27-.24.41-.48.41-.72,0-.09-.02-.16-.06-.21s-.1-.08-.18-.08c-.15,0-.29.06-.44.19-.14.13-.27.27-.38.43-.12.19-.22.36-.29.54-.04.09-.08.19-.12.31.43-.06.79-.22,1.06-.46Z"/>
      <path class="uuid-df938d6c-e0d0-43ed-aa2e-abe75a7f99e8" d="M47.03,11.38s.01-.06.02-.09,0-.05,0-.07c0-.08-.03-.12-.09-.14-.06-.02-.19-.02-.37-.02v-.11c.1-.01.22-.03.36-.05s.22-.03.26-.04c.13-.02.28-.06.47-.1.02,0,.03.01.05.03l-1.14,4.11c-.03.1-.04.16-.04.18,0,.02,0,.04,0,.06,0,.04,0,.08.02.11.02.03.04.05.09.05.08,0,.19-.07.32-.22s.24-.29.33-.42l.09.06c-.2.29-.35.49-.46.6-.19.19-.38.28-.57.28-.08,0-.16-.02-.22-.06-.1-.06-.15-.17-.15-.31,0-.06,0-.13.03-.23.01-.06.03-.12.05-.2l.96-3.42Z"/>
      <path class="uuid-df938d6c-e0d0-43ed-aa2e-abe75a7f99e8" d="M51.91,12.55s.08.14.1.26l.4-1.4s.02-.07.02-.1c0-.03,0-.06,0-.08,0-.09-.02-.14-.05-.17s-.08-.03-.14-.03c-.04,0-.07,0-.11,0s-.08,0-.13.01v-.11c.26-.03.62-.09,1.08-.18l.03.03v.04s-.68,2.46-.68,2.46l-.46,1.62s-.02.07-.02.1c0,.03,0,.06,0,.08,0,.06.02.1.05.12.03.02.06.03.08.03.07,0,.16-.06.28-.18.07-.07.17-.18.29-.33l.08.08-.05.07c-.08.13-.19.25-.33.38-.24.23-.45.35-.64.35-.06,0-.12-.01-.17-.04-.09-.05-.14-.15-.14-.29,0-.05,0-.12.02-.23.01-.1.03-.22.06-.34-.17.26-.36.48-.57.65-.21.17-.43.25-.68.25-.2,0-.37-.07-.52-.21-.15-.14-.22-.36-.22-.65,0-.5.23-1.01.69-1.53.46-.52.9-.78,1.33-.78.18,0,.31.04.39.13ZM50.21,15.09c.06.1.17.16.33.16.33,0,.64-.26.94-.79.29-.49.43-.96.43-1.4,0-.14-.02-.25-.07-.34-.05-.09-.14-.14-.28-.14-.35,0-.69.28-1.01.84-.29.5-.44.94-.44,1.3,0,.14.03.26.1.36Z"/>
      <path class="uuid-df938d6c-e0d0-43ed-aa2e-abe75a7f99e8" d="M55.94,12.73c.16.2.24.44.24.72,0,.48-.21.96-.64,1.42-.44.48-.91.72-1.41.72-.31,0-.57-.09-.75-.27-.19-.18-.28-.44-.28-.77,0-.5.21-.98.64-1.43.43-.47.9-.7,1.4-.7.38,0,.65.1.81.31ZM53.82,15.26c.09.12.23.19.42.19.37,0,.7-.28.99-.84.24-.48.37-.92.37-1.33,0-.17-.02-.31-.06-.41-.08-.2-.23-.3-.44-.3-.35,0-.68.26-.98.78-.29.49-.43.97-.43,1.44,0,.19.05.35.14.47Z"/>
      <path class="uuid-df938d6c-e0d0-43ed-aa2e-abe75a7f99e8" d="M59.19,12.62c.12.12.18.25.18.36,0,.11-.03.19-.1.25s-.14.09-.23.09-.16-.03-.21-.08-.08-.12-.08-.19c0-.06.02-.12.06-.19.04-.07.06-.11.06-.13,0-.04-.02-.08-.07-.1-.05-.03-.12-.04-.22-.04-.37,0-.69.21-.96.63-.27.42-.41.86-.41,1.31,0,.26.05.46.16.61s.27.22.49.22c.18,0,.35-.05.51-.15.17-.1.32-.23.46-.39l.02-.03.1.08c-.16.2-.31.36-.46.47-.26.19-.55.28-.87.28s-.55-.1-.74-.29c-.19-.2-.28-.46-.28-.8,0-.52.21-.99.63-1.43.42-.43.87-.65,1.35-.65.28,0,.48.06.6.19Z"/>
      <path class="uuid-df938d6c-e0d0-43ed-aa2e-abe75a7f99e8" d="M60.36,13.06s0-.04.01-.06c0-.02,0-.04,0-.06,0-.1-.03-.16-.09-.18-.06-.02-.17-.03-.33-.03v-.1l.51-.1.55-.1s.02,0,.03.02c0,.01.01.03.01.04v.06s-.67,2.31-.67,2.31c-.02.06-.03.1-.03.13,0,.03-.01.06-.01.07,0,.05.02.09.04.12.03.03.07.04.12.04.14,0,.31-.12.51-.36s.39-.49.54-.75c.14-.23.27-.49.39-.77.07-.18.18-.46.32-.84h.52l-.67,2.43s-.02.09-.03.13c0,.04-.01.07-.01.1,0,.03,0,.06.02.08.01.02.04.03.07.03s.07-.01.1-.04c.04-.03.08-.07.13-.12.02-.02.07-.08.13-.16.04-.05.1-.13.18-.23l.1.06c-.1.17-.21.32-.33.45-.22.25-.43.38-.62.38-.1,0-.18-.03-.24-.08-.06-.05-.09-.14-.09-.26,0-.06,0-.12.02-.19.01-.07.03-.15.05-.24.04-.16.1-.36.16-.6l.09-.32h-.03c-.32.53-.57.91-.75,1.13-.32.38-.61.57-.89.57-.08,0-.15-.02-.21-.05-.12-.06-.18-.18-.18-.34,0-.05,0-.09,0-.12,0-.03.01-.07.02-.12l.53-1.92Z"/>
      <path class="uuid-df938d6c-e0d0-43ed-aa2e-abe75a7f99e8" d="M65.88,12.51c.11.07.17.2.17.37,0,.08-.02.18-.06.32-.04.14-.11.36-.2.67.25-.39.47-.68.66-.88.33-.37.62-.55.88-.55.11,0,.21.04.29.11.09.07.13.19.13.35,0,.05-.02.17-.07.36l-.54,1.87s0,.06.01.09c.02.03.04.05.09.05.04,0,.08-.01.11-.03.03-.02.07-.05.12-.1.05-.05.08-.09.11-.12.03-.03.11-.13.24-.3l.11.08-.04.05c-.16.23-.33.42-.5.56-.17.14-.33.21-.49.21-.07,0-.13-.02-.18-.05-.08-.06-.12-.16-.12-.3,0-.03,0-.07,0-.11,0-.04.01-.08.03-.13l.53-1.92s.01-.05.02-.07c0-.02,0-.04,0-.05,0-.06-.01-.1-.04-.13-.03-.03-.07-.04-.11-.04-.16,0-.34.12-.54.35-.21.23-.39.46-.54.7-.14.24-.24.44-.3.61-.06.16-.16.52-.31,1.07h-.53l.68-2.43s0-.04.01-.06c0-.02,0-.04,0-.06,0-.06-.01-.1-.04-.13s-.06-.05-.12-.05c-.15,0-.33.12-.54.36s-.39.46-.53.67c-.14.2-.26.47-.39.81-.07.21-.17.5-.29.89h-.53l.66-2.43s.01-.05.02-.07c0-.02,0-.05,0-.07,0-.09-.03-.14-.09-.16-.06-.02-.18-.02-.36-.02v-.11c.23-.04.6-.11,1.11-.23l.03.02-.39,1.4c.26-.37.5-.68.73-.93.31-.33.59-.49.83-.49.09,0,.17.02.25.08Z"/>
      <path class="uuid-df938d6c-e0d0-43ed-aa2e-abe75a7f99e8" d="M68.97,13.15c.45-.47.92-.71,1.4-.71.18,0,.32.04.42.12.1.08.16.2.16.36,0,.33-.19.61-.58.84-.38.23-.79.38-1.21.43l-.2.02c-.03.09-.05.17-.06.22-.01.06-.02.13-.02.21,0,.2.07.36.2.47s.29.17.47.17.35-.06.54-.17c.11-.07.27-.18.47-.36l.09.08c-.1.13-.25.26-.44.4-.34.24-.68.37-1.02.37-.24,0-.45-.09-.64-.26-.18-.17-.27-.42-.27-.73,0-.51.23-.99.68-1.47ZM70.07,13.61c.27-.24.41-.48.41-.72,0-.09-.02-.16-.06-.21s-.1-.08-.18-.08c-.15,0-.29.06-.44.19-.14.13-.27.27-.38.43-.12.19-.22.36-.29.54-.04.09-.08.19-.12.31.43-.06.79-.22,1.06-.46Z"/>
      <path class="uuid-df938d6c-e0d0-43ed-aa2e-abe75a7f99e8" d="M71.3,15.52l.58-2.11c.05-.18.08-.29.09-.32s.01-.08.01-.12c0-.07-.02-.12-.06-.16-.04-.04-.11-.06-.22-.06-.03,0-.05,0-.08,0-.03,0-.05,0-.09.01v-.11c.15-.02.25-.04.31-.05.06-.01.13-.02.2-.04l.61-.13s.02.02.03.03l-.45,1.47c.28-.43.51-.74.7-.95.33-.37.63-.55.89-.55.1,0,.19.02.26.06.14.08.21.21.21.41,0,.05,0,.11-.02.17-.01.06-.03.12-.04.19l-.45,1.64s-.02.08-.03.12c-.01.05-.02.08-.02.1,0,.03,0,.06.02.09s.04.04.08.04c.06,0,.12-.03.2-.1.08-.07.2-.22.36-.45l.1.09c-.18.25-.33.43-.44.53-.18.18-.36.27-.53.27-.08,0-.15-.03-.22-.08-.07-.05-.11-.14-.11-.28,0-.04,0-.08,0-.12s.01-.08.02-.11l.44-1.66c.02-.09.04-.17.05-.22,0-.06.01-.1.01-.12,0-.05-.01-.1-.04-.14-.03-.04-.07-.06-.14-.06-.17,0-.39.15-.65.46-.15.18-.31.4-.47.66-.12.2-.21.39-.28.58-.07.19-.18.53-.33,1.03h-.52Z"/>
      <path class="uuid-df938d6c-e0d0-43ed-aa2e-abe75a7f99e8" d="M74.93,15.23s0-.05.01-.07l.66-2.39h-.52c0-.06,0-.1.01-.12,0-.02.03-.03.07-.05.23-.1.41-.19.54-.28.13-.09.3-.27.52-.53l.05-.07s.02-.02.03-.02c.01,0,.02,0,.03,0,.02,0,.04,0,.05.01,0,.02.01.03.01.04,0,.01,0,.03,0,.04l-.2.75h.56l-.04.23h-.59l-.63,2.3s0,.08.01.12.05.06.09.06c.06,0,.14-.06.25-.18.06-.06.17-.19.31-.38l.09.05-.05.07c-.2.29-.37.5-.52.61-.15.12-.29.17-.43.17-.12,0-.2-.03-.25-.09s-.08-.13-.08-.21c0-.02,0-.04,0-.06Z"/>
      <path class="uuid-df938d6c-e0d0-43ed-aa2e-abe75a7f99e8" d="M79.65,12.73c.16.2.24.44.24.72,0,.48-.21.96-.64,1.42-.44.48-.91.72-1.41.72-.31,0-.57-.09-.75-.27-.19-.18-.28-.44-.28-.77,0-.5.21-.98.64-1.43.43-.47.9-.7,1.4-.7.38,0,.65.1.81.31ZM77.53,15.26c.09.12.23.19.42.19.37,0,.7-.28.99-.84.24-.48.37-.92.37-1.33,0-.17-.02-.31-.06-.41-.08-.2-.23-.3-.44-.3-.35,0-.68.26-.98.78-.29.49-.43.97-.43,1.44,0,.19.05.35.14.47Z"/>
      <path class="uuid-df938d6c-e0d0-43ed-aa2e-abe75a7f99e8" d="M82.22,14.09l.13.02c0,.08,0,.13,0,.14,0,.36.1.64.3.86.2.22.44.32.72.32s.51-.1.67-.29c.16-.19.24-.41.24-.64,0-.09-.01-.18-.04-.27-.04-.15-.12-.28-.22-.4l-.44-.48c-.34-.37-.55-.63-.65-.79s-.14-.33-.14-.52c0-.29.11-.55.32-.79.21-.24.53-.36.94-.36.19,0,.38.03.57.09.2.06.31.09.35.09.07,0,.14-.02.18-.06.05-.04.09-.09.12-.13h.16l-.28,1.39-.12-.02c-.01-.33-.05-.57-.13-.73-.13-.27-.38-.41-.75-.41-.22,0-.41.06-.55.19-.14.13-.21.29-.21.48,0,.16.03.29.1.4.06.11.19.26.37.45l.63.68c.11.12.21.26.29.42.08.16.12.34.12.54,0,.36-.13.69-.38.97-.25.28-.59.42-1.02.42-.22,0-.45-.04-.67-.13-.23-.08-.37-.13-.42-.13-.08,0-.14.02-.18.06s-.07.1-.1.17h-.12l.24-1.56Z"/>
      <path class="uuid-df938d6c-e0d0-43ed-aa2e-abe75a7f99e8" d="M87.59,10.96v.11c-.17,0-.29.03-.37.06-.12.05-.17.15-.17.28,0,.02,0,.04,0,.06,0,.02,0,.04,0,.06l.45,3.04h.04l1.41-2.44c.07-.12.14-.25.2-.37.11-.22.16-.37.16-.45s-.03-.14-.1-.17c-.07-.03-.18-.05-.34-.08v-.11h1.3v.11c-.1.02-.17.05-.22.08s-.1.1-.17.2l-2.61,4.31h-.14l-.59-3.64c-.07-.43-.13-.69-.18-.78-.05-.09-.17-.14-.37-.16v-.11h1.69Z"/>
      <path class="uuid-df938d6c-e0d0-43ed-aa2e-abe75a7f99e8" d="M93.24,10.89c.13.02.28.06.44.12.12.04.2.07.25.08.04.01.09.02.13.02.11,0,.2-.02.26-.07.06-.04.12-.1.17-.18l.11.02-.35,1.38-.12-.02c-.04-.28-.11-.51-.23-.68-.21-.32-.56-.48-1.04-.48-.66,0-1.19.35-1.6,1.05-.33.57-.5,1.17-.5,1.79,0,.44.12.79.35,1.05.24.27.57.4,1.01.4.15,0,.32-.03.5-.08.18-.05.3-.13.37-.24.04-.07.09-.21.15-.41.04-.13.08-.31.14-.55l.08-.31s0-.04,0-.06c0-.02,0-.04,0-.06,0-.1-.03-.17-.09-.2-.06-.03-.21-.06-.45-.09v-.11h1.87v.11c-.24.02-.4.06-.48.12s-.15.19-.2.38l-.34,1.31c-.18.12-.41.22-.7.31-.29.09-.59.13-.93.13-.67,0-1.19-.2-1.56-.6-.33-.35-.49-.79-.49-1.31,0-.68.26-1.32.78-1.91.58-.65,1.28-.98,2.11-.98.1,0,.22.01.36.03Z"/>
    </g>
    <g>
      <path class="uuid-df938d6c-e0d0-43ed-aa2e-abe75a7f99e8" d="M6.21,16.52c-.12.13-.22.25-.29.36-.13.2-.24.42-.32.68-.07.23-.12.45-.15.66s-.04.39-.04.52c0,.22.01.4.04.54s.08.32.15.55l-.07.02c-.14-.24-.24-.48-.3-.72s-.09-.48-.09-.72c0-.32.05-.6.16-.84.16-.37.45-.74.88-1.12l.05.06Z"/>
      <path class="uuid-df938d6c-e0d0-43ed-aa2e-abe75a7f99e8" d="M8.17,16.8c.07.16.11.35.11.57,0,.48-.13.9-.38,1.26-.25.35-.53.53-.84.53-.18,0-.33-.08-.46-.23s-.19-.37-.19-.64c0-.45.12-.88.37-1.26.25-.4.53-.6.84-.6.25,0,.43.12.54.37ZM7.72,18.32c.16-.42.24-.83.24-1.21,0-.13-.01-.24-.04-.32-.05-.16-.15-.23-.3-.23-.27,0-.49.29-.68.86-.14.44-.21.81-.21,1.1,0,.12.01.23.04.31.05.16.16.24.3.24.25,0,.46-.25.65-.74Z"/>
      <path class="uuid-df938d6c-e0d0-43ed-aa2e-abe75a7f99e8" d="M8.7,18.79s.08-.06.15-.06.12.03.17.08.06.12.06.2c0,.13-.05.25-.15.36s-.2.19-.31.25l-.06.03-.04-.06c.08-.06.14-.11.19-.15.08-.08.12-.14.12-.2,0-.02,0-.03,0-.05s-.02-.03-.03-.04l-.04-.04s-.08-.08-.09-.11-.02-.06-.02-.11c0-.03.02-.06.05-.1Z"/>
      <path class="uuid-df938d6c-e0d0-43ed-aa2e-abe75a7f99e8" d="M11.17,16.8c.07.16.11.35.11.57,0,.48-.13.9-.38,1.26-.25.35-.53.53-.84.53-.18,0-.33-.08-.46-.23s-.19-.37-.19-.64c0-.45.12-.88.37-1.26.25-.4.53-.6.84-.6.25,0,.43.12.54.37ZM10.72,18.32c.16-.42.24-.83.24-1.21,0-.13-.01-.24-.04-.32-.05-.16-.15-.23-.3-.23-.27,0-.49.29-.68.86-.14.44-.21.81-.21,1.1,0,.12.01.23.04.31.05.16.16.24.3.24.25,0,.46-.25.65-.74Z"/>
      <path class="uuid-df938d6c-e0d0-43ed-aa2e-abe75a7f99e8" d="M11.35,19.8c.14-.15.24-.27.31-.38.12-.19.22-.41.3-.67.07-.22.12-.43.15-.64s.05-.4.05-.59c0-.23-.02-.43-.06-.61s-.08-.32-.14-.43l.07-.02c.12.2.22.43.29.68s.11.5.11.76c0,.29-.04.55-.13.77-.16.41-.46.81-.91,1.19l-.05-.06Z"/>
    </g>
    <line class="uuid-b0192cb4-4aa3-4e92-93e1-5e5bb170eeb0" x1="108.29" y1="22.73" x2="204.44" y2="22.73"/>
    <line class="uuid-b0192cb4-4aa3-4e92-93e1-5e5bb170eeb0" x1="201.61" y1="20.56" x2="204.41" y2="17.75"/>
    <line class="uuid-b0192cb4-4aa3-4e92-93e1-5e5bb170eeb0" x1="201.61" y1="24.13" x2="204.41" y2="21.33"/>
    <g>
      <line class="uuid-683df36f-2738-46b2-a4fa-16a593c72246" x1="186.21" y1="165.33" x2="213.37" y2="180.98"/>
      <polygon class="uuid-0cd232ec-c730-4421-ad28-477d61bc9dd3" points="186.83 169.23 187.55 169.01 186.46 165.48 190.06 164.65 189.89 163.92 185.5 164.93 186.83 169.23"/>
      <polygon class="uuid-0cd232ec-c730-4421-ad28-477d61bc9dd3" points="209.69 182.4 209.52 181.67 213.12 180.84 212.03 177.31 212.75 177.09 214.08 181.39 209.69 182.4"/>
    </g>
    <path id="uuid-8624fd5f-bf67-46f5-85de-8b42a874b157" data-name="riempimento test" class="uuid-7bc20d71-ecd8-4dfd-b06f-9c95b29def6e" d="M215.14,180.15c18.04-31.4,19.34-71.29-.07-104.91C186.07,25.03,121.86,7.82,71.64,36.82S4.21,130.03,33.2,180.25l-.04-.31c-19.81-47.16-7.66-99.69,35.71-124.28,43.37-24.59,98.88-10.03,123.92,32.56,11.4,19.83,12.28,45,.02,66.23-1.95,3.38-4.15,6.52-6.57,9.42l28.91,16.28Z"/>
    <path id="uuid-fb9cc270-ad2c-48fe-ae71-407dbc205897" data-name="cerchio interno 1 corretto" class="uuid-7fbc2a14-88f4-4d4e-b014-c38c9ff34306" d="M192.73,88.26c25.04,42.59,10.18,97.06-33.19,121.65-43.37,24.59-107.24,15.59-126.38-29.96-19.81-47.16-7.66-99.69,35.71-124.28,43.37-24.59,98.82-10,123.86,32.6Z"/>
    <circle id="uuid-ac8df4d5-8e6a-4c61-a39a-c860eae0f06d" data-name="cerchio interno 2" class="uuid-8a4a064e-78c1-42a3-bdb3-912f519aa175" cx="135.38" cy="121.3" r="66.31"/>
    <line class="uuid-aa53e96c-ed61-4f74-b05e-be850eabdc61" x1="5.5" y1="127.75" x2="240" y2="127.75"/>
    <g class="uuid-cf048470-2cf5-47e2-bd76-e8df376c2231">
      <g>
        <path class="uuid-3bd856e9-719e-4cdd-882a-3d975fff634b" d="M131.93,131.12c.58-1.17.91-2.49.91-3.89,0-4.82-3.91-8.72-8.72-8.72s-8.72,3.91-8.72,8.72c0,1.4.33,2.72.91,3.89"/>
        <polygon class="uuid-b970ec48-aac2-4506-b415-c31ca9798bb4" points="134.42 130.4 134.22 129.94 131.97 130.92 131.15 128.6 130.67 128.76 131.67 131.6 134.42 130.4"/>
        <polygon class="uuid-b970ec48-aac2-4506-b415-c31ca9798bb4" points="113.81 130.4 114.01 129.94 116.27 130.92 117.09 128.6 117.56 128.76 116.56 131.6 113.81 130.4"/>
      </g>
    </g>
    <g>
      <line class="uuid-3ea09297-13bd-4ea6-8c89-c1fc632b0962" x1="124.14" y1="127.75" x2="123.27" y2="128.25"/>
      <line class="uuid-607d2987-bd76-4bf0-b50c-2669a671ef6e" x1="122.42" y1="128.75" x2="30.22" y2="181.98"/>
      <line class="uuid-3ea09297-13bd-4ea6-8c89-c1fc632b0962" x1="29.79" y1="182.23" x2="28.92" y2="182.73"/>
    </g>
    <g>
      <line class="uuid-3ea09297-13bd-4ea6-8c89-c1fc632b0962" x1="219.31" y1="182.73" x2="218.45" y2="182.23"/>
      <line class="uuid-ec92a45d-bed8-45ae-8a5d-a910d2505b31" x1="217.59" y1="181.73" x2="125.41" y2="128.51"/>
      <line class="uuid-3ea09297-13bd-4ea6-8c89-c1fc632b0962" x1="124.98" y1="128.27" x2="124.12" y2="127.77"/>
    </g>
    <g>
      <line class="uuid-b50deb4b-017e-4f64-82cb-2993fc50d169" x1="118.92" y1="127.75" x2="129.36" y2="127.75"/>
      <line class="uuid-b50deb4b-017e-4f64-82cb-2993fc50d169" x1="124.14" y1="122.53" x2="124.14" y2="132.97"/>
    </g>
    <g>
      <line class="uuid-20cfefaf-69c2-41e2-924e-0bf739138f88" x1="130.16" y1="121.3" x2="140.6" y2="121.3"/>
      <line class="uuid-20cfefaf-69c2-41e2-924e-0bf739138f88" x1="135.38" y1="116.08" x2="135.38" y2="126.52"/>
    </g>
    <g>
      <line class="uuid-cb03728d-ec65-4445-9e63-fdd4e83ce9c2" x1="109.19" y1="133.49" x2="119.63" y2="133.49"/>
      <line class="uuid-cb03728d-ec65-4445-9e63-fdd4e83ce9c2" x1="114.41" y1="128.27" x2="114.41" y2="138.71"/>
    </g>
    <path class="uuid-b970ec48-aac2-4506-b415-c31ca9798bb4" d="M122.5,140.84c.27-.07.48-.19.63-.37s.46-.66.92-1.45l3.5-6h.26l1.15,6.79c.07.44.16.71.26.82s.32.18.65.21v.19h-2.96v-.19c.36-.04.59-.08.69-.13.17-.08.25-.23.25-.46,0-.06,0-.12,0-.19s0-.12-.02-.17l-.26-1.57h-2.56l-.75,1.35c-.05.09-.1.19-.13.29-.07.18-.1.33-.1.45,0,.15.05.26.16.32s.29.1.55.11v.19h-2.25v-.19ZM127.52,137.9l-.51-3.11-1.74,3.11h2.25Z"/>
    <path class="uuid-c8271f0c-25ae-4e29-9565-c57e367f2958" d="M136.23,132.77c.28-.02.47-.07.58-.15.16-.12.3-.36.4-.73l1.47-5.31c.04-.13.07-.24.08-.31.04-.18.06-.31.06-.4,0-.2-.07-.34-.2-.42s-.38-.12-.74-.12v-.19h3.1c.53,0,.99.07,1.39.21.68.29,1.01.8,1.01,1.54,0,.61-.28,1.09-.83,1.43-.3.18-.72.33-1.25.45.41.16.72.33.93.52.37.34.56.8.56,1.38,0,.66-.29,1.21-.87,1.65s-1.38.66-2.39.66h-3.32v-.19ZM140.95,131.96c.37-.41.55-.91.55-1.49,0-.65-.21-1.07-.64-1.27-.27-.12-.82-.19-1.65-.2l-.76,2.72c-.02.07-.04.13-.05.2s-.02.12-.02.18c0,.21.1.36.3.43.11.04.29.06.53.06.79,0,1.37-.21,1.73-.62ZM139.84,128.61c.62,0,1.1-.09,1.45-.26.59-.3.89-.84.89-1.63,0-.45-.13-.77-.38-.95-.25-.19-.58-.28-.99-.28-.26,0-.44.02-.53.07s-.16.14-.19.26l-.77,2.78h.53Z"/>
    <path class="uuid-dd630e7c-1c59-4768-82da-5440201cb0b1" d="M116.85,141.57c.41.09.65.14.74.14.14,0,.25-.02.3-.07s.11-.11.15-.2h.25l-.44,2.39-.21-.03c-.04-.47-.15-.85-.32-1.14-.31-.54-.82-.8-1.53-.8-1.09,0-1.99.55-2.7,1.64-.62.95-.93,1.98-.93,3.09,0,.82.19,1.45.56,1.87s.86.63,1.45.63,1.17-.15,1.68-.45c.3-.18.69-.5,1.18-.97l.19.17c-.44.55-.93.99-1.49,1.31s-1.16.48-1.83.48c-1,0-1.77-.32-2.3-.95s-.8-1.37-.8-2.21c0-1.21.45-2.33,1.34-3.35.98-1.12,2.17-1.69,3.57-1.69.35,0,.72.05,1.13.14Z"/>
    <g>
      <path class="uuid-0cd232ec-c730-4421-ad28-477d61bc9dd3" d="M33.46,173.99c.36-.03.61-.08.75-.15.24-.13.41-.37.51-.73l1.75-6.33c-.92,0-1.53.07-1.83.21-.3.14-.64.56-1.04,1.26l-.21-.04.5-1.85h6.4l-.53,1.96-.21-.03.03-.42c0-.37-.08-.64-.25-.82-.17-.18-.5-.27-.99-.27h-.67l-1.68,5.97c-.04.13-.07.24-.09.35-.04.15-.05.27-.05.36,0,.23.07.38.22.44s.43.09.85.1v.19h-3.46v-.19Z"/>
      <path class="uuid-0cd232ec-c730-4421-ad28-477d61bc9dd3" d="M43.3,173.61c.24.05.38.08.43.08.08,0,.14-.01.18-.04s.06-.07.09-.12h.14l-.26,1.39-.12-.02c-.02-.28-.09-.5-.18-.67-.18-.31-.48-.47-.89-.47-.64,0-1.16.32-1.58.96-.36.55-.54,1.15-.54,1.8,0,.48.11.84.33,1.09s.5.37.84.37.68-.09.98-.26c.17-.1.4-.29.69-.56l.11.1c-.25.32-.54.58-.87.76s-.68.28-1.06.28c-.58,0-1.03-.18-1.34-.55-.31-.37-.47-.8-.47-1.29,0-.71.26-1.36.78-1.95.57-.66,1.27-.98,2.08-.98.2,0,.42.03.66.08Z"/>
    </g>
    <g>
      <path class="uuid-0cd232ec-c730-4421-ad28-477d61bc9dd3" d="M199.44,86.43c.36-.03.61-.08.75-.15.24-.13.41-.37.51-.73l1.75-6.33c-.92,0-1.53.07-1.83.21-.3.14-.64.56-1.04,1.26l-.21-.04.5-1.85h6.4l-.53,1.96-.21-.03.03-.42c0-.37-.08-.64-.25-.82-.17-.18-.5-.27-.99-.27h-.67l-1.68,5.97c-.04.13-.07.24-.09.35-.04.15-.05.27-.05.36,0,.23.07.38.22.44s.43.09.85.1v.19h-3.46v-.19Z"/>
      <path class="uuid-0cd232ec-c730-4421-ad28-477d61bc9dd3" d="M205.32,90.51c.16-.01.28-.04.34-.09.1-.07.17-.21.24-.43l.86-3.09c.02-.08.04-.14.05-.18.02-.1.03-.18.03-.23,0-.12-.04-.2-.11-.24-.08-.04-.22-.07-.43-.07v-.11h1.81c.31,0,.58.04.81.12.39.17.59.46.59.9,0,.36-.16.63-.48.83-.18.11-.42.19-.73.26.24.09.42.19.54.3.22.2.32.47.32.81,0,.38-.17.7-.51.96-.34.26-.8.39-1.39.39h-1.93v-.11ZM208.08,90.04c.21-.24.32-.53.32-.87,0-.38-.12-.62-.38-.74-.16-.07-.48-.11-.96-.12l-.44,1.58s-.02.08-.03.11c0,.04,0,.07,0,.1,0,.12.06.21.17.25.07.03.17.04.31.04.46,0,.8-.12,1.01-.36ZM207.43,88.08c.36,0,.64-.05.84-.15.35-.17.52-.49.52-.95,0-.26-.07-.45-.22-.56s-.34-.16-.58-.16c-.15,0-.26.01-.31.04-.05.03-.09.08-.11.15l-.45,1.62h.31Z"/>
    </g>
    <line class="uuid-212a5d16-bab9-49bb-9577-0394fd231fd5" x1="192.79" y1="88.22" x2="135.38" y2="121.3"/>
    <line class="uuid-0472e096-b0eb-446a-84bd-ff29a0c8a490" x1="31.59" y1="97.08" x2="114.41" y2="133.49"/>
    <g>
      <path class="uuid-b970ec48-aac2-4506-b415-c31ca9798bb4" d="M177.66,148.89s.02.04.02.06c0,.03,0,.06,0,.07l-.5,1.9.11-.23c.23-.46.51-.88.82-1.26.31-.38.61-.57.9-.57.15,0,.27.05.35.15.08.1.12.22.12.35,0,.15-.04.27-.12.36-.08.1-.2.14-.34.14-.1,0-.18-.02-.23-.06-.05-.04-.09-.08-.12-.14l-.06-.11s-.03-.04-.05-.05c-.02-.01-.04-.02-.07-.02-.13,0-.31.18-.55.53s-.45.74-.64,1.15c-.11.25-.24.58-.38,1-.09.26-.21.63-.35,1.11h-.75l.81-2.94c.04-.17.08-.32.11-.45s.04-.24.04-.33c0-.1-.02-.17-.07-.22s-.13-.08-.25-.08c-.04,0-.09,0-.15,0s-.13.01-.21.02v-.16l.2-.04c.25-.05.53-.11.83-.17.3-.06.46-.09.48-.09.03,0,.05,0,.06.03Z"/>
      <path class="uuid-b970ec48-aac2-4506-b415-c31ca9798bb4" d="M179.3,156.54c.13-.03.23-.09.31-.18.08-.09.22-.32.45-.7l1.7-2.92h.13l.56,3.3c.04.21.08.34.13.4.05.05.15.09.32.1v.09h-1.44v-.09c.17-.02.29-.04.34-.06.08-.04.12-.11.12-.22,0-.03,0-.06,0-.09s0-.06,0-.08l-.12-.76h-1.25l-.37.66s-.05.09-.07.14c-.03.09-.05.16-.05.22,0,.07.03.13.08.16.05.03.14.05.27.05v.09h-1.09v-.09ZM181.73,155.11l-.25-1.51-.85,1.51h1.09Z"/>
    </g>
    <g>
      <path class="uuid-c8271f0c-25ae-4e29-9565-c57e367f2958" d="M170.95,89.14s.02.04.02.06c0,.03,0,.06,0,.07l-.5,1.9.11-.23c.23-.46.51-.88.82-1.26.31-.38.61-.57.9-.57.15,0,.27.05.35.15.08.1.12.22.12.35,0,.15-.04.27-.12.37-.08.1-.2.14-.34.14-.1,0-.18-.02-.23-.06-.05-.04-.09-.08-.12-.14l-.06-.11s-.03-.04-.05-.04c-.02-.01-.04-.02-.07-.02-.13,0-.31.18-.55.53-.24.36-.45.74-.64,1.15-.11.25-.24.58-.38,1-.09.26-.21.63-.35,1.11h-.75l.81-2.94c.04-.17.08-.32.11-.46.03-.13.04-.24.04-.33,0-.1-.02-.17-.07-.22-.05-.05-.13-.08-.25-.08-.04,0-.09,0-.15,0-.06,0-.13.01-.21.02v-.16l.2-.04c.25-.05.53-.11.83-.17.3-.06.46-.09.48-.09.03,0,.05,0,.06.03Z"/>
      <path class="uuid-c8271f0c-25ae-4e29-9565-c57e367f2958" d="M172.69,96.79c.14-.01.23-.04.28-.07.08-.06.15-.18.2-.36l.71-2.58c.02-.06.03-.12.04-.15.02-.09.03-.15.03-.19,0-.1-.03-.17-.1-.2-.06-.04-.18-.05-.36-.06v-.09h1.51c.26,0,.48.03.68.1.33.14.49.39.49.74,0,.3-.13.53-.4.7-.15.09-.35.16-.61.22.2.08.35.16.45.25.18.16.27.39.27.67,0,.32-.14.59-.42.8-.28.21-.67.32-1.16.32h-1.61v-.09ZM174.98,96.4c.18-.2.27-.44.27-.73,0-.31-.1-.52-.31-.62-.13-.06-.4-.09-.8-.1l-.37,1.32s-.02.06-.02.1,0,.06,0,.09c0,.1.05.17.15.21.05.02.14.03.26.03.38,0,.66-.1.84-.3ZM174.45,94.77c.3,0,.54-.04.7-.12.29-.14.43-.41.43-.79,0-.22-.06-.37-.18-.46-.12-.09-.28-.14-.48-.14-.13,0-.21.01-.26.04-.04.02-.08.06-.09.13l-.38,1.35h.26Z"/>
    </g>
    <g>
      <path class="uuid-1586d5d5-e117-4da6-95c0-99205ab92d01" d="M118.03,102c.06.07.11.19.15.37l.57-2c.02-.06.03-.11.03-.15,0-.04,0-.08,0-.12,0-.13-.02-.21-.07-.24-.05-.03-.12-.05-.2-.05-.06,0-.11,0-.15,0-.05,0-.11,0-.19.01v-.16c.37-.05.88-.13,1.54-.25l.04.05v.05s-.97,3.51-.97,3.51l-.66,2.32c-.01.05-.02.1-.03.14,0,.04-.01.08-.01.12,0,.09.02.15.07.17.04.03.08.04.11.04.1,0,.23-.08.41-.25.1-.1.24-.26.42-.47l.11.11-.07.1c-.12.18-.28.36-.47.55-.34.33-.64.5-.91.5-.09,0-.17-.02-.24-.06-.13-.08-.2-.22-.2-.42,0-.07,0-.18.03-.33s.05-.31.09-.49c-.25.38-.52.69-.81.93-.29.24-.62.36-.96.36-.28,0-.53-.1-.74-.3-.21-.2-.32-.51-.32-.93,0-.71.33-1.44.98-2.18.65-.75,1.29-1.12,1.91-1.12.26,0,.44.06.55.19ZM115.6,105.62c.09.15.25.22.46.22.47,0,.91-.37,1.34-1.12.41-.7.62-1.37.62-1.99,0-.2-.03-.36-.1-.49s-.2-.2-.4-.2c-.5,0-.98.4-1.45,1.2-.42.72-.62,1.34-.62,1.86,0,.2.05.37.14.52Z"/>
      <path class="uuid-1586d5d5-e117-4da6-95c0-99205ab92d01" d="M119.39,109.47c.14-.01.23-.04.28-.07.08-.06.15-.18.2-.36l.71-2.58c.02-.06.03-.12.04-.15.02-.09.03-.15.03-.19,0-.1-.03-.17-.1-.2s-.18-.06-.36-.06v-.09h1.51c.26,0,.48.03.68.1.33.14.49.39.49.75,0,.3-.13.53-.4.7-.15.09-.35.16-.61.22.2.08.35.16.45.25.18.17.27.39.27.67,0,.32-.14.59-.42.8-.28.21-.67.32-1.16.32h-1.61v-.09ZM121.69,109.08c.18-.2.27-.44.27-.73,0-.31-.1-.52-.31-.62-.13-.06-.4-.09-.8-.1l-.37,1.32s-.02.06-.02.1,0,.06,0,.09c0,.1.05.17.15.21.05.02.14.03.26.03.38,0,.66-.1.84-.3ZM121.15,107.45c.3,0,.54-.04.7-.12.29-.14.43-.41.43-.79,0-.22-.06-.37-.18-.46-.12-.09-.28-.14-.48-.14-.13,0-.21.01-.26.04-.04.02-.08.07-.09.13l-.38,1.35h.26Z"/>
    </g>
    <g>
      <path class="uuid-1586d5d5-e117-4da6-95c0-99205ab92d01" d="M106.31,104.94c.06.07.11.19.15.37l.57-2c.02-.06.03-.11.03-.15,0-.04,0-.08,0-.12,0-.13-.02-.21-.07-.24-.05-.03-.12-.05-.2-.05-.06,0-.11,0-.15,0-.05,0-.11,0-.19.01v-.16c.37-.05.88-.13,1.54-.25l.04.05v.05s-.97,3.51-.97,3.51l-.66,2.32c-.01.05-.02.1-.03.14,0,.04-.01.08-.01.12,0,.09.02.15.07.17.04.03.08.04.11.04.1,0,.23-.08.41-.25.1-.1.24-.26.42-.47l.11.11-.07.1c-.12.18-.28.36-.47.55-.34.33-.64.5-.91.5-.09,0-.17-.02-.24-.06-.13-.08-.2-.22-.2-.42,0-.07,0-.18.03-.33s.05-.31.09-.49c-.25.38-.52.69-.81.93-.29.24-.62.36-.96.36-.28,0-.53-.1-.74-.3-.21-.2-.32-.51-.32-.93,0-.71.33-1.44.98-2.18.65-.75,1.29-1.12,1.91-1.12.26,0,.44.06.55.19ZM103.88,108.56c.09.15.25.22.46.22.47,0,.91-.37,1.34-1.12.41-.7.62-1.37.62-1.99,0-.2-.03-.36-.1-.49s-.2-.2-.4-.2c-.5,0-.98.4-1.45,1.2-.42.72-.62,1.34-.62,1.86,0,.2.05.37.14.52Z"/>
      <path class="uuid-1586d5d5-e117-4da6-95c0-99205ab92d01" d="M110.96,108.7c.2.04.32.07.36.07.07,0,.12-.01.15-.03.03-.02.05-.06.07-.1h.12l-.21,1.16h-.1c-.02-.24-.07-.43-.15-.57-.15-.26-.4-.39-.74-.39-.53,0-.97.27-1.31.8-.3.46-.45.96-.45,1.5,0,.4.09.7.27.91.18.21.42.31.7.31s.57-.07.81-.22c.15-.09.34-.24.57-.47l.09.08c-.21.27-.45.48-.72.64-.27.16-.56.23-.89.23-.49,0-.86-.15-1.12-.46-.26-.31-.39-.67-.39-1.08,0-.59.22-1.13.65-1.63.48-.55,1.05-.82,1.74-.82.17,0,.35.02.55.07Z"/>
    </g>
    <g>
      <path class="uuid-cad40440-e826-471e-9ca2-9cd494197356" d="M52.57,103.88s0,0,0,.01c0,0,0,.01,0,.01l-.1.38.02-.04c.05-.09.1-.18.17-.25.06-.08.12-.11.18-.11.03,0,.05,0,.07.03.02.02.02.04.02.07,0,.03,0,.05-.02.07-.02.02-.04.03-.07.03-.02,0-.04,0-.05-.01,0,0-.02-.02-.02-.03v-.02s-.02,0-.02,0c0,0,0,0-.01,0-.03,0-.06.04-.11.11s-.09.15-.13.23c-.02.05-.05.12-.08.2-.02.05-.04.13-.07.22h-.15l.16-.59s.02-.06.02-.09c0-.03,0-.05,0-.07,0-.02,0-.03-.01-.04s-.03-.02-.05-.02c0,0-.02,0-.03,0s-.03,0-.04,0v-.03h.04c.05-.02.11-.03.17-.04.06-.01.09-.02.1-.02,0,0,0,0,.01,0Z"/>
      <path class="uuid-cad40440-e826-471e-9ca2-9cd494197356" d="M53.57,104.67s.06.01.07.01c.01,0,.02,0,.03,0s.01-.01.01-.02h.02l-.04.23h-.02s-.01-.09-.03-.11c-.03-.05-.08-.08-.15-.08-.11,0-.19.05-.26.16-.06.09-.09.19-.09.3,0,.08.02.14.05.18s.08.06.14.06.11-.01.16-.04c.03-.02.07-.05.11-.09l.02.02c-.04.05-.09.1-.14.13-.05.03-.11.05-.18.05-.1,0-.17-.03-.22-.09-.05-.06-.08-.13-.08-.22,0-.12.04-.23.13-.33.1-.11.21-.16.35-.16.03,0,.07,0,.11.01Z"/>
    </g>
    <g>
      <path class="uuid-b970ec48-aac2-4506-b415-c31ca9798bb4" d="M121.4,115.15h-.1c.07-.33.2-.56.39-.73.19-.17.43-.25.73-.25.28,0,.5.08.66.23s.25.36.25.62c0,.2-.06.4-.17.59-.11.2-.33.46-.64.78l-.75.77h.97c.25,0,.42-.03.51-.08s.17-.15.23-.29l.1.03-.28.71h-2v-.09l.54-.56.05-.05c.68-.71,1.02-1.23,1.02-1.58,0-.22-.06-.4-.19-.53s-.3-.2-.51-.2c-.18,0-.34.05-.48.16s-.24.26-.31.46Z"/>
      <path class="uuid-b970ec48-aac2-4506-b415-c31ca9798bb4" d="M123.77,116.33l1.52-2.16h.22v2.21h.49v.31h-.49v.84h-.39v-.84h-1.35v-.37ZM123.95,116.38h1.17v-1.68l-1.17,1.68Z"/>
      <path class="uuid-b970ec48-aac2-4506-b415-c31ca9798bb4" d="M126.29,115.88c0-.54.1-.96.29-1.26s.47-.45.82-.45.62.14.81.43.28.69.28,1.22c0,.57-.09,1.01-.28,1.31-.19.31-.46.46-.81.46-.37,0-.65-.14-.84-.43-.19-.29-.28-.72-.28-1.29ZM127.4,114.29c-.23,0-.39.12-.48.35-.09.23-.14.64-.14,1.23s.05,1.03.14,1.26c.09.23.25.35.48.35s.39-.11.47-.33.13-.72.13-1.5c0-.51-.05-.86-.14-1.06-.09-.2-.25-.3-.46-.3Z"/>
      <path class="uuid-b970ec48-aac2-4506-b415-c31ca9798bb4" d="M129.64,113.98c.19,0,.36.07.5.21s.21.3.21.5-.07.35-.21.49-.3.21-.5.21-.36-.07-.5-.2-.21-.3-.21-.5.07-.36.21-.5.3-.21.5-.21ZM130.12,114.68c0-.13-.05-.24-.14-.33s-.2-.14-.34-.14-.24.05-.33.14c-.09.09-.14.2-.14.33s.05.25.14.34c.09.09.2.14.33.14s.24-.05.33-.14c.09-.09.14-.21.14-.34Z"/>
    </g>
    <g>
      <path class="uuid-b970ec48-aac2-4506-b415-c31ca9798bb4" d="M188.97,113.49c.11-.25.26-.45.44-.58s.39-.2.63-.2c.21,0,.4.06.54.18s.22.27.22.44c0,.13-.04.25-.11.37-.07.12-.2.25-.37.39.22.06.39.17.5.31s.17.33.17.54c0,.34-.13.62-.4.85-.27.23-.6.34-1.01.34-.2,0-.36-.03-.48-.09-.12-.06-.18-.14-.18-.24,0-.05.02-.1.06-.13s.09-.05.15-.05c.1,0,.24.06.4.17s.29.17.39.17c.18,0,.34-.08.49-.23s.21-.33.21-.53c0-.25-.09-.44-.26-.58s-.42-.2-.75-.2h-.06v-.1c.25-.02.45-.1.61-.25.16-.14.24-.32.24-.52,0-.15-.05-.27-.16-.36s-.24-.14-.41-.14c-.16,0-.3.04-.43.12s-.24.21-.34.37l-.08-.06Z"/>
      <path class="uuid-b970ec48-aac2-4506-b415-c31ca9798bb4" d="M191.42,114.42c0-.54.1-.96.29-1.26s.47-.45.82-.45.62.14.81.43.28.69.28,1.22c0,.57-.09,1.01-.28,1.31-.19.31-.46.46-.81.46-.37,0-.65-.14-.84-.43-.19-.29-.28-.72-.28-1.29ZM192.53,112.84c-.23,0-.39.12-.48.35-.09.23-.14.64-.14,1.23s.05,1.03.14,1.26c.09.23.25.35.48.35s.39-.11.47-.33.13-.72.13-1.5c0-.51-.05-.86-.14-1.06-.09-.2-.25-.3-.46-.3Z"/>
      <path class="uuid-b970ec48-aac2-4506-b415-c31ca9798bb4" d="M194.77,112.53c.19,0,.36.07.5.21s.21.3.21.5-.07.35-.21.49-.3.21-.5.21-.36-.07-.5-.2-.21-.3-.21-.5.07-.36.21-.5.3-.21.5-.21ZM195.25,113.23c0-.13-.05-.24-.14-.33s-.2-.14-.34-.14-.24.05-.33.14c-.09.09-.14.2-.14.33s.05.25.14.34c.09.09.2.14.33.14s.24-.05.33-.14c.09-.09.14-.21.14-.34Z"/>
    </g>
    <g>
      <path class="uuid-b970ec48-aac2-4506-b415-c31ca9798bb4" d="M171.97,113.69h-.1c.07-.33.2-.56.39-.73.19-.17.43-.25.73-.25.28,0,.5.08.66.23s.25.36.25.62c0,.2-.06.4-.17.59-.11.2-.33.46-.64.78l-.75.77h.97c.25,0,.42-.03.51-.08s.17-.15.23-.29l.1.03-.28.71h-2v-.09l.54-.56.05-.05c.68-.71,1.02-1.23,1.02-1.58,0-.22-.06-.4-.19-.53s-.3-.2-.51-.2c-.18,0-.34.05-.48.16s-.24.26-.31.46Z"/>
      <path class="uuid-b970ec48-aac2-4506-b415-c31ca9798bb4" d="M175.3,113.47v-.14c0-.05,0-.09-.02-.12-.02-.02-.04-.04-.08-.04-.02,0-.05,0-.09.02-.04.01-.08.03-.13.05l-.32.15-.05-.09c.15-.08.32-.16.49-.26s.39-.22.64-.36v2.78c0,.24.03.38.08.43s.2.08.44.08h.08v.1h-1.67v-.1c.29,0,.47-.03.54-.09s.1-.2.1-.42v-2Z"/>
      <path class="uuid-b970ec48-aac2-4506-b415-c31ca9798bb4" d="M176.86,114.42c0-.54.1-.96.29-1.26s.47-.45.82-.45.62.14.81.43.28.69.28,1.22c0,.57-.09,1.01-.28,1.31-.19.31-.46.46-.81.46-.37,0-.65-.14-.84-.43-.19-.29-.28-.72-.28-1.29ZM177.97,112.84c-.23,0-.39.12-.48.35-.09.23-.14.64-.14,1.23s.05,1.03.14,1.26c.09.23.25.35.48.35s.39-.11.47-.33.13-.72.13-1.5c0-.51-.05-.86-.14-1.06-.09-.2-.25-.3-.46-.3Z"/>
      <path class="uuid-b970ec48-aac2-4506-b415-c31ca9798bb4" d="M180.22,112.53c.19,0,.36.07.5.21s.21.3.21.5-.07.35-.21.49-.3.21-.5.21-.36-.07-.5-.2-.21-.3-.21-.5.07-.36.21-.5.3-.21.5-.21ZM180.69,113.23c0-.13-.05-.24-.14-.33s-.2-.14-.34-.14-.24.05-.33.14c-.09.09-.14.2-.14.33s.05.25.14.34c.09.09.2.14.33.14s.24-.05.33-.14c.09-.09.14-.21.14-.34Z"/>
    </g>
    <g>
      <path class="uuid-b970ec48-aac2-4506-b415-c31ca9798bb4" d="M157.37,113.49c.11-.25.26-.45.44-.58s.39-.2.63-.2c.21,0,.4.06.54.18s.22.27.22.44c0,.13-.04.25-.11.37-.07.12-.2.25-.37.39.22.06.39.17.5.31s.17.33.17.54c0,.34-.13.62-.4.85-.27.23-.6.34-1.01.34-.2,0-.36-.03-.48-.09-.12-.06-.18-.14-.18-.24,0-.05.02-.1.06-.13s.09-.05.15-.05c.1,0,.24.06.4.17s.29.17.39.17c.18,0,.34-.08.49-.23s.21-.33.21-.53c0-.25-.09-.44-.26-.58s-.42-.2-.75-.2h-.06v-.1c.25-.02.45-.1.61-.25.16-.14.24-.32.24-.52,0-.15-.05-.27-.16-.36s-.24-.14-.41-.14c-.16,0-.3.04-.43.12s-.24.21-.34.37l-.08-.06Z"/>
      <path class="uuid-b970ec48-aac2-4506-b415-c31ca9798bb4" d="M159.87,113.49c.11-.25.26-.45.44-.58s.39-.2.63-.2c.21,0,.4.06.54.18s.22.27.22.44c0,.13-.04.25-.11.37-.07.12-.2.25-.37.39.22.06.39.17.5.31s.17.33.17.54c0,.34-.13.62-.4.85-.27.23-.6.34-1.01.34-.2,0-.36-.03-.48-.09-.12-.06-.18-.14-.18-.24,0-.05.02-.1.06-.13s.09-.05.15-.05c.1,0,.24.06.4.17s.29.17.39.17c.18,0,.34-.08.49-.23s.21-.33.21-.53c0-.25-.09-.44-.26-.58s-.42-.2-.75-.2h-.06v-.1c.25-.02.45-.1.61-.25.16-.14.24-.32.24-.52,0-.15-.05-.27-.16-.36s-.24-.14-.41-.14c-.16,0-.3.04-.43.12s-.24.21-.34.37l-.08-.06Z"/>
      <path class="uuid-b970ec48-aac2-4506-b415-c31ca9798bb4" d="M162.32,114.42c0-.54.1-.96.29-1.26s.47-.45.82-.45.62.14.81.43.28.69.28,1.22c0,.57-.09,1.01-.28,1.31-.19.31-.46.46-.81.46-.37,0-.65-.14-.84-.43-.19-.29-.28-.72-.28-1.29ZM163.43,112.84c-.23,0-.39.12-.48.35-.09.23-.14.64-.14,1.23s.05,1.03.14,1.26c.09.23.25.35.48.35s.39-.11.47-.33.13-.72.13-1.5c0-.51-.05-.86-.14-1.06-.09-.2-.25-.3-.46-.3Z"/>
      <path class="uuid-b970ec48-aac2-4506-b415-c31ca9798bb4" d="M165.68,112.53c.19,0,.36.07.5.21s.21.3.21.5-.07.35-.21.49-.3.21-.5.21-.36-.07-.5-.2-.21-.3-.21-.5.07-.36.21-.5.3-.21.5-.21ZM166.15,113.23c0-.13-.05-.24-.14-.33s-.2-.14-.34-.14-.24.05-.33.14c-.09.09-.14.2-.14.33s.05.25.14.34c.09.09.2.14.33.14s.24-.05.33-.14c.09-.09.14-.21.14-.34Z"/>
    </g>
    <path class="uuid-b970ec48-aac2-4506-b415-c31ca9798bb4" d="M197.19,209.93c.09.09.16.2.21.34l.03.08.13-.44c.02-.05.03-.08.04-.1.01-.02.04-.03.08-.03l.68-.08s.06,0,.06.02,0,.04,0,.07c-.02.05-.03.09-.04.12,0,.03-.02.07-.04.13l-.58,2.1c-.13.46-.23.85-.32,1.18-.14.6-.22.94-.22,1.03,0,.05.01.09.04.12s.07.04.11.04c.04,0,.07-.01.12-.04s.09-.06.16-.11l.11-.08s.07-.06.11-.1c.04-.04.09-.08.15-.14l.38-.38.14.12c-.42.52-.75.87-1,1.06-.25.19-.49.28-.72.28-.15,0-.26-.05-.34-.15s-.12-.23-.12-.38c0-.14.03-.34.08-.6.05-.26.1-.48.16-.66-.07.12-.19.29-.35.51-.17.22-.37.44-.61.65-.29.25-.56.43-.82.54-.2.07-.4.11-.58.11-.32,0-.6-.13-.86-.39-.26-.26-.39-.63-.39-1.11,0-.82.37-1.68,1.11-2.57.77-.93,1.56-1.39,2.38-1.39.31,0,.55.08.72.24ZM197,210.16c-.13-.13-.29-.2-.47-.2-.64,0-1.24.49-1.79,1.47-.49.86-.73,1.6-.73,2.22,0,.31.07.54.2.68.13.14.3.21.5.21.59,0,1.16-.48,1.7-1.43.53-.86.79-1.64.79-2.34,0-.28-.07-.49-.2-.62Z"/>
    <path class="uuid-cad40440-e826-471e-9ca2-9cd494197356" d="M190.29,188.92c.21.21.32.42.32.62,0,.18-.05.33-.16.43-.11.1-.24.15-.39.15s-.27-.04-.36-.13-.15-.2-.15-.33c0-.1.03-.21.1-.33s.1-.19.1-.23c0-.07-.04-.13-.12-.18s-.21-.07-.38-.07c-.63,0-1.17.36-1.64,1.07s-.69,1.47-.69,2.25c0,.44.09.79.28,1.04.19.25.47.38.84.38.3,0,.59-.09.88-.26s.54-.4.78-.67l.04-.05.17.13c-.27.35-.54.62-.79.8-.45.32-.95.49-1.49.49s-.95-.17-1.27-.5-.49-.79-.49-1.37c0-.89.36-1.7,1.08-2.45.71-.74,1.49-1.11,2.32-1.11.48,0,.82.11,1.03.32Z"/>
    <path class="uuid-0cd232ec-c730-4421-ad28-477d61bc9dd3" d="M196.81,179.15h.19c.09.47.19.82.3,1.04.21.4.54.6.96.6.24,0,.44-.08.6-.25s.24-.39.24-.67c0-.17-.02-.31-.06-.42s-.09-.21-.16-.3l-.49-.72c-.29-.44-.48-.73-.55-.88-.11-.22-.17-.45-.17-.67,0-.34.12-.64.37-.9s.59-.39,1.04-.39c.19,0,.41.04.66.11s.41.11.5.11c.1,0,.17-.02.22-.06s.09-.09.13-.16h.17l-.24,1.66h-.19c-.05-.38-.13-.66-.23-.86-.19-.36-.48-.53-.89-.53-.17,0-.33.05-.46.16s-.2.26-.2.47c0,.16.03.3.09.42s.2.34.41.64l.42.6c.21.31.37.56.46.76s.13.41.13.63c0,.42-.18.78-.54,1.07s-.79.43-1.28.43c-.16,0-.39-.03-.69-.1s-.47-.1-.52-.1c-.08,0-.14.02-.17.05s-.07.09-.1.16h-.19l.23-1.92Z"/>
    <path class="uuid-35c02399-ad7a-4c50-a247-d7763099aaf6" d="M132.23,190.83c.02-.09.04-.16.05-.23s.01-.13.01-.17c0-.05-.01-.1-.04-.15s-.08-.09-.18-.11c-.03,0-.07-.01-.14-.02s-.2-.01-.42-.02v-.21c.13-.02.26-.04.41-.05.15-.02.35-.04.6-.08.03,0,.15-.03.36-.08s.36-.07.45-.07c.02,0,.04,0,.06.02s.03.04.03.07v.08s-1.21,4.43-1.21,4.43c.35-.5.65-.86.89-1.09.43-.39.87-.59,1.32-.59.43,0,.77.14,1.03.42.26.28.39.63.39,1.05,0,.97-.42,1.88-1.27,2.73s-1.68,1.24-2.56,1.24c-.4,0-.77-.09-1.11-.27-.34-.18-.49-.32-.46-.42l1.79-6.47ZM134.01,196.37c.54-.81.81-1.55.81-2.22,0-.3-.08-.55-.24-.73-.16-.18-.36-.27-.6-.27-.62,0-1.21.55-1.77,1.66-.49.96-.74,1.77-.74,2.4,0,.15.05.27.15.37.1.09.25.14.46.14.69,0,1.33-.45,1.93-1.35Z"/>
    <path class="uuid-df938d6c-e0d0-43ed-aa2e-abe75a7f99e8" d="M129.77,12.8c-.18.3-.42.67-.74,1.1-.33.44-.67.88-1.01,1.31-.55.68-.88,1.02-.97,1.02-.04,0-.07-.02-.08-.06s-.03-.16-.05-.36l-.35-3.65-2.43,3.98s-.03.04-.04.05-.04.01-.06.01l-.08-.02v-.05s-.08-1.45-.08-1.45c-.02-.32-.04-.66-.07-1s-.06-.65-.08-.9c-.08-.71-.17-1.14-.26-1.3s-.26-.24-.51-.24c-.05,0-.09,0-.14,0s-.1,0-.15.01v-.17c.16-.03.31-.06.46-.09s.31-.07.48-.11l.55-.14c.13,0,.27.56.4,1.67.07.61.14,1.3.2,2.08l2.3-3.64s.04-.06.06-.08.05-.03.08-.03c.04,0,.06.01.07.04s.02.06.02.11l.39,4.24s.24-.31.65-.83.62-.79.64-.82c.29-.42.49-.75.59-.98.06-.15.09-.29.09-.43,0-.05,0-.11-.02-.16-.02-.05-.05-.1-.11-.16l-.18-.17c-.05-.05-.09-.11-.13-.17-.04-.06-.06-.13-.06-.21,0-.1.03-.2.1-.3s.19-.15.37-.15c.14,0,.28.06.42.17s.2.31.2.57c0,.33-.16.76-.47,1.3Z"/>
    <path class="uuid-1586d5d5-e117-4da6-95c0-99205ab92d01" d="M205.59,24.41c.14,0,.24-.03.31-.08.07-.05.12-.14.15-.26l.95-3.34c.02-.08.04-.14.04-.18,0-.04,0-.06,0-.09,0-.08-.03-.13-.08-.17s-.14-.06-.25-.06c-.02,0-.04,0-.06,0-.02,0-.04,0-.07,0v-.11s1.1-.16,1.1-.16c.01,0,.02,0,.03.03,0,.04-.02.07-.03.09l-.19.63c.15-.2.29-.35.41-.46.23-.19.46-.29.71-.29s.44.08.58.23c.14.15.21.38.21.7,0,.54-.23,1.05-.68,1.53-.45.48-.91.72-1.39.72-.1,0-.18,0-.24-.03-.07-.02-.15-.05-.24-.1l-.05.21c-.06.23-.1.4-.12.5-.06.26-.09.41-.09.44,0,.09.03.15.09.18.06.02.18.04.35.05v.1h-1.46v-.11ZM208.74,20.54c-.07-.17-.19-.25-.38-.25-.16,0-.33.08-.51.24s-.34.42-.46.78c-.1.29-.19.58-.28.9-.09.31-.13.49-.13.55,0,.09.04.15.11.19.07.04.16.06.26.06.4,0,.75-.25,1.05-.76.27-.45.41-.9.41-1.35,0-.15-.02-.27-.05-.35Z"/>
    <path class="uuid-1586d5d5-e117-4da6-95c0-99205ab92d01" d="M198.2,40.7c.11.07.17.2.17.37,0,.08-.02.18-.06.32-.04.14-.11.36-.2.67.25-.39.47-.68.66-.88.33-.37.62-.55.88-.55.11,0,.21.04.29.11.09.07.13.19.13.35,0,.05-.02.17-.07.36l-.54,1.87s0,.06.01.09c.02.03.04.05.09.05.04,0,.08-.01.11-.03.03-.02.07-.05.12-.1.05-.05.08-.09.11-.12.03-.03.11-.13.24-.3l.11.08-.04.05c-.16.23-.33.42-.5.56-.17.14-.33.21-.49.21-.07,0-.13-.02-.18-.05-.08-.06-.12-.16-.12-.3,0-.03,0-.07,0-.11,0-.04.01-.08.03-.13l.53-1.92s.01-.05.02-.07c0-.02,0-.04,0-.05,0-.06-.01-.1-.04-.13-.03-.03-.07-.04-.11-.04-.16,0-.34.12-.54.35-.21.23-.39.46-.54.7-.14.24-.24.44-.3.61-.06.16-.16.52-.31,1.07h-.53l.68-2.43s0-.04.01-.06c0-.02,0-.04,0-.06,0-.06-.01-.1-.04-.13s-.06-.05-.12-.05c-.15,0-.33.12-.54.36s-.39.46-.53.67c-.14.2-.26.47-.39.81-.07.21-.17.5-.29.89h-.53l.66-2.43s.01-.05.02-.07c0-.02,0-.05,0-.07,0-.09-.03-.14-.09-.16-.06-.02-.18-.02-.36-.02v-.11c.23-.04.6-.11,1.11-.23l.03.02-.39,1.4c.26-.37.5-.68.73-.93.31-.33.59-.49.83-.49.09,0,.17.02.25.08Z"/>
    <path class="uuid-df938d6c-e0d0-43ed-aa2e-abe75a7f99e8" d="M5.73,98.47c.25-.04.46-.06.61-.08.16-.02.29-.04.4-.06.47-.09.72-.14.75-.15.04,0,.06-.01.08-.01.05.02.07.05.07.09l-1.45,5.23c.48-.73.88-1.26,1.19-1.59.54-.58,1.03-.87,1.48-.87.18,0,.36.06.54.18s.26.33.26.64c0,.07,0,.17-.03.29s-.04.22-.07.31l-.78,2.81c-.02.08-.04.15-.06.23s-.02.14-.02.2c0,.07.02.12.05.15s.08.05.13.05c.12,0,.26-.08.43-.25.1-.11.29-.34.57-.69l.15.14c-.27.41-.51.7-.7.89-.34.33-.68.5-1.02.5-.16,0-.29-.05-.39-.15s-.16-.24-.16-.42c0-.05,0-.1,0-.14s.02-.09.03-.15l.88-3.43s.01-.06.02-.1,0-.07,0-.1c0-.1-.03-.17-.09-.23-.06-.05-.14-.08-.24-.08-.26,0-.59.21-.99.63-.4.42-.73.85-1,1.29-.19.31-.33.6-.42.87-.1.27-.28.9-.55,1.89h-.91l1.97-7.11c.01-.05.02-.09.02-.13s0-.07,0-.1c0-.17-.05-.27-.16-.3s-.32-.04-.63-.03v-.19Z"/>
    <line class="uuid-b0192cb4-4aa3-4e92-93e1-5e5bb170eeb0" x1="203.01" y1="16.18" x2="203.01" y2="26.31"/>
    <circle class="uuid-59a440f8-fe1f-405b-8705-f678359b3730" cx="192.79" cy="88.22" r="4.02"/>
    <circle class="uuid-59a440f8-fe1f-405b-8705-f678359b3730" cx="32.74" cy="180.25" r="4.02"/>
    <circle id="uuid-cdfa4a49-3cd2-4298-ad7f-6e5fd1e967d7" data-name="cerchio esterno" class="uuid-07285a32-929b-4c11-8870-c21c1927a5b7" cx="124.14" cy="127.75" r="105"/>
    <g id="uuid-03ac5763-12ee-43ca-bbfe-53ca33a5d024" data-name="cerchio esterno">
      <circle class="uuid-0d45f778-e0d5-4f2f-b421-61264cff5db9" cx="124.14" cy="127.75" r="108.59" transform="translate(-53.97 125.19) rotate(-45)"/>
    </g>
    <g class="uuid-cf048470-2cf5-47e2-bd76-e8df376c2231">
      <g>
        <path class="uuid-3bd856e9-719e-4cdd-882a-3d975fff634b" d="M153.8,145.53c-6.05,10.07-17.08,16.81-29.68,16.81s-24.31-7.16-30.22-17.74c-2.79-4.99-4.37-10.73-4.37-16.85,0-19.11,15.49-34.6,34.6-34.6s34.3,15.2,34.59,34.05"/>
        <polygon class="uuid-b970ec48-aac2-4506-b415-c31ca9798bb4" points="151.18 145.85 151.31 146.33 153.69 145.69 154.16 148.11 154.65 148.01 154.08 145.06 151.18 145.85"/>
        <polygon class="uuid-b970ec48-aac2-4506-b415-c31ca9798bb4" points="156.56 125.65 156.91 125.3 158.68 127.01 160.26 125.13 160.65 125.45 158.71 127.75 156.56 125.65"/>
      </g>
    </g>
    <g class="uuid-cf048470-2cf5-47e2-bd76-e8df376c2231">
      <g>
        <path class="uuid-3bd856e9-719e-4cdd-882a-3d975fff634b" d="M81.88,151.53c-3.96-7.02-6.22-15.14-6.22-23.78,0-26.76,21.7-48.46,48.46-48.46s48.17,21.4,48.46,47.92"/>
        <polygon class="uuid-b970ec48-aac2-4506-b415-c31ca9798bb4" points="82.91 149.09 82.43 148.96 81.8 151.35 79.47 150.55 79.31 151.03 82.15 152 82.91 149.09"/>
        <polygon class="uuid-b970ec48-aac2-4506-b415-c31ca9798bb4" points="170.43 125.65 170.77 125.3 172.54 127.01 174.13 125.13 174.51 125.45 172.58 127.75 170.43 125.65"/>
      </g>
    </g>
    <g class="uuid-cf048470-2cf5-47e2-bd76-e8df376c2231">
      <g>
        <path class="uuid-3bd856e9-719e-4cdd-882a-3d975fff634b" d="M180.44,95.97c5.22,9.24,8.24,19.89,8.33,31.24"/>
        <polygon class="uuid-b970ec48-aac2-4506-b415-c31ca9798bb4" points="179.4 98.4 179.88 98.53 180.51 96.14 182.84 96.94 183.01 96.47 180.17 95.5 179.4 98.4"/>
        <polygon class="uuid-b970ec48-aac2-4506-b415-c31ca9798bb4" points="186.66 125.62 187.01 125.26 188.75 127.01 190.37 125.15 190.74 125.48 188.77 127.75 186.66 125.62"/>
      </g>
    </g>
  </g>
</svg>